%TF.GenerationSoftware,KiCad,Pcbnew,(7.0.0)*%
%TF.CreationDate,2023-06-29T16:26:30+02:00*%
%TF.ProjectId,V0_Display,56305f44-6973-4706-9c61-792e6b696361,rev?*%
%TF.SameCoordinates,Original*%
%TF.FileFunction,Soldermask,Top*%
%TF.FilePolarity,Negative*%
%FSLAX46Y46*%
G04 Gerber Fmt 4.6, Leading zero omitted, Abs format (unit mm)*
G04 Created by KiCad (PCBNEW (7.0.0)) date 2023-06-29 16:26:30*
%MOMM*%
%LPD*%
G01*
G04 APERTURE LIST*
G04 Aperture macros list*
%AMRoundRect*
0 Rectangle with rounded corners*
0 $1 Rounding radius*
0 $2 $3 $4 $5 $6 $7 $8 $9 X,Y pos of 4 corners*
0 Add a 4 corners polygon primitive as box body*
4,1,4,$2,$3,$4,$5,$6,$7,$8,$9,$2,$3,0*
0 Add four circle primitives for the rounded corners*
1,1,$1+$1,$2,$3*
1,1,$1+$1,$4,$5*
1,1,$1+$1,$6,$7*
1,1,$1+$1,$8,$9*
0 Add four rect primitives between the rounded corners*
20,1,$1+$1,$2,$3,$4,$5,0*
20,1,$1+$1,$4,$5,$6,$7,0*
20,1,$1+$1,$6,$7,$8,$9,0*
20,1,$1+$1,$8,$9,$2,$3,0*%
G04 Aperture macros list end*
%ADD10C,3.300000*%
%ADD11RoundRect,0.050000X-0.750000X-0.500000X0.750000X-0.500000X0.750000X0.500000X-0.750000X0.500000X0*%
%ADD12C,2.100000*%
%ADD13O,2.600000X4.100000*%
%ADD14C,1.624000*%
%ADD15RoundRect,0.050000X0.850000X-0.850000X0.850000X0.850000X-0.850000X0.850000X-0.850000X-0.850000X0*%
%ADD16O,1.800000X1.800000*%
%ADD17RoundRect,0.050000X-0.850000X0.850000X-0.850000X-0.850000X0.850000X-0.850000X0.850000X0.850000X0*%
%ADD18RoundRect,0.050000X0.850000X0.850000X-0.850000X0.850000X-0.850000X-0.850000X0.850000X-0.850000X0*%
%ADD19C,0.620000*%
%ADD20O,2.070000X1.020000*%
%ADD21O,1.970000X0.970000*%
G04 APERTURE END LIST*
D10*
%TO.C,H2*%
X161170000Y-80650000D03*
%TD*%
%TO.C,H3*%
X161170000Y-55650000D03*
%TD*%
D11*
%TO.C,D1*%
X157470000Y-60550000D03*
X157470000Y-63750000D03*
X162370000Y-63750000D03*
X162370000Y-60550000D03*
%TD*%
D12*
%TO.C,SW6*%
X156670000Y-69900000D03*
X163170000Y-69900000D03*
X156670000Y-74400000D03*
X163170000Y-74400000D03*
%TD*%
%TO.C,SW7*%
X141920000Y-74650000D03*
X146920000Y-74650000D03*
X144420000Y-74650000D03*
D13*
X139339999Y-67149999D03*
X149499999Y-67149999D03*
D12*
X141920000Y-60150000D03*
X146920000Y-60150000D03*
%TD*%
D10*
%TO.C,H4*%
X89170000Y-80650000D03*
%TD*%
%TO.C,H1*%
X89170000Y-55650000D03*
%TD*%
D14*
%TO.C,J2*%
X109660000Y-52850000D03*
X112200000Y-52850000D03*
X114740000Y-52850000D03*
X117280000Y-52850000D03*
%TD*%
D15*
%TO.C,J3*%
X108795000Y-73120000D03*
D16*
X111334999Y-73119999D03*
X113874999Y-73119999D03*
X116414999Y-73119999D03*
X118954999Y-73119999D03*
%TD*%
D12*
%TO.C,SW5*%
X128975000Y-73145000D03*
X122475000Y-73145000D03*
X128975000Y-77645000D03*
X122475000Y-77645000D03*
%TD*%
D17*
%TO.C,J8*%
X148300000Y-54260000D03*
D16*
X145759999Y-54259999D03*
%TD*%
D18*
%TO.C,J7*%
X97220000Y-69550000D03*
D16*
X97219999Y-67009999D03*
X97219999Y-64469999D03*
X97219999Y-61929999D03*
%TD*%
D12*
%TO.C,SW1*%
X104720000Y-73145000D03*
X98220000Y-73145000D03*
X104720000Y-77645000D03*
X98220000Y-77645000D03*
%TD*%
D19*
%TO.C,J4*%
X91600000Y-70020000D03*
X91600000Y-64240000D03*
D20*
X92099999Y-71449999D03*
D21*
X87919999Y-71449999D03*
X87919999Y-62809999D03*
D20*
X92099999Y-62809999D03*
%TD*%
M02*
