%TF.GenerationSoftware,KiCad,Pcbnew,(7.0.0)*%
%TF.CreationDate,2023-06-29T16:26:30+02:00*%
%TF.ProjectId,V0_Display,56305f44-6973-4706-9c61-792e6b696361,rev?*%
%TF.SameCoordinates,Original*%
%TF.FileFunction,Paste,Bot*%
%TF.FilePolarity,Positive*%
%FSLAX46Y46*%
G04 Gerber Fmt 4.6, Leading zero omitted, Abs format (unit mm)*
G04 Created by KiCad (PCBNEW (7.0.0)) date 2023-06-29 16:26:30*
%MOMM*%
%LPD*%
G01*
G04 APERTURE LIST*
G04 Aperture macros list*
%AMRoundRect*
0 Rectangle with rounded corners*
0 $1 Rounding radius*
0 $2 $3 $4 $5 $6 $7 $8 $9 X,Y pos of 4 corners*
0 Add a 4 corners polygon primitive as box body*
4,1,4,$2,$3,$4,$5,$6,$7,$8,$9,$2,$3,0*
0 Add four circle primitives for the rounded corners*
1,1,$1+$1,$2,$3*
1,1,$1+$1,$4,$5*
1,1,$1+$1,$6,$7*
1,1,$1+$1,$8,$9*
0 Add four rect primitives between the rounded corners*
20,1,$1+$1,$2,$3,$4,$5,0*
20,1,$1+$1,$4,$5,$6,$7,0*
20,1,$1+$1,$6,$7,$8,$9,0*
20,1,$1+$1,$8,$9,$2,$3,0*%
G04 Aperture macros list end*
%ADD10C,0.010000*%
%ADD11RoundRect,0.140000X-0.140000X-0.170000X0.140000X-0.170000X0.140000X0.170000X-0.140000X0.170000X0*%
%ADD12RoundRect,0.200000X-0.275000X0.200000X-0.275000X-0.200000X0.275000X-0.200000X0.275000X0.200000X0*%
%ADD13RoundRect,0.135000X0.135000X0.185000X-0.135000X0.185000X-0.135000X-0.185000X0.135000X-0.185000X0*%
%ADD14RoundRect,0.140000X0.140000X0.170000X-0.140000X0.170000X-0.140000X-0.170000X0.140000X-0.170000X0*%
%ADD15RoundRect,0.135000X-0.135000X-0.185000X0.135000X-0.185000X0.135000X0.185000X-0.135000X0.185000X0*%
%ADD16RoundRect,0.140000X-0.170000X0.140000X-0.170000X-0.140000X0.170000X-0.140000X0.170000X0.140000X0*%
%ADD17RoundRect,0.140000X0.170000X-0.140000X0.170000X0.140000X-0.170000X0.140000X-0.170000X-0.140000X0*%
%ADD18RoundRect,0.135000X0.185000X-0.135000X0.185000X0.135000X-0.185000X0.135000X-0.185000X-0.135000X0*%
%ADD19RoundRect,0.200000X0.275000X-0.200000X0.275000X0.200000X-0.275000X0.200000X-0.275000X-0.200000X0*%
%ADD20RoundRect,0.225000X-0.250000X0.225000X-0.250000X-0.225000X0.250000X-0.225000X0.250000X0.225000X0*%
%ADD21R,1.060000X0.650000*%
%ADD22R,1.050000X0.600000*%
%ADD23R,0.500000X0.375000*%
%ADD24R,0.650000X0.300000*%
%ADD25RoundRect,0.225000X0.250000X-0.225000X0.250000X0.225000X-0.250000X0.225000X-0.250000X-0.225000X0*%
%ADD26RoundRect,0.250000X0.292217X-0.292217X0.292217X0.292217X-0.292217X0.292217X-0.292217X-0.292217X0*%
%ADD27RoundRect,0.050000X0.050000X-0.387500X0.050000X0.387500X-0.050000X0.387500X-0.050000X-0.387500X0*%
%ADD28RoundRect,0.050000X0.387500X-0.050000X0.387500X0.050000X-0.387500X0.050000X-0.387500X-0.050000X0*%
%ADD29RoundRect,0.147500X0.147500X0.172500X-0.147500X0.172500X-0.147500X-0.172500X0.147500X-0.172500X0*%
%ADD30R,1.400000X1.200000*%
%ADD31R,1.150000X0.600000*%
%ADD32R,1.150000X0.300000*%
G04 APERTURE END LIST*
%TO.C,U4*%
G36*
X104980000Y-57277500D02*
G01*
X104780000Y-57277500D01*
X104780000Y-56727500D01*
X104980000Y-56727500D01*
X104980000Y-57277500D01*
G37*
D10*
X104980000Y-57277500D02*
X104780000Y-57277500D01*
X104780000Y-56727500D01*
X104980000Y-56727500D01*
X104980000Y-57277500D01*
G36*
X104480000Y-57277500D02*
G01*
X104280000Y-57277500D01*
X104280000Y-56727500D01*
X104480000Y-56727500D01*
X104480000Y-57277500D01*
G37*
X104480000Y-57277500D02*
X104280000Y-57277500D01*
X104280000Y-56727500D01*
X104480000Y-56727500D01*
X104480000Y-57277500D01*
G36*
X103980000Y-57277500D02*
G01*
X103780000Y-57277500D01*
X103780000Y-56727500D01*
X103980000Y-56727500D01*
X103980000Y-57277500D01*
G37*
X103980000Y-57277500D02*
X103780000Y-57277500D01*
X103780000Y-56727500D01*
X103980000Y-56727500D01*
X103980000Y-57277500D01*
G36*
X103480000Y-57277500D02*
G01*
X103280000Y-57277500D01*
X103280000Y-56727500D01*
X103480000Y-56727500D01*
X103480000Y-57277500D01*
G37*
X103480000Y-57277500D02*
X103280000Y-57277500D01*
X103280000Y-56727500D01*
X103480000Y-56727500D01*
X103480000Y-57277500D01*
G36*
X104730000Y-58477500D02*
G01*
X104230000Y-58477500D01*
X104230000Y-58277500D01*
X104730000Y-58277500D01*
X104730000Y-58477500D01*
G37*
X104730000Y-58477500D02*
X104230000Y-58477500D01*
X104230000Y-58277500D01*
X104730000Y-58277500D01*
X104730000Y-58477500D01*
G36*
X104030000Y-58477500D02*
G01*
X103530000Y-58477500D01*
X103530000Y-58277500D01*
X104030000Y-58277500D01*
X104030000Y-58477500D01*
G37*
X104030000Y-58477500D02*
X103530000Y-58477500D01*
X103530000Y-58277500D01*
X104030000Y-58277500D01*
X104030000Y-58477500D01*
G36*
X104980000Y-60027500D02*
G01*
X104780000Y-60027500D01*
X104780000Y-59477500D01*
X104980000Y-59477500D01*
X104980000Y-60027500D01*
G37*
X104980000Y-60027500D02*
X104780000Y-60027500D01*
X104780000Y-59477500D01*
X104980000Y-59477500D01*
X104980000Y-60027500D01*
G36*
X104480000Y-60027500D02*
G01*
X104280000Y-60027500D01*
X104280000Y-59477500D01*
X104480000Y-59477500D01*
X104480000Y-60027500D01*
G37*
X104480000Y-60027500D02*
X104280000Y-60027500D01*
X104280000Y-59477500D01*
X104480000Y-59477500D01*
X104480000Y-60027500D01*
G36*
X103980000Y-60027500D02*
G01*
X103780000Y-60027500D01*
X103780000Y-59477500D01*
X103980000Y-59477500D01*
X103980000Y-60027500D01*
G37*
X103980000Y-60027500D02*
X103780000Y-60027500D01*
X103780000Y-59477500D01*
X103980000Y-59477500D01*
X103980000Y-60027500D01*
G36*
X103480000Y-60027500D02*
G01*
X103280000Y-60027500D01*
X103280000Y-59477500D01*
X103480000Y-59477500D01*
X103480000Y-60027500D01*
G37*
X103480000Y-60027500D02*
X103280000Y-60027500D01*
X103280000Y-59477500D01*
X103480000Y-59477500D01*
X103480000Y-60027500D01*
%TD*%
D11*
%TO.C,C10*%
X107750000Y-67000000D03*
X106790000Y-67000000D03*
%TD*%
D12*
%TO.C,R1*%
X119360000Y-79085000D03*
X119360000Y-77435000D03*
%TD*%
D11*
%TO.C,C12*%
X109600000Y-58150000D03*
X108640000Y-58150000D03*
%TD*%
D13*
%TO.C,R5*%
X91810000Y-73050000D03*
X92830000Y-73050000D03*
%TD*%
D14*
%TO.C,C11*%
X119290000Y-63800000D03*
X120250000Y-63800000D03*
%TD*%
D11*
%TO.C,C14*%
X110400000Y-68050000D03*
X109440000Y-68050000D03*
%TD*%
D15*
%TO.C,R6*%
X92830000Y-61150000D03*
X91810000Y-61150000D03*
%TD*%
D16*
%TO.C,C8*%
X107080000Y-78470000D03*
X107080000Y-77510000D03*
%TD*%
D11*
%TO.C,C9*%
X107750000Y-64950000D03*
X106790000Y-64950000D03*
%TD*%
D17*
%TO.C,C5*%
X117320000Y-77070000D03*
X117320000Y-78030000D03*
%TD*%
D11*
%TO.C,C7*%
X106500000Y-61750000D03*
X105540000Y-61750000D03*
%TD*%
%TO.C,C16*%
X107750000Y-66000000D03*
X106790000Y-66000000D03*
%TD*%
%TO.C,C17*%
X107100000Y-63250000D03*
X106140000Y-63250000D03*
%TD*%
D14*
%TO.C,C13*%
X115140000Y-57950000D03*
X116100000Y-57950000D03*
%TD*%
%TO.C,C6*%
X119290000Y-64800000D03*
X120250000Y-64800000D03*
%TD*%
%TO.C,C15*%
X114540000Y-67750000D03*
X115500000Y-67750000D03*
%TD*%
D18*
%TO.C,R2*%
X118750000Y-62670000D03*
X118750000Y-61650000D03*
%TD*%
D19*
%TO.C,R3*%
X115150000Y-68925000D03*
X115150000Y-70575000D03*
%TD*%
D20*
%TO.C,C2*%
X105520000Y-67750000D03*
X105520000Y-66200000D03*
%TD*%
D16*
%TO.C,C3*%
X118760000Y-59740000D03*
X118760000Y-60700000D03*
%TD*%
%TO.C,C4*%
X124070000Y-61680000D03*
X124070000Y-62640000D03*
%TD*%
D21*
%TO.C,U1*%
X101719999Y-68244999D03*
X101719999Y-67294999D03*
X101719999Y-66344999D03*
X103919999Y-66344999D03*
X103919999Y-68244999D03*
%TD*%
D22*
%TO.C,U3*%
X123459999Y-67849999D03*
X123459999Y-66899999D03*
X123459999Y-65949999D03*
X126159999Y-65949999D03*
X126159999Y-67849999D03*
%TD*%
D23*
%TO.C,U2*%
X100344999Y-62987499D03*
D24*
X100269999Y-62449999D03*
D23*
X100344999Y-61912499D03*
X102044999Y-61912499D03*
D24*
X102119999Y-62449999D03*
D23*
X102044999Y-62987499D03*
%TD*%
D25*
%TO.C,C1*%
X100070000Y-66430000D03*
X100070000Y-67980000D03*
%TD*%
D15*
%TO.C,R7*%
X104560000Y-63190000D03*
X103540000Y-63190000D03*
%TD*%
D26*
%TO.C,U5*%
X113637500Y-62362500D03*
X112362500Y-62362500D03*
X113637500Y-63637500D03*
X112362500Y-63637500D03*
D27*
X110400000Y-59562500D03*
X110800000Y-59562500D03*
X111200000Y-59562500D03*
X111600000Y-59562500D03*
X112000000Y-59562500D03*
X112400000Y-59562500D03*
X112800000Y-59562500D03*
X113200000Y-59562500D03*
X113600000Y-59562500D03*
X114000000Y-59562500D03*
X114400000Y-59562500D03*
X114800000Y-59562500D03*
X115200000Y-59562500D03*
X115600000Y-59562500D03*
D28*
X116437500Y-60400000D03*
X116437500Y-60800000D03*
X116437500Y-61200000D03*
X116437500Y-61600000D03*
X116437500Y-62000000D03*
X116437500Y-62400000D03*
X116437500Y-62800000D03*
X116437500Y-63200000D03*
X116437500Y-63600000D03*
X116437500Y-64000000D03*
X116437500Y-64400000D03*
X116437500Y-64800000D03*
X116437500Y-65200000D03*
X116437500Y-65600000D03*
D27*
X115600000Y-66437500D03*
X115200000Y-66437500D03*
X114800000Y-66437500D03*
X114400000Y-66437500D03*
X114000000Y-66437500D03*
X113600000Y-66437500D03*
X113200000Y-66437500D03*
X112800000Y-66437500D03*
X112400000Y-66437500D03*
X112000000Y-66437500D03*
X111600000Y-66437500D03*
X111200000Y-66437500D03*
X110800000Y-66437500D03*
X110400000Y-66437500D03*
D28*
X109562500Y-65600000D03*
X109562500Y-65200000D03*
X109562500Y-64800000D03*
X109562500Y-64400000D03*
X109562500Y-64000000D03*
X109562500Y-63600000D03*
X109562500Y-63200000D03*
X109562500Y-62800000D03*
X109562500Y-62400000D03*
X109562500Y-62000000D03*
X109562500Y-61600000D03*
X109562500Y-61200000D03*
X109562500Y-60800000D03*
X109562500Y-60400000D03*
%TD*%
D29*
%TO.C,L1*%
X107285000Y-68050000D03*
X108255000Y-68050000D03*
%TD*%
D30*
%TO.C,Y1*%
X122519999Y-59649999D03*
X120319999Y-59649999D03*
X120319999Y-61349999D03*
X122519999Y-61349999D03*
%TD*%
D31*
%TO.C,J4*%
X92674999Y-70329999D03*
X92674999Y-69529999D03*
D32*
X92674999Y-68379999D03*
X92674999Y-67379999D03*
X92674999Y-66879999D03*
X92674999Y-65879999D03*
D31*
X92674999Y-63929999D03*
X92674999Y-64729999D03*
D32*
X92674999Y-65379999D03*
X92674999Y-66379999D03*
X92674999Y-67879999D03*
X92674999Y-68879999D03*
%TD*%
D19*
%TO.C,R4*%
X113690000Y-68925000D03*
X113690000Y-70575000D03*
%TD*%
D13*
%TO.C,R8*%
X103520000Y-64190000D03*
X104540000Y-64190000D03*
%TD*%
M02*
