%TF.GenerationSoftware,KiCad,Pcbnew,(7.0.0)*%
%TF.CreationDate,2023-06-29T16:26:30+02:00*%
%TF.ProjectId,V0_Display,56305f44-6973-4706-9c61-792e6b696361,rev?*%
%TF.SameCoordinates,Original*%
%TF.FileFunction,Copper,L1,Top*%
%TF.FilePolarity,Positive*%
%FSLAX46Y46*%
G04 Gerber Fmt 4.6, Leading zero omitted, Abs format (unit mm)*
G04 Created by KiCad (PCBNEW (7.0.0)) date 2023-06-29 16:26:30*
%MOMM*%
%LPD*%
G01*
G04 APERTURE LIST*
%TA.AperFunction,SMDPad,CuDef*%
%ADD10R,1.500000X1.000000*%
%TD*%
%TA.AperFunction,ComponentPad*%
%ADD11C,2.000000*%
%TD*%
%TA.AperFunction,ComponentPad*%
%ADD12O,2.500000X4.000000*%
%TD*%
%TA.AperFunction,ComponentPad*%
%ADD13C,1.524000*%
%TD*%
%TA.AperFunction,ComponentPad*%
%ADD14R,1.700000X1.700000*%
%TD*%
%TA.AperFunction,ComponentPad*%
%ADD15O,1.700000X1.700000*%
%TD*%
%TA.AperFunction,ComponentPad*%
%ADD16C,0.600000*%
%TD*%
%TA.AperFunction,ComponentPad*%
%ADD17O,2.100000X1.050000*%
%TD*%
%TA.AperFunction,ComponentPad*%
%ADD18O,2.000000X1.000000*%
%TD*%
%TA.AperFunction,ViaPad*%
%ADD19C,0.400000*%
%TD*%
%TA.AperFunction,ViaPad*%
%ADD20C,0.550000*%
%TD*%
%TA.AperFunction,ViaPad*%
%ADD21C,0.800000*%
%TD*%
%TA.AperFunction,Conductor*%
%ADD22C,0.400000*%
%TD*%
%TA.AperFunction,Conductor*%
%ADD23C,0.200000*%
%TD*%
%TA.AperFunction,Conductor*%
%ADD24C,1.000000*%
%TD*%
G04 APERTURE END LIST*
D10*
%TO.P,D1,1,VDD*%
%TO.N,VBUS*%
X157469999Y-60549999D03*
%TO.P,D1,2,DOUT*%
%TO.N,Net-(D1-DOUT)*%
X157469999Y-63749999D03*
%TO.P,D1,3,VSS*%
%TO.N,GND*%
X162369999Y-63749999D03*
%TO.P,D1,4,DIN*%
%TO.N,Net-(D1-DIN)*%
X162369999Y-60549999D03*
%TD*%
D11*
%TO.P,SW6,1,A*%
%TO.N,GND*%
X156670000Y-69900000D03*
X163170000Y-69900000D03*
%TO.P,SW6,2,B*%
%TO.N,Kill_Switch*%
X156670000Y-74400000D03*
X163170000Y-74400000D03*
%TD*%
%TO.P,SW7,A,A*%
%TO.N,Encoder_A*%
X141920000Y-74650000D03*
%TO.P,SW7,B,B*%
%TO.N,Encoder_B*%
X146920000Y-74650000D03*
%TO.P,SW7,C,C*%
%TO.N,GND*%
X144420000Y-74650000D03*
D12*
%TO.P,SW7,MP,MP*%
X139339999Y-67149999D03*
X149499999Y-67149999D03*
D11*
%TO.P,SW7,S1,S1*%
%TO.N,Encoder_Switch*%
X141920000Y-60150000D03*
%TO.P,SW7,S2,S2*%
%TO.N,GND*%
X146920000Y-60150000D03*
%TD*%
D13*
%TO.P,J2,1,Pin_1*%
%TO.N,GND*%
X109660000Y-52850000D03*
%TO.P,J2,2,Pin_2*%
%TO.N,3.3V*%
X112200000Y-52850000D03*
%TO.P,J2,3,Pin_3*%
%TO.N,SCL*%
X114740000Y-52850000D03*
%TO.P,J2,4,Pin_4*%
%TO.N,SDA*%
X117280000Y-52850000D03*
%TD*%
D14*
%TO.P,J3,1,Pin_1*%
%TO.N,RUN*%
X108794999Y-73119999D03*
D15*
%TO.P,J3,2,Pin_2*%
%TO.N,SWDCLK*%
X111334999Y-73119999D03*
%TO.P,J3,3,Pin_3*%
%TO.N,GND*%
X113874999Y-73119999D03*
%TO.P,J3,4,Pin_4*%
%TO.N,SWDIO*%
X116414999Y-73119999D03*
%TO.P,J3,5,Pin_5*%
%TO.N,3.3V*%
X118954999Y-73119999D03*
%TD*%
D11*
%TO.P,SW5,1,A*%
%TO.N,QSPI_SS*%
X128975000Y-73145000D03*
X122475000Y-73145000D03*
%TO.P,SW5,2,B*%
%TO.N,Net-(SW5-B)*%
X128975000Y-77645000D03*
X122475000Y-77645000D03*
%TD*%
D14*
%TO.P,J8,1,Pin_1*%
%TO.N,Net-(D1-DOUT)*%
X148299999Y-54259999D03*
D15*
%TO.P,J8,2,Pin_2*%
%TO.N,GND*%
X145759999Y-54259999D03*
%TD*%
D14*
%TO.P,J7,1,Pin_1*%
%TO.N,VBUS*%
X97219999Y-69549999D03*
D15*
%TO.P,J7,2,Pin_2*%
%TO.N,D-*%
X97219999Y-67009999D03*
%TO.P,J7,3,Pin_3*%
%TO.N,D+*%
X97219999Y-64469999D03*
%TO.P,J7,4,Pin_4*%
%TO.N,GND*%
X97219999Y-61929999D03*
%TD*%
D11*
%TO.P,SW1,1,1*%
%TO.N,GND*%
X104720000Y-73145000D03*
X98220000Y-73145000D03*
%TO.P,SW1,2,2*%
%TO.N,RUN*%
X104720000Y-77645000D03*
X98220000Y-77645000D03*
%TD*%
D16*
%TO.P,U5,57,GND*%
%TO.N,GND*%
X114275000Y-61725000D03*
X113000000Y-61725000D03*
X111725000Y-61725000D03*
X114275000Y-63000000D03*
X113000000Y-63000000D03*
X111725000Y-63000000D03*
X114275000Y-64275000D03*
X113000000Y-64275000D03*
X111725000Y-64275000D03*
%TD*%
D17*
%TO.P,J4,S1,SHELL_GND*%
%TO.N,GND*%
X92099999Y-71449999D03*
D18*
%TO.P,J4,S2,SHELL_GND*%
X87919999Y-71449999D03*
%TO.P,J4,S3,SHELL_GND*%
X87919999Y-62809999D03*
D17*
%TO.P,J4,S4,SHELL_GND*%
X92099999Y-62809999D03*
%TD*%
D19*
%TO.N,VBUS*%
X137450001Y-62499999D03*
X139800000Y-62500000D03*
%TO.N,Net-(D1-DIN)*%
X137000000Y-61700000D03*
X139000000Y-61700000D03*
%TO.N,1.1V*%
X115070000Y-63600000D03*
X117982155Y-63767845D03*
X110949999Y-62720001D03*
D20*
%TO.N,GND*%
X117400000Y-60900000D03*
D19*
%TO.N,3.3V*%
X116069998Y-68800000D03*
D20*
X114303886Y-58233886D03*
X110270000Y-58050000D03*
X108470000Y-66950000D03*
D19*
%TO.N,GND*%
X106320000Y-66600000D03*
%TO.N,Net-(J4-CC2)*%
X93970000Y-62200000D03*
%TO.N,Net-(J4-CC1)*%
X93870000Y-72100000D03*
D20*
%TO.N,GND*%
X106670000Y-76550000D03*
X118170000Y-78650000D03*
X109220000Y-68950000D03*
X121420000Y-64850000D03*
X121420000Y-63850000D03*
X116920000Y-57950000D03*
X108720000Y-59050000D03*
X104720000Y-61550000D03*
X105420000Y-63250000D03*
D19*
X116786976Y-68081875D03*
D21*
X99320000Y-62850000D03*
D19*
X124055000Y-60075000D03*
X123610000Y-64750000D03*
X105970000Y-65250000D03*
X104130000Y-58377500D03*
D20*
%TO.N,VBUS*%
X154250000Y-60350000D03*
D21*
X94820000Y-64050000D03*
D19*
%TO.N,SDA*%
X111620000Y-57640000D03*
%TO.N,SCL*%
X112767676Y-57117676D03*
%TO.N,SWDIO*%
X116330000Y-70560000D03*
%TO.N,NeoPixel*%
X117571498Y-66500000D03*
X120050000Y-66500000D03*
D20*
%TO.N,Net-(D1-DIN)*%
X153300000Y-59050000D03*
D19*
%TO.N,Encoder_Switch*%
X134081800Y-58738200D03*
%TO.N,RUN*%
X116370000Y-69550000D03*
D20*
%TO.N,3.3V*%
X108032823Y-63424371D03*
D19*
%TO.N,QSPI_SS*%
X116101499Y-55949999D03*
%TO.N,Net-(J4-CC2)*%
X94020000Y-65450000D03*
%TO.N,Net-(J4-CC1)*%
X93920000Y-68150000D03*
%TO.N,1.1V*%
X108520000Y-62800000D03*
%TD*%
D22*
%TO.N,1.1V*%
X115070000Y-63600000D02*
X117814310Y-63600000D01*
X117814310Y-63600000D02*
X117982155Y-63767845D01*
%TO.N,VBUS*%
X137450001Y-62499999D02*
X137450002Y-62500000D01*
X137450002Y-62500000D02*
X139800000Y-62500000D01*
%TO.N,Net-(D1-DIN)*%
X137000000Y-61700000D02*
X139000000Y-61700000D01*
%TO.N,VBUS*%
X157470000Y-60550000D02*
X154450000Y-60550000D01*
X154450000Y-60550000D02*
X154250000Y-60350000D01*
%TO.N,Net-(D1-DIN)*%
X160870000Y-59050000D02*
X153300000Y-59050000D01*
X162370000Y-60550000D02*
X160870000Y-59050000D01*
%TO.N,1.1V*%
X110870000Y-62800000D02*
X110949999Y-62720001D01*
X108520000Y-62800000D02*
X110870000Y-62800000D01*
D23*
%TO.N,3.3V*%
X114037772Y-58500000D02*
X110720000Y-58500000D01*
X114303886Y-58233886D02*
X114037772Y-58500000D01*
D22*
X112200000Y-56120000D02*
X110270000Y-58050000D01*
D23*
X110720000Y-58500000D02*
X110270000Y-58050000D01*
D22*
X112200000Y-52850000D02*
X112200000Y-56120000D01*
D23*
%TO.N,SDA*%
X113567630Y-57640000D02*
X111620000Y-57640000D01*
X117280000Y-52850000D02*
X117280000Y-53927630D01*
X117280000Y-53927630D02*
X113567630Y-57640000D01*
%TO.N,RUN*%
X108795000Y-73120000D02*
X108795000Y-71091809D01*
X110336809Y-69550000D02*
X116370000Y-69550000D01*
X108795000Y-71091809D02*
X110336809Y-69550000D01*
D22*
%TO.N,3.3V*%
X118570000Y-68800000D02*
X116069998Y-68800000D01*
X118955000Y-69185000D02*
X118570000Y-68800000D01*
X118955000Y-73120000D02*
X118955000Y-69185000D01*
X108470000Y-66950000D02*
X108470000Y-63861548D01*
X108470000Y-63861548D02*
X108032823Y-63424371D01*
D23*
%TO.N,NeoPixel*%
X120050000Y-66500000D02*
X117571498Y-66500000D01*
%TO.N,Net-(J4-CC2)*%
X93970000Y-62200000D02*
X93970000Y-65400000D01*
X93970000Y-65400000D02*
X94020000Y-65450000D01*
%TO.N,Net-(J4-CC1)*%
X93870000Y-68200000D02*
X93920000Y-68150000D01*
X93870000Y-72100000D02*
X93870000Y-68200000D01*
%TO.N,QSPI_SS*%
X126320000Y-70490000D02*
X128975000Y-73145000D01*
X126320000Y-56860000D02*
X126320000Y-70490000D01*
X125409999Y-55949999D02*
X126320000Y-56860000D01*
X116101499Y-55949999D02*
X125409999Y-55949999D01*
D22*
%TO.N,GND*%
X91810000Y-71740000D02*
X92100000Y-71450000D01*
%TO.N,VBUS*%
X95520000Y-69550000D02*
X97220000Y-69550000D01*
X94820000Y-64050000D02*
X94820000Y-68850000D01*
X94820000Y-68850000D02*
X95520000Y-69550000D01*
D23*
%TO.N,SCL*%
X112767676Y-57117676D02*
X114740000Y-55145352D01*
X114740000Y-55145352D02*
X114740000Y-52850000D01*
%TO.N,SWDIO*%
X116415000Y-70645000D02*
X116415000Y-73120000D01*
X116330000Y-70560000D02*
X116415000Y-70645000D01*
D22*
%TO.N,Net-(D1-DOUT)*%
X157470000Y-63750000D02*
X156090000Y-63750000D01*
X148300000Y-55960000D02*
X148300000Y-54260000D01*
X156090000Y-63750000D02*
X148300000Y-55960000D01*
D23*
%TO.N,Encoder_Switch*%
X134099477Y-58720523D02*
X140490523Y-58720523D01*
X140490523Y-58720523D02*
X141920000Y-60150000D01*
X134081800Y-58738200D02*
X134099477Y-58720523D01*
D22*
%TO.N,RUN*%
X98220000Y-77645000D02*
X104720000Y-77645000D01*
D24*
%TO.N,Net-(SW5-B)*%
X128975000Y-77645000D02*
X122475000Y-77645000D01*
%TD*%
%TA.AperFunction,Conductor*%
%TO.N,GND*%
G36*
X114620000Y-63049719D02*
G01*
X114602998Y-63061455D01*
X114602991Y-63061460D01*
X114596727Y-63065785D01*
X114591681Y-63071480D01*
X114591675Y-63071486D01*
X114573150Y-63092396D01*
X114562396Y-63103150D01*
X114541486Y-63121675D01*
X114541480Y-63121681D01*
X114535785Y-63126727D01*
X114531460Y-63132991D01*
X114531455Y-63132998D01*
X114515585Y-63155989D01*
X114506210Y-63167955D01*
X114482633Y-63194570D01*
X114479091Y-63201316D01*
X114479089Y-63201321D01*
X114466111Y-63226048D01*
X114458243Y-63239064D01*
X114442376Y-63262051D01*
X114442374Y-63262054D01*
X114438046Y-63268325D01*
X114435344Y-63275449D01*
X114435342Y-63275453D01*
X114425440Y-63301563D01*
X114419198Y-63315432D01*
X114406217Y-63340166D01*
X114406214Y-63340172D01*
X114402675Y-63346917D01*
X114400852Y-63354311D01*
X114400851Y-63354315D01*
X114394166Y-63381436D01*
X114389642Y-63395952D01*
X114377035Y-63429199D01*
X114376116Y-63436760D01*
X114376116Y-63436764D01*
X114372750Y-63464488D01*
X114370008Y-63479451D01*
X114363323Y-63506573D01*
X114363322Y-63506577D01*
X114361500Y-63513972D01*
X114361500Y-63521590D01*
X114361500Y-63549522D01*
X114360581Y-63564709D01*
X114356296Y-63600000D01*
X114357215Y-63607569D01*
X114360581Y-63635290D01*
X114361500Y-63650478D01*
X114361500Y-63686028D01*
X114363321Y-63693419D01*
X114363322Y-63693421D01*
X114370008Y-63720545D01*
X114372750Y-63735511D01*
X114376116Y-63763237D01*
X114376117Y-63763241D01*
X114377035Y-63770801D01*
X114379736Y-63777923D01*
X114389642Y-63804046D01*
X114394166Y-63818564D01*
X114402675Y-63853083D01*
X114419194Y-63884558D01*
X114425436Y-63898428D01*
X114435342Y-63924546D01*
X114438046Y-63931675D01*
X114442373Y-63937944D01*
X114442376Y-63937949D01*
X114458241Y-63960932D01*
X114466113Y-63973954D01*
X114479088Y-63998677D01*
X114479091Y-63998681D01*
X114482633Y-64005430D01*
X114487687Y-64011135D01*
X114487688Y-64011136D01*
X114506208Y-64032041D01*
X114515590Y-64044016D01*
X114535785Y-64073273D01*
X114541491Y-64078328D01*
X114541492Y-64078329D01*
X114562393Y-64096845D01*
X114573153Y-64107605D01*
X114596727Y-64134215D01*
X114620000Y-64150279D01*
X114620000Y-64650000D01*
X111320000Y-64650000D01*
X111320000Y-63350279D01*
X111343273Y-63334215D01*
X111383627Y-63288663D01*
X111388812Y-63283156D01*
X111433155Y-63238813D01*
X111438662Y-63233628D01*
X111484214Y-63193274D01*
X111518788Y-63143184D01*
X111523254Y-63137114D01*
X111560774Y-63089226D01*
X111564955Y-63079935D01*
X111576162Y-63060064D01*
X111581953Y-63051676D01*
X111603516Y-62994814D01*
X111606430Y-62987782D01*
X111628258Y-62939285D01*
X111628258Y-62939282D01*
X111631388Y-62932330D01*
X111633225Y-62922300D01*
X111639350Y-62900331D01*
X111642964Y-62890802D01*
X111650298Y-62830397D01*
X111651433Y-62822941D01*
X111662401Y-62763093D01*
X111661785Y-62752912D01*
X111662475Y-62730112D01*
X111662784Y-62727568D01*
X111663703Y-62720001D01*
X111656373Y-62659638D01*
X111655684Y-62652055D01*
X111652473Y-62598959D01*
X111652013Y-62591352D01*
X111648980Y-62581622D01*
X111644191Y-62559312D01*
X111642964Y-62549200D01*
X111621403Y-62492348D01*
X111618920Y-62485153D01*
X111617060Y-62479184D01*
X111600826Y-62427087D01*
X111595550Y-62418360D01*
X111585568Y-62397857D01*
X111584657Y-62395455D01*
X111584655Y-62395453D01*
X111581953Y-62388326D01*
X111577623Y-62382053D01*
X111577620Y-62382047D01*
X111547400Y-62338267D01*
X111543267Y-62331875D01*
X111515758Y-62286370D01*
X111511815Y-62279847D01*
X111504608Y-62272639D01*
X111490009Y-62255124D01*
X111484214Y-62246728D01*
X111438681Y-62206389D01*
X111433140Y-62201172D01*
X111395545Y-62163577D01*
X111395545Y-62163576D01*
X111390153Y-62158185D01*
X111381429Y-62152911D01*
X111363057Y-62139392D01*
X111361136Y-62137690D01*
X111361135Y-62137689D01*
X111355429Y-62132634D01*
X111320000Y-62114039D01*
X111320000Y-61350000D01*
X114620000Y-61350000D01*
X114620000Y-63049719D01*
G37*
%TD.AperFunction*%
%TD*%
%TA.AperFunction,Conductor*%
%TO.N,GND*%
G36*
X165081500Y-49692381D02*
G01*
X165127619Y-49738500D01*
X165144500Y-49801500D01*
X165144500Y-84498500D01*
X165127619Y-84561500D01*
X165081500Y-84607619D01*
X165018500Y-84624500D01*
X85321500Y-84624500D01*
X85258500Y-84607619D01*
X85212381Y-84561500D01*
X85195500Y-84498500D01*
X85195500Y-80781182D01*
X87419500Y-80781182D01*
X87420201Y-80785836D01*
X87420202Y-80785842D01*
X87457901Y-81035955D01*
X87457902Y-81035962D01*
X87458604Y-81040615D01*
X87459994Y-81045121D01*
X87534546Y-81286816D01*
X87534549Y-81286825D01*
X87535937Y-81291323D01*
X87649772Y-81527704D01*
X87652426Y-81531597D01*
X87652428Y-81531600D01*
X87794908Y-81740580D01*
X87794912Y-81740586D01*
X87797567Y-81744479D01*
X87800767Y-81747928D01*
X87800772Y-81747934D01*
X87948756Y-81907422D01*
X87976019Y-81936805D01*
X88181143Y-82100386D01*
X88408357Y-82231568D01*
X88652584Y-82327420D01*
X88908370Y-82385802D01*
X89104506Y-82400500D01*
X89233141Y-82400500D01*
X89235494Y-82400500D01*
X89431630Y-82385802D01*
X89687416Y-82327420D01*
X89931643Y-82231568D01*
X90158857Y-82100386D01*
X90363981Y-81936805D01*
X90542433Y-81744479D01*
X90690228Y-81527704D01*
X90804063Y-81291323D01*
X90881396Y-81040615D01*
X90920500Y-80781182D01*
X159419500Y-80781182D01*
X159420201Y-80785836D01*
X159420202Y-80785842D01*
X159457901Y-81035955D01*
X159457902Y-81035962D01*
X159458604Y-81040615D01*
X159459994Y-81045121D01*
X159534546Y-81286816D01*
X159534549Y-81286825D01*
X159535937Y-81291323D01*
X159649772Y-81527704D01*
X159652426Y-81531597D01*
X159652428Y-81531600D01*
X159794908Y-81740580D01*
X159794912Y-81740586D01*
X159797567Y-81744479D01*
X159800767Y-81747928D01*
X159800772Y-81747934D01*
X159948756Y-81907422D01*
X159976019Y-81936805D01*
X160181143Y-82100386D01*
X160408357Y-82231568D01*
X160652584Y-82327420D01*
X160908370Y-82385802D01*
X161104506Y-82400500D01*
X161233141Y-82400500D01*
X161235494Y-82400500D01*
X161431630Y-82385802D01*
X161687416Y-82327420D01*
X161931643Y-82231568D01*
X162158857Y-82100386D01*
X162363981Y-81936805D01*
X162542433Y-81744479D01*
X162690228Y-81527704D01*
X162804063Y-81291323D01*
X162881396Y-81040615D01*
X162920500Y-80781182D01*
X162920500Y-80518818D01*
X162881396Y-80259385D01*
X162804063Y-80008677D01*
X162690228Y-79772296D01*
X162542433Y-79555521D01*
X162539231Y-79552070D01*
X162539227Y-79552065D01*
X162367181Y-79366644D01*
X162363981Y-79363195D01*
X162158857Y-79199614D01*
X162154780Y-79197260D01*
X162154777Y-79197258D01*
X161935730Y-79070791D01*
X161935723Y-79070787D01*
X161931643Y-79068432D01*
X161687416Y-78972580D01*
X161682816Y-78971530D01*
X161436231Y-78915248D01*
X161436228Y-78915247D01*
X161431630Y-78914198D01*
X161426928Y-78913845D01*
X161426924Y-78913845D01*
X161237836Y-78899675D01*
X161237822Y-78899674D01*
X161235494Y-78899500D01*
X161104506Y-78899500D01*
X161102178Y-78899674D01*
X161102163Y-78899675D01*
X160913075Y-78913845D01*
X160913069Y-78913845D01*
X160908370Y-78914198D01*
X160903772Y-78915247D01*
X160903768Y-78915248D01*
X160657183Y-78971530D01*
X160657179Y-78971531D01*
X160652584Y-78972580D01*
X160648196Y-78974302D01*
X160648190Y-78974304D01*
X160412749Y-79066708D01*
X160412745Y-79066709D01*
X160408357Y-79068432D01*
X160404281Y-79070784D01*
X160404269Y-79070791D01*
X160185222Y-79197258D01*
X160185212Y-79197264D01*
X160181143Y-79199614D01*
X160177466Y-79202546D01*
X160177462Y-79202549D01*
X159979698Y-79360260D01*
X159979689Y-79360267D01*
X159976019Y-79363195D01*
X159972823Y-79366638D01*
X159972818Y-79366644D01*
X159800772Y-79552065D01*
X159800761Y-79552077D01*
X159797567Y-79555521D01*
X159794917Y-79559407D01*
X159794908Y-79559419D01*
X159652428Y-79768399D01*
X159652422Y-79768407D01*
X159649772Y-79772296D01*
X159647727Y-79776541D01*
X159647726Y-79776544D01*
X159537983Y-80004427D01*
X159537979Y-80004434D01*
X159535937Y-80008677D01*
X159534551Y-80013170D01*
X159534546Y-80013183D01*
X159459994Y-80254878D01*
X159458604Y-80259385D01*
X159457903Y-80264034D01*
X159457901Y-80264044D01*
X159420202Y-80514157D01*
X159420201Y-80514164D01*
X159419500Y-80518818D01*
X159419500Y-80781182D01*
X90920500Y-80781182D01*
X90920500Y-80518818D01*
X90881396Y-80259385D01*
X90804063Y-80008677D01*
X90690228Y-79772296D01*
X90542433Y-79555521D01*
X90539231Y-79552070D01*
X90539227Y-79552065D01*
X90367181Y-79366644D01*
X90363981Y-79363195D01*
X90158857Y-79199614D01*
X90154780Y-79197260D01*
X90154777Y-79197258D01*
X89935730Y-79070791D01*
X89935723Y-79070787D01*
X89931643Y-79068432D01*
X89687416Y-78972580D01*
X89682816Y-78971530D01*
X89436231Y-78915248D01*
X89436228Y-78915247D01*
X89431630Y-78914198D01*
X89426928Y-78913845D01*
X89426924Y-78913845D01*
X89237836Y-78899675D01*
X89237822Y-78899674D01*
X89235494Y-78899500D01*
X89104506Y-78899500D01*
X89102178Y-78899674D01*
X89102163Y-78899675D01*
X88913075Y-78913845D01*
X88913069Y-78913845D01*
X88908370Y-78914198D01*
X88903772Y-78915247D01*
X88903768Y-78915248D01*
X88657183Y-78971530D01*
X88657179Y-78971531D01*
X88652584Y-78972580D01*
X88648196Y-78974302D01*
X88648190Y-78974304D01*
X88412749Y-79066708D01*
X88412745Y-79066709D01*
X88408357Y-79068432D01*
X88404281Y-79070784D01*
X88404269Y-79070791D01*
X88185222Y-79197258D01*
X88185212Y-79197264D01*
X88181143Y-79199614D01*
X88177466Y-79202546D01*
X88177462Y-79202549D01*
X87979698Y-79360260D01*
X87979689Y-79360267D01*
X87976019Y-79363195D01*
X87972823Y-79366638D01*
X87972818Y-79366644D01*
X87800772Y-79552065D01*
X87800761Y-79552077D01*
X87797567Y-79555521D01*
X87794917Y-79559407D01*
X87794908Y-79559419D01*
X87652428Y-79768399D01*
X87652422Y-79768407D01*
X87649772Y-79772296D01*
X87647727Y-79776541D01*
X87647726Y-79776544D01*
X87537983Y-80004427D01*
X87537979Y-80004434D01*
X87535937Y-80008677D01*
X87534551Y-80013170D01*
X87534546Y-80013183D01*
X87459994Y-80254878D01*
X87458604Y-80259385D01*
X87457903Y-80264034D01*
X87457901Y-80264044D01*
X87420202Y-80514157D01*
X87420201Y-80514164D01*
X87419500Y-80518818D01*
X87419500Y-80781182D01*
X85195500Y-80781182D01*
X85195500Y-77645000D01*
X96706835Y-77645000D01*
X96707223Y-77649930D01*
X96725076Y-77876777D01*
X96725077Y-77876785D01*
X96725465Y-77881711D01*
X96726619Y-77886519D01*
X96726620Y-77886523D01*
X96779739Y-78107781D01*
X96779740Y-78107786D01*
X96780895Y-78112594D01*
X96871760Y-78331963D01*
X96987152Y-78520265D01*
X96993235Y-78530192D01*
X96995824Y-78534416D01*
X96999031Y-78538171D01*
X96999034Y-78538175D01*
X97146821Y-78711211D01*
X97150031Y-78714969D01*
X97330584Y-78869176D01*
X97533037Y-78993240D01*
X97752406Y-79084105D01*
X97983289Y-79139535D01*
X98220000Y-79158165D01*
X98456711Y-79139535D01*
X98687594Y-79084105D01*
X98906963Y-78993240D01*
X99109416Y-78869176D01*
X99289969Y-78714969D01*
X99444176Y-78534416D01*
X99465718Y-78499261D01*
X99518174Y-78413665D01*
X99564040Y-78369565D01*
X99625606Y-78353500D01*
X103314394Y-78353500D01*
X103375960Y-78369565D01*
X103421826Y-78413665D01*
X103493235Y-78530192D01*
X103493238Y-78530196D01*
X103495824Y-78534416D01*
X103499031Y-78538171D01*
X103499034Y-78538175D01*
X103646821Y-78711211D01*
X103650031Y-78714969D01*
X103830584Y-78869176D01*
X104033037Y-78993240D01*
X104252406Y-79084105D01*
X104483289Y-79139535D01*
X104720000Y-79158165D01*
X104956711Y-79139535D01*
X105187594Y-79084105D01*
X105406963Y-78993240D01*
X105609416Y-78869176D01*
X105789969Y-78714969D01*
X105944176Y-78534416D01*
X106068240Y-78331963D01*
X106159105Y-78112594D01*
X106214535Y-77881711D01*
X106233165Y-77645000D01*
X120961835Y-77645000D01*
X120962223Y-77649930D01*
X120980076Y-77876777D01*
X120980077Y-77876785D01*
X120980465Y-77881711D01*
X120981619Y-77886519D01*
X120981620Y-77886523D01*
X121034739Y-78107781D01*
X121034740Y-78107786D01*
X121035895Y-78112594D01*
X121126760Y-78331963D01*
X121242152Y-78520265D01*
X121248235Y-78530192D01*
X121250824Y-78534416D01*
X121254031Y-78538171D01*
X121254034Y-78538175D01*
X121401821Y-78711211D01*
X121405031Y-78714969D01*
X121585584Y-78869176D01*
X121788037Y-78993240D01*
X122007406Y-79084105D01*
X122238289Y-79139535D01*
X122475000Y-79158165D01*
X122711711Y-79139535D01*
X122942594Y-79084105D01*
X123161963Y-78993240D01*
X123364416Y-78869176D01*
X123544969Y-78714969D01*
X123559744Y-78697668D01*
X123602806Y-78665074D01*
X123655556Y-78653500D01*
X127794444Y-78653500D01*
X127847194Y-78665074D01*
X127890255Y-78697668D01*
X127905031Y-78714969D01*
X128085584Y-78869176D01*
X128288037Y-78993240D01*
X128507406Y-79084105D01*
X128738289Y-79139535D01*
X128975000Y-79158165D01*
X129211711Y-79139535D01*
X129442594Y-79084105D01*
X129661963Y-78993240D01*
X129864416Y-78869176D01*
X130044969Y-78714969D01*
X130199176Y-78534416D01*
X130323240Y-78331963D01*
X130414105Y-78112594D01*
X130469535Y-77881711D01*
X130488165Y-77645000D01*
X130469535Y-77408289D01*
X130414105Y-77177406D01*
X130323240Y-76958037D01*
X130199176Y-76755584D01*
X130044969Y-76575031D01*
X130041213Y-76571823D01*
X129868175Y-76424034D01*
X129868171Y-76424031D01*
X129864416Y-76420824D01*
X129661963Y-76296760D01*
X129442594Y-76205895D01*
X129437786Y-76204740D01*
X129437781Y-76204739D01*
X129216523Y-76151620D01*
X129216519Y-76151619D01*
X129211711Y-76150465D01*
X129206785Y-76150077D01*
X129206777Y-76150076D01*
X128979930Y-76132223D01*
X128975000Y-76131835D01*
X128970070Y-76132223D01*
X128743222Y-76150076D01*
X128743212Y-76150077D01*
X128738289Y-76150465D01*
X128733482Y-76151619D01*
X128733476Y-76151620D01*
X128512218Y-76204739D01*
X128512209Y-76204741D01*
X128507406Y-76205895D01*
X128502838Y-76207786D01*
X128502832Y-76207789D01*
X128292611Y-76294865D01*
X128292606Y-76294867D01*
X128288037Y-76296760D01*
X128283817Y-76299345D01*
X128283817Y-76299346D01*
X128089798Y-76418241D01*
X128089792Y-76418245D01*
X128085584Y-76420824D01*
X128081834Y-76424026D01*
X128081824Y-76424034D01*
X127908786Y-76571823D01*
X127908779Y-76571829D01*
X127905031Y-76575031D01*
X127901829Y-76578779D01*
X127901821Y-76578788D01*
X127890254Y-76592332D01*
X127847194Y-76624926D01*
X127794444Y-76636500D01*
X123655556Y-76636500D01*
X123602806Y-76624926D01*
X123559746Y-76592332D01*
X123548178Y-76578788D01*
X123548176Y-76578786D01*
X123544969Y-76575031D01*
X123541213Y-76571823D01*
X123368175Y-76424034D01*
X123368171Y-76424031D01*
X123364416Y-76420824D01*
X123161963Y-76296760D01*
X122942594Y-76205895D01*
X122937786Y-76204740D01*
X122937781Y-76204739D01*
X122716523Y-76151620D01*
X122716519Y-76151619D01*
X122711711Y-76150465D01*
X122706785Y-76150077D01*
X122706777Y-76150076D01*
X122479930Y-76132223D01*
X122475000Y-76131835D01*
X122470070Y-76132223D01*
X122243222Y-76150076D01*
X122243212Y-76150077D01*
X122238289Y-76150465D01*
X122233482Y-76151619D01*
X122233476Y-76151620D01*
X122012218Y-76204739D01*
X122012209Y-76204741D01*
X122007406Y-76205895D01*
X122002838Y-76207786D01*
X122002832Y-76207789D01*
X121792611Y-76294865D01*
X121792606Y-76294867D01*
X121788037Y-76296760D01*
X121783817Y-76299345D01*
X121783817Y-76299346D01*
X121589798Y-76418241D01*
X121589792Y-76418245D01*
X121585584Y-76420824D01*
X121581834Y-76424026D01*
X121581824Y-76424034D01*
X121408786Y-76571823D01*
X121408779Y-76571829D01*
X121405031Y-76575031D01*
X121401829Y-76578779D01*
X121401823Y-76578786D01*
X121254034Y-76751824D01*
X121254026Y-76751834D01*
X121250824Y-76755584D01*
X121248245Y-76759792D01*
X121248241Y-76759798D01*
X121176827Y-76876335D01*
X121126760Y-76958037D01*
X121124867Y-76962606D01*
X121124865Y-76962611D01*
X121037789Y-77172832D01*
X121037786Y-77172838D01*
X121035895Y-77177406D01*
X121034741Y-77182209D01*
X121034739Y-77182218D01*
X120981620Y-77403476D01*
X120980465Y-77408289D01*
X120980077Y-77413212D01*
X120980076Y-77413222D01*
X120962223Y-77640070D01*
X120961835Y-77645000D01*
X106233165Y-77645000D01*
X106214535Y-77408289D01*
X106159105Y-77177406D01*
X106068240Y-76958037D01*
X105944176Y-76755584D01*
X105789969Y-76575031D01*
X105786213Y-76571823D01*
X105613175Y-76424034D01*
X105613171Y-76424031D01*
X105609416Y-76420824D01*
X105406963Y-76296760D01*
X105187594Y-76205895D01*
X105182786Y-76204740D01*
X105182781Y-76204739D01*
X104961523Y-76151620D01*
X104961519Y-76151619D01*
X104956711Y-76150465D01*
X104951785Y-76150077D01*
X104951777Y-76150076D01*
X104724930Y-76132223D01*
X104720000Y-76131835D01*
X104715070Y-76132223D01*
X104488222Y-76150076D01*
X104488212Y-76150077D01*
X104483289Y-76150465D01*
X104478482Y-76151619D01*
X104478476Y-76151620D01*
X104257218Y-76204739D01*
X104257209Y-76204741D01*
X104252406Y-76205895D01*
X104247838Y-76207786D01*
X104247832Y-76207789D01*
X104037611Y-76294865D01*
X104037606Y-76294867D01*
X104033037Y-76296760D01*
X104028817Y-76299345D01*
X104028817Y-76299346D01*
X103834798Y-76418241D01*
X103834792Y-76418245D01*
X103830584Y-76420824D01*
X103826834Y-76424026D01*
X103826824Y-76424034D01*
X103653786Y-76571823D01*
X103653779Y-76571829D01*
X103650031Y-76575031D01*
X103646829Y-76578779D01*
X103646823Y-76578786D01*
X103499034Y-76751824D01*
X103499026Y-76751834D01*
X103495824Y-76755584D01*
X103493242Y-76759797D01*
X103493235Y-76759807D01*
X103421826Y-76876335D01*
X103375960Y-76920435D01*
X103314394Y-76936500D01*
X99625606Y-76936500D01*
X99564040Y-76920435D01*
X99518174Y-76876335D01*
X99446764Y-76759807D01*
X99446763Y-76759805D01*
X99444176Y-76755584D01*
X99289969Y-76575031D01*
X99286213Y-76571823D01*
X99113175Y-76424034D01*
X99113171Y-76424031D01*
X99109416Y-76420824D01*
X98906963Y-76296760D01*
X98687594Y-76205895D01*
X98682786Y-76204740D01*
X98682781Y-76204739D01*
X98461523Y-76151620D01*
X98461519Y-76151619D01*
X98456711Y-76150465D01*
X98451785Y-76150077D01*
X98451777Y-76150076D01*
X98224930Y-76132223D01*
X98220000Y-76131835D01*
X98215070Y-76132223D01*
X97988222Y-76150076D01*
X97988212Y-76150077D01*
X97983289Y-76150465D01*
X97978482Y-76151619D01*
X97978476Y-76151620D01*
X97757218Y-76204739D01*
X97757209Y-76204741D01*
X97752406Y-76205895D01*
X97747838Y-76207786D01*
X97747832Y-76207789D01*
X97537611Y-76294865D01*
X97537606Y-76294867D01*
X97533037Y-76296760D01*
X97528817Y-76299345D01*
X97528817Y-76299346D01*
X97334798Y-76418241D01*
X97334792Y-76418245D01*
X97330584Y-76420824D01*
X97326834Y-76424026D01*
X97326824Y-76424034D01*
X97153786Y-76571823D01*
X97153779Y-76571829D01*
X97150031Y-76575031D01*
X97146829Y-76578779D01*
X97146823Y-76578786D01*
X96999034Y-76751824D01*
X96999026Y-76751834D01*
X96995824Y-76755584D01*
X96993245Y-76759792D01*
X96993241Y-76759798D01*
X96921827Y-76876335D01*
X96871760Y-76958037D01*
X96869867Y-76962606D01*
X96869865Y-76962611D01*
X96782789Y-77172832D01*
X96782786Y-77172838D01*
X96780895Y-77177406D01*
X96779741Y-77182209D01*
X96779739Y-77182218D01*
X96726620Y-77403476D01*
X96725465Y-77408289D01*
X96725077Y-77413212D01*
X96725076Y-77413222D01*
X96707223Y-77640070D01*
X96706835Y-77645000D01*
X85195500Y-77645000D01*
X85195500Y-74018638D01*
X107436500Y-74018638D01*
X107436859Y-74021985D01*
X107436860Y-74021988D01*
X107442168Y-74071367D01*
X107442169Y-74071373D01*
X107443011Y-74079201D01*
X107445762Y-74086578D01*
X107445763Y-74086580D01*
X107490962Y-74207763D01*
X107490964Y-74207766D01*
X107494111Y-74216204D01*
X107499508Y-74223414D01*
X107499510Y-74223417D01*
X107525389Y-74257987D01*
X107581739Y-74333261D01*
X107588950Y-74338659D01*
X107688643Y-74413289D01*
X107698796Y-74420889D01*
X107835799Y-74471989D01*
X107896362Y-74478500D01*
X109690269Y-74478500D01*
X109693638Y-74478500D01*
X109754201Y-74471989D01*
X109891204Y-74420889D01*
X110008261Y-74333261D01*
X110095889Y-74216204D01*
X110139998Y-74097943D01*
X110176530Y-74045904D01*
X110233820Y-74018328D01*
X110297282Y-74022238D01*
X110350755Y-74056638D01*
X110371526Y-74079201D01*
X110411760Y-74122906D01*
X110589424Y-74261189D01*
X110787426Y-74368342D01*
X110792355Y-74370034D01*
X110792357Y-74370035D01*
X110797376Y-74371758D01*
X111000365Y-74441444D01*
X111222431Y-74478500D01*
X111442358Y-74478500D01*
X111447569Y-74478500D01*
X111669635Y-74441444D01*
X111882574Y-74368342D01*
X112080576Y-74261189D01*
X112258240Y-74122906D01*
X112410722Y-73957268D01*
X112533860Y-73768791D01*
X112624296Y-73562616D01*
X112679564Y-73344368D01*
X112698156Y-73120000D01*
X112679564Y-72895632D01*
X112624296Y-72677384D01*
X112533860Y-72471209D01*
X112410722Y-72282732D01*
X112291680Y-72153419D01*
X112261772Y-72120930D01*
X112261767Y-72120925D01*
X112258240Y-72117094D01*
X112080576Y-71978811D01*
X112075997Y-71976333D01*
X112075994Y-71976331D01*
X111887159Y-71874139D01*
X111887156Y-71874137D01*
X111882574Y-71871658D01*
X111877650Y-71869967D01*
X111877642Y-71869964D01*
X111674565Y-71800248D01*
X111674559Y-71800246D01*
X111669635Y-71798556D01*
X111664498Y-71797698D01*
X111664495Y-71797698D01*
X111452706Y-71762357D01*
X111452703Y-71762356D01*
X111447569Y-71761500D01*
X111222431Y-71761500D01*
X111217297Y-71762356D01*
X111217293Y-71762357D01*
X111005504Y-71797698D01*
X111005498Y-71797699D01*
X111000365Y-71798556D01*
X110995443Y-71800245D01*
X110995434Y-71800248D01*
X110792357Y-71869964D01*
X110792344Y-71869969D01*
X110787426Y-71871658D01*
X110782847Y-71874135D01*
X110782840Y-71874139D01*
X110594005Y-71976331D01*
X110593997Y-71976336D01*
X110589424Y-71978811D01*
X110585313Y-71982010D01*
X110585311Y-71982012D01*
X110415878Y-72113888D01*
X110415872Y-72113893D01*
X110411760Y-72117094D01*
X110408237Y-72120920D01*
X110408226Y-72120931D01*
X110350754Y-72183362D01*
X110297281Y-72217761D01*
X110233820Y-72221671D01*
X110176530Y-72194095D01*
X110139998Y-72142056D01*
X110099037Y-72032236D01*
X110099036Y-72032235D01*
X110095889Y-72023796D01*
X110008261Y-71906739D01*
X109964713Y-71874139D01*
X109898417Y-71824510D01*
X109898414Y-71824508D01*
X109891204Y-71819111D01*
X109882766Y-71815964D01*
X109882763Y-71815962D01*
X109761580Y-71770763D01*
X109761578Y-71770762D01*
X109754201Y-71768011D01*
X109746373Y-71767169D01*
X109746367Y-71767168D01*
X109696988Y-71761860D01*
X109696985Y-71761859D01*
X109693638Y-71761500D01*
X109690269Y-71761500D01*
X109529500Y-71761500D01*
X109466500Y-71744619D01*
X109420381Y-71698500D01*
X109403500Y-71635500D01*
X109403500Y-71396048D01*
X109413091Y-71347830D01*
X109440405Y-71306953D01*
X110551953Y-70195405D01*
X110592830Y-70168091D01*
X110641048Y-70158500D01*
X115541985Y-70158500D01*
X115600540Y-70172932D01*
X115645681Y-70212924D01*
X115667066Y-70269312D01*
X115659797Y-70329180D01*
X115639738Y-70382070D01*
X115639736Y-70382074D01*
X115637035Y-70389199D01*
X115636117Y-70396758D01*
X115636115Y-70396767D01*
X115617215Y-70552431D01*
X115616296Y-70560000D01*
X115617215Y-70567569D01*
X115636115Y-70723232D01*
X115636116Y-70723239D01*
X115637035Y-70730801D01*
X115639737Y-70737926D01*
X115639738Y-70737929D01*
X115655081Y-70778384D01*
X115698046Y-70891675D01*
X115702375Y-70897947D01*
X115702378Y-70897952D01*
X115784196Y-71016485D01*
X115800795Y-71050575D01*
X115806500Y-71088061D01*
X115806500Y-71829549D01*
X115788741Y-71894046D01*
X115740470Y-71940362D01*
X115674009Y-71976328D01*
X115673993Y-71976337D01*
X115669424Y-71978811D01*
X115665313Y-71982010D01*
X115665311Y-71982012D01*
X115495878Y-72113888D01*
X115495872Y-72113893D01*
X115491760Y-72117094D01*
X115488237Y-72120919D01*
X115488227Y-72120930D01*
X115342806Y-72278899D01*
X115342802Y-72278902D01*
X115339278Y-72282732D01*
X115336430Y-72287090D01*
X115336427Y-72287095D01*
X115223109Y-72460542D01*
X115216140Y-72471209D01*
X115214048Y-72475978D01*
X115214046Y-72475982D01*
X115127799Y-72672606D01*
X115127796Y-72672614D01*
X115125704Y-72677384D01*
X115124423Y-72682440D01*
X115124422Y-72682445D01*
X115092501Y-72808500D01*
X115070436Y-72895632D01*
X115070006Y-72900820D01*
X115070005Y-72900827D01*
X115057284Y-73054346D01*
X115051844Y-73120000D01*
X115052274Y-73125189D01*
X115067119Y-73304346D01*
X115070436Y-73344368D01*
X115091876Y-73429034D01*
X115111575Y-73506824D01*
X115125704Y-73562616D01*
X115127797Y-73567389D01*
X115127799Y-73567393D01*
X115145515Y-73607781D01*
X115216140Y-73768791D01*
X115339278Y-73957268D01*
X115389727Y-74012069D01*
X115488227Y-74119069D01*
X115488231Y-74119073D01*
X115491760Y-74122906D01*
X115669424Y-74261189D01*
X115867426Y-74368342D01*
X115872355Y-74370034D01*
X115872357Y-74370035D01*
X115877376Y-74371758D01*
X116080365Y-74441444D01*
X116302431Y-74478500D01*
X116522358Y-74478500D01*
X116527569Y-74478500D01*
X116749635Y-74441444D01*
X116962574Y-74368342D01*
X117160576Y-74261189D01*
X117338240Y-74122906D01*
X117490722Y-73957268D01*
X117579518Y-73821354D01*
X117625030Y-73779457D01*
X117685000Y-73764271D01*
X117744970Y-73779457D01*
X117790481Y-73821354D01*
X117879278Y-73957268D01*
X117929727Y-74012069D01*
X118028227Y-74119069D01*
X118028231Y-74119073D01*
X118031760Y-74122906D01*
X118209424Y-74261189D01*
X118407426Y-74368342D01*
X118412355Y-74370034D01*
X118412357Y-74370035D01*
X118417376Y-74371758D01*
X118620365Y-74441444D01*
X118842431Y-74478500D01*
X119062358Y-74478500D01*
X119067569Y-74478500D01*
X119289635Y-74441444D01*
X119502574Y-74368342D01*
X119700576Y-74261189D01*
X119878240Y-74122906D01*
X120030722Y-73957268D01*
X120153860Y-73768791D01*
X120244296Y-73562616D01*
X120299564Y-73344368D01*
X120316084Y-73145000D01*
X120961835Y-73145000D01*
X120962223Y-73149930D01*
X120980076Y-73376777D01*
X120980077Y-73376785D01*
X120980465Y-73381711D01*
X120981619Y-73386519D01*
X120981620Y-73386523D01*
X121034739Y-73607781D01*
X121034740Y-73607786D01*
X121035895Y-73612594D01*
X121037788Y-73617164D01*
X121037789Y-73617167D01*
X121105011Y-73779457D01*
X121126760Y-73831963D01*
X121250824Y-74034416D01*
X121254031Y-74038171D01*
X121254034Y-74038175D01*
X121381329Y-74187218D01*
X121405031Y-74214969D01*
X121585584Y-74369176D01*
X121788037Y-74493240D01*
X122007406Y-74584105D01*
X122238289Y-74639535D01*
X122475000Y-74658165D01*
X122711711Y-74639535D01*
X122942594Y-74584105D01*
X123161963Y-74493240D01*
X123364416Y-74369176D01*
X123544969Y-74214969D01*
X123699176Y-74034416D01*
X123823240Y-73831963D01*
X123914105Y-73612594D01*
X123969535Y-73381711D01*
X123988165Y-73145000D01*
X123969535Y-72908289D01*
X123914105Y-72677406D01*
X123823240Y-72458037D01*
X123699176Y-72255584D01*
X123646659Y-72194095D01*
X123548176Y-72078786D01*
X123544969Y-72075031D01*
X123432310Y-71978811D01*
X123368175Y-71924034D01*
X123368171Y-71924031D01*
X123364416Y-71920824D01*
X123161963Y-71796760D01*
X123078906Y-71762357D01*
X122947167Y-71707789D01*
X122947164Y-71707788D01*
X122942594Y-71705895D01*
X122937786Y-71704740D01*
X122937781Y-71704739D01*
X122716523Y-71651620D01*
X122716519Y-71651619D01*
X122711711Y-71650465D01*
X122706785Y-71650077D01*
X122706777Y-71650076D01*
X122479930Y-71632223D01*
X122475000Y-71631835D01*
X122470070Y-71632223D01*
X122243222Y-71650076D01*
X122243212Y-71650077D01*
X122238289Y-71650465D01*
X122233482Y-71651619D01*
X122233476Y-71651620D01*
X122012218Y-71704739D01*
X122012209Y-71704741D01*
X122007406Y-71705895D01*
X122002838Y-71707786D01*
X122002832Y-71707789D01*
X121792611Y-71794865D01*
X121792606Y-71794867D01*
X121788037Y-71796760D01*
X121783817Y-71799345D01*
X121783817Y-71799346D01*
X121589798Y-71918241D01*
X121589792Y-71918245D01*
X121585584Y-71920824D01*
X121581834Y-71924026D01*
X121581824Y-71924034D01*
X121408786Y-72071823D01*
X121408779Y-72071829D01*
X121405031Y-72075031D01*
X121401829Y-72078779D01*
X121401823Y-72078786D01*
X121254034Y-72251824D01*
X121254026Y-72251834D01*
X121250824Y-72255584D01*
X121248245Y-72259792D01*
X121248241Y-72259798D01*
X121150901Y-72418643D01*
X121126760Y-72458037D01*
X121124867Y-72462606D01*
X121124865Y-72462611D01*
X121037789Y-72672832D01*
X121037786Y-72672838D01*
X121035895Y-72677406D01*
X121034741Y-72682209D01*
X121034739Y-72682218D01*
X120982256Y-72900827D01*
X120980465Y-72908289D01*
X120980077Y-72913212D01*
X120980076Y-72913222D01*
X120969322Y-73049865D01*
X120961835Y-73145000D01*
X120316084Y-73145000D01*
X120318156Y-73120000D01*
X120299564Y-72895632D01*
X120244296Y-72677384D01*
X120153860Y-72471209D01*
X120030722Y-72282732D01*
X119911680Y-72153419D01*
X119881772Y-72120930D01*
X119881767Y-72120925D01*
X119878240Y-72117094D01*
X119712108Y-71987786D01*
X119676303Y-71943696D01*
X119663500Y-71888357D01*
X119663500Y-69210205D01*
X119663730Y-69202598D01*
X119667401Y-69141907D01*
X119656435Y-69082068D01*
X119655297Y-69074588D01*
X119647965Y-69014199D01*
X119644347Y-69004660D01*
X119638225Y-68982696D01*
X119636388Y-68972671D01*
X119611419Y-68917194D01*
X119608520Y-68910192D01*
X119589658Y-68860453D01*
X119589655Y-68860447D01*
X119586954Y-68853325D01*
X119581164Y-68844937D01*
X119569955Y-68825064D01*
X119565775Y-68815774D01*
X119528267Y-68767899D01*
X119523756Y-68761768D01*
X119493545Y-68718000D01*
X119493544Y-68717999D01*
X119489215Y-68711727D01*
X119443682Y-68671388D01*
X119438141Y-68666171D01*
X119088827Y-68316857D01*
X119083610Y-68311316D01*
X119043273Y-68265785D01*
X119037006Y-68261459D01*
X119036998Y-68261452D01*
X118993221Y-68231235D01*
X118987091Y-68226725D01*
X118945223Y-68193923D01*
X118945220Y-68193921D01*
X118939226Y-68189225D01*
X118932281Y-68186099D01*
X118932276Y-68186096D01*
X118929922Y-68185037D01*
X118910065Y-68173837D01*
X118907951Y-68172378D01*
X118901675Y-68168046D01*
X118894550Y-68165344D01*
X118894541Y-68165339D01*
X118844822Y-68146483D01*
X118837793Y-68143572D01*
X118789275Y-68121736D01*
X118789266Y-68121733D01*
X118782329Y-68118611D01*
X118774842Y-68117238D01*
X118774840Y-68117238D01*
X118773719Y-68117032D01*
X118772283Y-68116769D01*
X118750340Y-68110652D01*
X118740801Y-68107035D01*
X118733234Y-68106116D01*
X118733230Y-68106115D01*
X118680432Y-68099704D01*
X118672911Y-68098559D01*
X118644336Y-68093323D01*
X118613093Y-68087598D01*
X118605486Y-68088058D01*
X118605484Y-68088058D01*
X118552390Y-68091270D01*
X118544782Y-68091500D01*
X116156026Y-68091500D01*
X115983970Y-68091500D01*
X115976575Y-68093322D01*
X115976571Y-68093323D01*
X115949449Y-68100008D01*
X115934486Y-68102750D01*
X115906762Y-68106116D01*
X115906758Y-68106116D01*
X115899197Y-68107035D01*
X115892075Y-68109735D01*
X115892074Y-68109736D01*
X115879013Y-68114689D01*
X115868672Y-68118611D01*
X115865953Y-68119642D01*
X115851434Y-68124166D01*
X115824313Y-68130851D01*
X115824309Y-68130852D01*
X115816915Y-68132675D01*
X115810170Y-68136214D01*
X115810164Y-68136217D01*
X115785430Y-68149198D01*
X115771561Y-68155440D01*
X115745451Y-68165342D01*
X115745447Y-68165344D01*
X115738323Y-68168046D01*
X115732052Y-68172374D01*
X115732049Y-68172376D01*
X115709062Y-68188243D01*
X115696046Y-68196111D01*
X115671319Y-68209089D01*
X115671314Y-68209091D01*
X115664568Y-68212633D01*
X115637953Y-68236210D01*
X115625987Y-68245585D01*
X115602996Y-68261455D01*
X115602989Y-68261460D01*
X115596725Y-68265785D01*
X115591679Y-68271480D01*
X115591673Y-68271486D01*
X115573148Y-68292396D01*
X115562394Y-68303150D01*
X115541484Y-68321675D01*
X115541478Y-68321681D01*
X115535783Y-68326727D01*
X115531458Y-68332991D01*
X115531453Y-68332998D01*
X115515583Y-68355989D01*
X115506208Y-68367955D01*
X115482631Y-68394570D01*
X115479089Y-68401316D01*
X115479087Y-68401321D01*
X115466109Y-68426048D01*
X115458241Y-68439064D01*
X115442374Y-68462051D01*
X115442372Y-68462054D01*
X115438044Y-68468325D01*
X115435342Y-68475449D01*
X115435340Y-68475453D01*
X115425438Y-68501563D01*
X115419196Y-68515432D01*
X115406215Y-68540166D01*
X115406212Y-68540172D01*
X115402673Y-68546917D01*
X115400850Y-68554311D01*
X115400849Y-68554315D01*
X115394164Y-68581436D01*
X115389640Y-68595952D01*
X115377033Y-68629199D01*
X115376114Y-68636760D01*
X115376114Y-68636764D01*
X115372748Y-68664488D01*
X115370006Y-68679451D01*
X115363321Y-68706573D01*
X115363320Y-68706577D01*
X115361498Y-68713972D01*
X115361498Y-68721590D01*
X115361498Y-68749522D01*
X115360579Y-68764709D01*
X115356294Y-68800000D01*
X115357213Y-68807569D01*
X115357213Y-68815188D01*
X115353907Y-68815188D01*
X115345099Y-68869487D01*
X115298607Y-68921986D01*
X115231251Y-68941500D01*
X110384945Y-68941500D01*
X110368499Y-68940422D01*
X110344997Y-68937328D01*
X110336809Y-68936250D01*
X110328621Y-68937328D01*
X110328620Y-68937328D01*
X110296937Y-68941499D01*
X110296911Y-68941501D01*
X110186147Y-68956083D01*
X110186139Y-68956085D01*
X110177959Y-68957162D01*
X110170331Y-68960321D01*
X110170329Y-68960322D01*
X110091247Y-68993079D01*
X110037562Y-69015315D01*
X110037556Y-69015318D01*
X110029933Y-69018476D01*
X109934737Y-69091523D01*
X109934734Y-69091525D01*
X109934695Y-69091554D01*
X109934667Y-69091576D01*
X109909368Y-69110989D01*
X109909364Y-69110992D01*
X109902822Y-69116013D01*
X109897801Y-69122555D01*
X109897798Y-69122559D01*
X109883354Y-69141382D01*
X109872490Y-69153768D01*
X108398767Y-70627491D01*
X108386380Y-70638355D01*
X108367562Y-70652795D01*
X108367555Y-70652801D01*
X108361013Y-70657822D01*
X108355992Y-70664364D01*
X108355989Y-70664368D01*
X108336576Y-70689667D01*
X108336525Y-70689734D01*
X108336523Y-70689737D01*
X108336515Y-70689748D01*
X108275964Y-70768659D01*
X108263476Y-70784933D01*
X108260318Y-70792556D01*
X108260315Y-70792562D01*
X108236156Y-70850889D01*
X108205323Y-70925326D01*
X108205321Y-70925330D01*
X108202162Y-70932959D01*
X108201084Y-70941143D01*
X108201083Y-70941149D01*
X108188955Y-71033273D01*
X108186500Y-71051924D01*
X108186500Y-71051929D01*
X108181250Y-71091809D01*
X108182328Y-71099997D01*
X108185422Y-71123499D01*
X108186500Y-71139945D01*
X108186500Y-71635500D01*
X108169619Y-71698500D01*
X108123500Y-71744619D01*
X108060500Y-71761500D01*
X107896362Y-71761500D01*
X107893015Y-71761859D01*
X107893011Y-71761860D01*
X107843632Y-71767168D01*
X107843625Y-71767169D01*
X107835799Y-71768011D01*
X107828423Y-71770761D01*
X107828419Y-71770763D01*
X107707236Y-71815962D01*
X107707230Y-71815965D01*
X107698796Y-71819111D01*
X107691588Y-71824506D01*
X107691582Y-71824510D01*
X107588950Y-71901340D01*
X107588946Y-71901343D01*
X107581739Y-71906739D01*
X107576343Y-71913946D01*
X107576340Y-71913950D01*
X107499510Y-72016582D01*
X107499506Y-72016588D01*
X107494111Y-72023796D01*
X107490965Y-72032230D01*
X107490962Y-72032236D01*
X107445763Y-72153419D01*
X107445761Y-72153423D01*
X107443011Y-72160799D01*
X107442169Y-72168625D01*
X107442168Y-72168632D01*
X107440585Y-72183362D01*
X107436500Y-72221362D01*
X107436500Y-74018638D01*
X85195500Y-74018638D01*
X85195500Y-72100000D01*
X93156296Y-72100000D01*
X93157215Y-72107569D01*
X93176115Y-72263232D01*
X93176116Y-72263239D01*
X93177035Y-72270801D01*
X93238046Y-72431675D01*
X93242374Y-72437945D01*
X93242375Y-72437947D01*
X93331457Y-72567003D01*
X93335785Y-72573273D01*
X93464570Y-72687367D01*
X93616917Y-72767325D01*
X93783972Y-72808500D01*
X93948411Y-72808500D01*
X93956028Y-72808500D01*
X94123083Y-72767325D01*
X94275430Y-72687367D01*
X94404215Y-72573273D01*
X94501954Y-72431675D01*
X94562965Y-72270801D01*
X94577218Y-72153419D01*
X94582785Y-72107569D01*
X94583704Y-72100000D01*
X94568688Y-71976331D01*
X94563884Y-71936767D01*
X94563883Y-71936766D01*
X94562965Y-71929199D01*
X94501954Y-71768325D01*
X94497622Y-71762049D01*
X94494082Y-71755304D01*
X94495032Y-71754805D01*
X94484206Y-71732569D01*
X94478500Y-71695083D01*
X94478500Y-69814661D01*
X94492233Y-69757458D01*
X94530439Y-69712725D01*
X94584789Y-69690212D01*
X94643436Y-69694828D01*
X94693594Y-69725565D01*
X94849704Y-69881675D01*
X95001188Y-70033159D01*
X95006404Y-70038700D01*
X95046727Y-70084215D01*
X95052994Y-70088541D01*
X95053001Y-70088547D01*
X95096776Y-70118763D01*
X95102904Y-70123272D01*
X95144773Y-70156073D01*
X95144775Y-70156074D01*
X95150774Y-70160774D01*
X95159419Y-70164664D01*
X95160059Y-70164953D01*
X95179932Y-70176161D01*
X95188325Y-70181954D01*
X95223793Y-70195405D01*
X95245193Y-70203521D01*
X95252225Y-70206434D01*
X95307670Y-70231388D01*
X95317698Y-70233225D01*
X95339666Y-70239349D01*
X95349199Y-70242965D01*
X95409596Y-70250297D01*
X95417071Y-70251435D01*
X95476907Y-70262401D01*
X95537598Y-70258729D01*
X95545205Y-70258500D01*
X95735500Y-70258500D01*
X95798500Y-70275381D01*
X95844619Y-70321500D01*
X95861500Y-70384500D01*
X95861500Y-70448638D01*
X95861859Y-70451985D01*
X95861860Y-70451988D01*
X95867168Y-70501367D01*
X95867169Y-70501373D01*
X95868011Y-70509201D01*
X95870762Y-70516578D01*
X95870763Y-70516580D01*
X95915962Y-70637763D01*
X95915964Y-70637766D01*
X95919111Y-70646204D01*
X95924508Y-70653414D01*
X95924510Y-70653417D01*
X96001340Y-70756049D01*
X96006739Y-70763261D01*
X96123796Y-70850889D01*
X96260799Y-70901989D01*
X96321362Y-70908500D01*
X98115269Y-70908500D01*
X98118638Y-70908500D01*
X98179201Y-70901989D01*
X98316204Y-70850889D01*
X98433261Y-70763261D01*
X98520889Y-70646204D01*
X98571989Y-70509201D01*
X98578500Y-70448638D01*
X98578500Y-68651362D01*
X98571989Y-68590799D01*
X98520889Y-68453796D01*
X98433261Y-68336739D01*
X98413138Y-68321675D01*
X98323417Y-68254510D01*
X98323414Y-68254508D01*
X98316204Y-68249111D01*
X98307765Y-68245963D01*
X98307757Y-68245959D01*
X98201193Y-68206212D01*
X98150859Y-68171648D01*
X98122685Y-68117478D01*
X98123288Y-68056422D01*
X98152523Y-68002821D01*
X98295722Y-67847268D01*
X98418860Y-67658791D01*
X98509296Y-67452616D01*
X98564564Y-67234368D01*
X98583156Y-67010000D01*
X98564564Y-66785632D01*
X98509296Y-66567384D01*
X98418860Y-66361209D01*
X98295722Y-66172732D01*
X98234956Y-66106723D01*
X98146772Y-66010930D01*
X98146767Y-66010925D01*
X98143240Y-66007094D01*
X97965576Y-65868811D01*
X97961002Y-65866336D01*
X97960995Y-65866331D01*
X97932320Y-65850814D01*
X97884048Y-65804498D01*
X97866289Y-65740000D01*
X97884048Y-65675502D01*
X97932320Y-65629186D01*
X97947815Y-65620801D01*
X97965576Y-65611189D01*
X98143240Y-65472906D01*
X98295722Y-65307268D01*
X98418860Y-65118791D01*
X98509296Y-64912616D01*
X98564564Y-64694368D01*
X98583156Y-64470000D01*
X98564564Y-64245632D01*
X98509296Y-64027384D01*
X98418860Y-63821209D01*
X98295722Y-63632732D01*
X98192305Y-63520392D01*
X98146772Y-63470930D01*
X98146767Y-63470925D01*
X98143240Y-63467094D01*
X98088350Y-63424371D01*
X107244365Y-63424371D01*
X107245157Y-63431400D01*
X107263300Y-63592431D01*
X107264133Y-63599819D01*
X107266468Y-63606492D01*
X107266469Y-63606496D01*
X107320109Y-63759790D01*
X107320111Y-63759794D01*
X107322447Y-63766470D01*
X107326209Y-63772458D01*
X107326211Y-63772461D01*
X107408715Y-63903766D01*
X107416382Y-63915967D01*
X107541227Y-64040812D01*
X107690724Y-64134747D01*
X107691923Y-64135166D01*
X107742189Y-64180089D01*
X107761500Y-64247123D01*
X107761500Y-66581132D01*
X107754429Y-66622747D01*
X107703646Y-66767874D01*
X107703644Y-66767880D01*
X107701310Y-66774552D01*
X107700518Y-66781576D01*
X107700518Y-66781579D01*
X107699476Y-66790827D01*
X107681542Y-66950000D01*
X107682334Y-66957029D01*
X107697418Y-67090910D01*
X107701310Y-67125448D01*
X107703645Y-67132121D01*
X107703646Y-67132125D01*
X107757286Y-67285419D01*
X107757288Y-67285423D01*
X107759624Y-67292099D01*
X107763386Y-67298087D01*
X107763388Y-67298090D01*
X107842891Y-67424619D01*
X107853559Y-67441596D01*
X107978404Y-67566441D01*
X108127901Y-67660376D01*
X108294552Y-67718690D01*
X108470000Y-67738458D01*
X108645448Y-67718690D01*
X108812099Y-67660376D01*
X108961596Y-67566441D01*
X109086441Y-67441596D01*
X109180376Y-67292099D01*
X109238690Y-67125448D01*
X109258458Y-66950000D01*
X109238690Y-66774552D01*
X109185571Y-66622747D01*
X109178500Y-66581132D01*
X109178500Y-66500000D01*
X116857794Y-66500000D01*
X116858713Y-66507569D01*
X116877613Y-66663232D01*
X116877614Y-66663239D01*
X116878533Y-66670801D01*
X116881235Y-66677926D01*
X116881236Y-66677929D01*
X116931028Y-66809220D01*
X116939544Y-66831675D01*
X117037283Y-66973273D01*
X117166068Y-67087367D01*
X117318415Y-67167325D01*
X117485470Y-67208500D01*
X117649909Y-67208500D01*
X117657526Y-67208500D01*
X117824581Y-67167325D01*
X117909163Y-67122932D01*
X117967717Y-67108500D01*
X119653781Y-67108500D01*
X119712334Y-67122932D01*
X119796917Y-67167325D01*
X119963972Y-67208500D01*
X120128411Y-67208500D01*
X120136028Y-67208500D01*
X120303083Y-67167325D01*
X120455430Y-67087367D01*
X120584215Y-66973273D01*
X120681954Y-66831675D01*
X120742965Y-66670801D01*
X120763704Y-66500000D01*
X120742965Y-66329199D01*
X120681954Y-66168325D01*
X120584215Y-66026727D01*
X120455430Y-65912633D01*
X120303083Y-65832675D01*
X120295685Y-65830851D01*
X120295681Y-65830850D01*
X120143421Y-65793322D01*
X120143419Y-65793321D01*
X120136028Y-65791500D01*
X119963972Y-65791500D01*
X119956581Y-65793321D01*
X119956578Y-65793322D01*
X119804318Y-65830850D01*
X119804311Y-65830852D01*
X119796917Y-65832675D01*
X119790171Y-65836215D01*
X119790167Y-65836217D01*
X119762358Y-65850813D01*
X119712334Y-65877067D01*
X119653781Y-65891500D01*
X117967717Y-65891500D01*
X117909163Y-65877067D01*
X117846095Y-65843966D01*
X117831330Y-65836217D01*
X117831328Y-65836216D01*
X117824581Y-65832675D01*
X117817183Y-65830851D01*
X117817179Y-65830850D01*
X117664919Y-65793322D01*
X117664917Y-65793321D01*
X117657526Y-65791500D01*
X117485470Y-65791500D01*
X117478079Y-65793321D01*
X117478076Y-65793322D01*
X117325816Y-65830850D01*
X117325809Y-65830852D01*
X117318415Y-65832675D01*
X117311666Y-65836216D01*
X117311661Y-65836219D01*
X117172820Y-65909089D01*
X117172818Y-65909090D01*
X117166068Y-65912633D01*
X117160366Y-65917684D01*
X117160361Y-65917688D01*
X117042986Y-66021674D01*
X117042983Y-66021676D01*
X117037283Y-66026727D01*
X117032958Y-66032992D01*
X117032955Y-66032996D01*
X116943873Y-66162052D01*
X116943869Y-66162057D01*
X116939544Y-66168325D01*
X116936841Y-66175451D01*
X116936840Y-66175454D01*
X116881236Y-66322070D01*
X116881234Y-66322074D01*
X116878533Y-66329199D01*
X116877615Y-66336758D01*
X116877613Y-66336767D01*
X116858713Y-66492431D01*
X116857794Y-66500000D01*
X109178500Y-66500000D01*
X109178500Y-63886771D01*
X109178730Y-63879164D01*
X109179488Y-63866635D01*
X109182402Y-63818456D01*
X109171435Y-63758612D01*
X109170293Y-63751103D01*
X109163884Y-63698315D01*
X109163883Y-63698314D01*
X109162965Y-63690747D01*
X109159348Y-63681210D01*
X109153222Y-63659222D01*
X109152849Y-63657184D01*
X109154926Y-63602481D01*
X109156205Y-63600000D01*
X114356296Y-63600000D01*
X114357215Y-63607569D01*
X114360581Y-63635290D01*
X114361500Y-63650478D01*
X114361500Y-63686028D01*
X114369197Y-63717257D01*
X114370008Y-63720545D01*
X114372750Y-63735511D01*
X114376116Y-63763237D01*
X114376117Y-63763241D01*
X114377035Y-63770801D01*
X114381590Y-63782812D01*
X114389642Y-63804046D01*
X114394166Y-63818564D01*
X114402675Y-63853083D01*
X114419194Y-63884558D01*
X114425436Y-63898428D01*
X114433988Y-63920975D01*
X114438046Y-63931675D01*
X114442373Y-63937944D01*
X114442376Y-63937949D01*
X114458241Y-63960932D01*
X114466113Y-63973954D01*
X114479088Y-63998677D01*
X114479091Y-63998681D01*
X114482633Y-64005430D01*
X114487687Y-64011135D01*
X114487688Y-64011136D01*
X114506208Y-64032041D01*
X114515590Y-64044016D01*
X114535785Y-64073273D01*
X114541491Y-64078328D01*
X114541492Y-64078329D01*
X114562393Y-64096845D01*
X114573153Y-64107605D01*
X114596727Y-64134215D01*
X114625987Y-64154412D01*
X114637957Y-64163790D01*
X114664570Y-64187367D01*
X114689428Y-64200413D01*
X114696041Y-64203884D01*
X114709064Y-64211756D01*
X114738325Y-64231954D01*
X114771579Y-64244565D01*
X114785434Y-64250801D01*
X114816917Y-64267325D01*
X114851432Y-64275832D01*
X114865951Y-64280356D01*
X114899199Y-64292965D01*
X114906765Y-64293883D01*
X114906767Y-64293884D01*
X114917592Y-64295198D01*
X114934494Y-64297250D01*
X114949450Y-64299990D01*
X114983972Y-64308500D01*
X115027141Y-64308500D01*
X115156028Y-64308500D01*
X117476213Y-64308500D01*
X117520893Y-64316688D01*
X117559765Y-64340187D01*
X117566239Y-64345922D01*
X117576725Y-64355212D01*
X117585751Y-64359949D01*
X117604909Y-64372336D01*
X117612930Y-64378620D01*
X117668411Y-64403590D01*
X117675193Y-64406892D01*
X117729072Y-64435170D01*
X117738967Y-64437608D01*
X117760529Y-64445050D01*
X117762581Y-64445973D01*
X117769826Y-64449234D01*
X117829648Y-64460196D01*
X117837082Y-64461792D01*
X117860606Y-64467590D01*
X117896127Y-64476345D01*
X117906321Y-64476345D01*
X117929032Y-64478409D01*
X117931564Y-64478873D01*
X117931565Y-64478873D01*
X117939063Y-64480247D01*
X117999770Y-64476575D01*
X118007378Y-64476345D01*
X118060566Y-64476345D01*
X118068183Y-64476345D01*
X118078076Y-64473906D01*
X118100621Y-64470474D01*
X118110804Y-64469859D01*
X118168893Y-64451756D01*
X118176160Y-64449730D01*
X118235238Y-64435170D01*
X118244256Y-64430436D01*
X118265332Y-64421705D01*
X118275069Y-64418672D01*
X118327119Y-64387205D01*
X118333743Y-64383470D01*
X118387585Y-64355212D01*
X118395210Y-64348455D01*
X118413599Y-64334925D01*
X118422309Y-64329661D01*
X118465327Y-64286642D01*
X118470839Y-64281454D01*
X118484730Y-64269148D01*
X118516370Y-64241118D01*
X118522159Y-64232729D01*
X118536765Y-64215204D01*
X118543971Y-64207999D01*
X118575432Y-64155955D01*
X118579562Y-64149568D01*
X118614109Y-64099520D01*
X118617723Y-64089988D01*
X118627712Y-64069476D01*
X118632982Y-64060759D01*
X118651074Y-64002695D01*
X118653549Y-63995522D01*
X118675120Y-63938646D01*
X118676347Y-63928536D01*
X118681136Y-63906224D01*
X118684169Y-63896494D01*
X118687840Y-63835788D01*
X118688529Y-63828206D01*
X118694940Y-63775413D01*
X118695859Y-63767845D01*
X118694629Y-63757721D01*
X118693941Y-63734932D01*
X118694557Y-63724753D01*
X118683590Y-63664909D01*
X118682448Y-63657400D01*
X118676039Y-63604612D01*
X118676038Y-63604611D01*
X118675120Y-63597044D01*
X118671503Y-63587507D01*
X118665382Y-63565550D01*
X118663544Y-63555516D01*
X118638580Y-63500050D01*
X118635668Y-63493018D01*
X118635648Y-63492965D01*
X118614109Y-63436170D01*
X118608310Y-63427769D01*
X118597110Y-63407908D01*
X118596058Y-63405571D01*
X118592930Y-63398620D01*
X118555418Y-63350740D01*
X118550926Y-63344634D01*
X118520700Y-63300844D01*
X118520696Y-63300840D01*
X118516370Y-63294572D01*
X118470837Y-63254233D01*
X118465296Y-63249016D01*
X118333137Y-63116857D01*
X118327920Y-63111316D01*
X118327441Y-63110775D01*
X118287583Y-63065785D01*
X118281316Y-63061459D01*
X118281308Y-63061452D01*
X118237531Y-63031235D01*
X118231401Y-63026725D01*
X118189533Y-62993923D01*
X118189530Y-62993921D01*
X118183536Y-62989225D01*
X118176591Y-62986099D01*
X118176586Y-62986096D01*
X118174232Y-62985037D01*
X118154375Y-62973837D01*
X118152261Y-62972378D01*
X118145985Y-62968046D01*
X118138860Y-62965344D01*
X118138851Y-62965339D01*
X118089132Y-62946483D01*
X118082103Y-62943572D01*
X118033585Y-62921736D01*
X118033576Y-62921733D01*
X118026639Y-62918611D01*
X118019152Y-62917238D01*
X118019150Y-62917238D01*
X118018029Y-62917032D01*
X118016593Y-62916769D01*
X117994650Y-62910652D01*
X117985111Y-62907035D01*
X117977544Y-62906116D01*
X117977540Y-62906115D01*
X117924742Y-62899704D01*
X117917221Y-62898559D01*
X117888646Y-62893323D01*
X117857403Y-62887598D01*
X117849796Y-62888058D01*
X117849794Y-62888058D01*
X117796700Y-62891270D01*
X117789092Y-62891500D01*
X115156028Y-62891500D01*
X114983972Y-62891500D01*
X114976577Y-62893322D01*
X114976573Y-62893323D01*
X114949451Y-62900008D01*
X114934488Y-62902750D01*
X114906764Y-62906116D01*
X114906760Y-62906116D01*
X114899199Y-62907035D01*
X114892077Y-62909735D01*
X114892076Y-62909736D01*
X114888648Y-62911036D01*
X114868674Y-62918611D01*
X114865955Y-62919642D01*
X114851436Y-62924166D01*
X114824315Y-62930851D01*
X114824311Y-62930852D01*
X114816917Y-62932675D01*
X114810172Y-62936214D01*
X114810166Y-62936217D01*
X114785432Y-62949198D01*
X114771563Y-62955440D01*
X114745453Y-62965342D01*
X114745449Y-62965344D01*
X114738325Y-62968046D01*
X114732054Y-62972374D01*
X114732051Y-62972376D01*
X114709064Y-62988243D01*
X114696048Y-62996111D01*
X114671321Y-63009089D01*
X114671316Y-63009091D01*
X114664570Y-63012633D01*
X114637955Y-63036210D01*
X114625989Y-63045585D01*
X114602998Y-63061455D01*
X114602991Y-63061460D01*
X114596727Y-63065785D01*
X114591681Y-63071480D01*
X114591675Y-63071486D01*
X114573150Y-63092396D01*
X114562396Y-63103150D01*
X114541486Y-63121675D01*
X114541480Y-63121681D01*
X114535785Y-63126727D01*
X114531460Y-63132991D01*
X114531455Y-63132998D01*
X114515585Y-63155989D01*
X114506210Y-63167955D01*
X114482633Y-63194570D01*
X114479091Y-63201316D01*
X114479089Y-63201321D01*
X114466111Y-63226048D01*
X114458243Y-63239064D01*
X114442376Y-63262051D01*
X114442374Y-63262054D01*
X114438046Y-63268325D01*
X114435344Y-63275449D01*
X114435342Y-63275453D01*
X114425440Y-63301563D01*
X114419198Y-63315432D01*
X114406217Y-63340166D01*
X114406214Y-63340172D01*
X114402675Y-63346917D01*
X114400852Y-63354311D01*
X114400851Y-63354315D01*
X114394166Y-63381436D01*
X114389642Y-63395952D01*
X114377035Y-63429199D01*
X114376116Y-63436760D01*
X114376116Y-63436764D01*
X114372750Y-63464488D01*
X114370008Y-63479451D01*
X114363323Y-63506573D01*
X114363322Y-63506577D01*
X114361500Y-63513972D01*
X114361500Y-63521590D01*
X114361500Y-63549522D01*
X114360581Y-63564709D01*
X114356296Y-63600000D01*
X109156205Y-63600000D01*
X109180006Y-63553822D01*
X109223355Y-63520392D01*
X109276790Y-63508500D01*
X110844782Y-63508500D01*
X110852390Y-63508730D01*
X110913093Y-63512402D01*
X110972941Y-63501434D01*
X110980431Y-63500295D01*
X111040801Y-63492965D01*
X111050330Y-63489350D01*
X111072299Y-63483226D01*
X111082329Y-63481389D01*
X111137797Y-63456423D01*
X111144816Y-63453517D01*
X111171749Y-63443303D01*
X111201675Y-63431954D01*
X111210064Y-63426162D01*
X111229930Y-63414958D01*
X111239226Y-63410775D01*
X111287109Y-63373259D01*
X111293201Y-63368776D01*
X111343273Y-63334215D01*
X111383627Y-63288663D01*
X111388812Y-63283156D01*
X111433155Y-63238813D01*
X111438662Y-63233628D01*
X111484214Y-63193274D01*
X111518788Y-63143184D01*
X111523254Y-63137114D01*
X111560774Y-63089226D01*
X111564955Y-63079935D01*
X111576162Y-63060064D01*
X111581953Y-63051676D01*
X111603516Y-62994814D01*
X111606430Y-62987782D01*
X111607666Y-62985037D01*
X111610687Y-62978323D01*
X111628258Y-62939285D01*
X111628258Y-62939282D01*
X111631388Y-62932330D01*
X111633225Y-62922300D01*
X111639350Y-62900331D01*
X111642964Y-62890802D01*
X111650298Y-62830397D01*
X111651433Y-62822941D01*
X111662401Y-62763093D01*
X111661785Y-62752912D01*
X111662475Y-62730112D01*
X111662784Y-62727568D01*
X111663703Y-62720001D01*
X111658594Y-62677926D01*
X111656373Y-62659638D01*
X111655684Y-62652055D01*
X111652473Y-62598959D01*
X111652013Y-62591352D01*
X111648980Y-62581622D01*
X111644191Y-62559312D01*
X111642964Y-62549200D01*
X111621403Y-62492348D01*
X111618920Y-62485153D01*
X111613676Y-62468325D01*
X111600826Y-62427087D01*
X111595550Y-62418360D01*
X111585568Y-62397857D01*
X111584657Y-62395455D01*
X111584655Y-62395453D01*
X111581953Y-62388326D01*
X111577623Y-62382053D01*
X111577620Y-62382047D01*
X111547400Y-62338267D01*
X111543267Y-62331875D01*
X111541649Y-62329199D01*
X111511815Y-62279847D01*
X111504608Y-62272639D01*
X111490009Y-62255124D01*
X111484214Y-62246728D01*
X111441729Y-62209089D01*
X111438681Y-62206389D01*
X111433140Y-62201172D01*
X111395545Y-62163577D01*
X111395545Y-62163576D01*
X111390153Y-62158185D01*
X111381429Y-62152911D01*
X111363057Y-62139392D01*
X111361136Y-62137690D01*
X111361135Y-62137689D01*
X111355429Y-62132634D01*
X111301582Y-62104372D01*
X111294960Y-62100637D01*
X111249436Y-62073117D01*
X111249434Y-62073116D01*
X111242913Y-62069174D01*
X111235635Y-62066906D01*
X111235631Y-62066904D01*
X111233167Y-62066136D01*
X111212114Y-62057415D01*
X111209835Y-62056219D01*
X111209827Y-62056216D01*
X111203082Y-62052676D01*
X111195673Y-62050850D01*
X111144049Y-62038126D01*
X111136716Y-62036082D01*
X111085922Y-62020253D01*
X111085916Y-62020252D01*
X111078648Y-62017987D01*
X111071045Y-62017526D01*
X111071041Y-62017526D01*
X111068456Y-62017370D01*
X111045930Y-62013941D01*
X111044682Y-62013633D01*
X111043426Y-62013324D01*
X111043423Y-62013323D01*
X111036027Y-62011501D01*
X111028404Y-62011501D01*
X110975222Y-62011501D01*
X110967615Y-62011271D01*
X110914514Y-62008059D01*
X110914512Y-62008059D01*
X110906907Y-62007599D01*
X110899417Y-62008971D01*
X110899408Y-62008972D01*
X110896876Y-62009437D01*
X110874165Y-62011501D01*
X110863971Y-62011501D01*
X110856580Y-62013322D01*
X110856576Y-62013323D01*
X110804934Y-62026051D01*
X110797499Y-62027647D01*
X110745158Y-62037239D01*
X110745152Y-62037240D01*
X110737670Y-62038612D01*
X110730729Y-62041735D01*
X110730721Y-62041738D01*
X110728360Y-62042801D01*
X110706822Y-62050233D01*
X110704319Y-62050850D01*
X110704311Y-62050853D01*
X110696916Y-62052676D01*
X110690175Y-62056213D01*
X110690169Y-62056216D01*
X110650440Y-62077068D01*
X110591886Y-62091500D01*
X108606028Y-62091500D01*
X108433972Y-62091500D01*
X108426577Y-62093322D01*
X108426573Y-62093323D01*
X108399451Y-62100008D01*
X108384488Y-62102750D01*
X108356764Y-62106116D01*
X108356760Y-62106116D01*
X108349199Y-62107035D01*
X108342077Y-62109735D01*
X108342076Y-62109736D01*
X108315955Y-62119642D01*
X108301436Y-62124166D01*
X108274315Y-62130851D01*
X108274311Y-62130852D01*
X108266917Y-62132675D01*
X108260172Y-62136214D01*
X108260166Y-62136217D01*
X108235432Y-62149198D01*
X108221563Y-62155440D01*
X108195453Y-62165342D01*
X108195449Y-62165344D01*
X108188325Y-62168046D01*
X108182054Y-62172374D01*
X108182051Y-62172376D01*
X108159064Y-62188243D01*
X108146048Y-62196111D01*
X108121321Y-62209089D01*
X108121316Y-62209091D01*
X108114570Y-62212633D01*
X108087955Y-62236210D01*
X108075989Y-62245585D01*
X108052998Y-62261455D01*
X108052991Y-62261460D01*
X108046727Y-62265785D01*
X108041681Y-62271480D01*
X108041675Y-62271486D01*
X108023150Y-62292396D01*
X108012396Y-62303150D01*
X107991486Y-62321675D01*
X107991480Y-62321681D01*
X107985785Y-62326727D01*
X107981460Y-62332991D01*
X107981455Y-62332998D01*
X107965585Y-62355989D01*
X107956210Y-62367955D01*
X107945269Y-62380307D01*
X107938165Y-62388326D01*
X107932633Y-62394570D01*
X107929091Y-62401316D01*
X107929089Y-62401321D01*
X107916111Y-62426048D01*
X107908243Y-62439064D01*
X107892376Y-62462051D01*
X107892374Y-62462054D01*
X107888046Y-62468325D01*
X107885344Y-62475449D01*
X107885342Y-62475453D01*
X107875440Y-62501563D01*
X107869198Y-62515432D01*
X107856217Y-62540166D01*
X107856214Y-62540172D01*
X107852675Y-62546917D01*
X107850852Y-62554311D01*
X107850851Y-62554315D01*
X107844166Y-62581436D01*
X107839641Y-62595956D01*
X107831622Y-62617102D01*
X107801745Y-62662665D01*
X107755426Y-62691354D01*
X107697398Y-62711659D01*
X107697393Y-62711661D01*
X107690724Y-62713995D01*
X107684735Y-62717757D01*
X107684733Y-62717759D01*
X107547222Y-62804162D01*
X107547215Y-62804167D01*
X107541227Y-62807930D01*
X107536222Y-62812934D01*
X107536218Y-62812938D01*
X107421390Y-62927766D01*
X107421386Y-62927770D01*
X107416382Y-62932775D01*
X107412619Y-62938763D01*
X107412614Y-62938770D01*
X107326211Y-63076280D01*
X107326207Y-63076286D01*
X107322447Y-63082272D01*
X107320112Y-63088944D01*
X107320109Y-63088951D01*
X107266469Y-63242245D01*
X107266467Y-63242251D01*
X107264133Y-63248923D01*
X107263341Y-63255947D01*
X107263341Y-63255950D01*
X107253349Y-63344634D01*
X107244365Y-63424371D01*
X98088350Y-63424371D01*
X97965576Y-63328811D01*
X97960997Y-63326333D01*
X97960994Y-63326331D01*
X97772159Y-63224139D01*
X97772156Y-63224137D01*
X97767574Y-63221658D01*
X97762650Y-63219967D01*
X97762642Y-63219964D01*
X97559565Y-63150248D01*
X97559559Y-63150246D01*
X97554635Y-63148556D01*
X97549498Y-63147698D01*
X97549495Y-63147698D01*
X97337706Y-63112357D01*
X97337703Y-63112356D01*
X97332569Y-63111500D01*
X97107431Y-63111500D01*
X97102297Y-63112356D01*
X97102293Y-63112357D01*
X96890504Y-63147698D01*
X96890498Y-63147699D01*
X96885365Y-63148556D01*
X96880443Y-63150245D01*
X96880434Y-63150248D01*
X96677357Y-63219964D01*
X96677344Y-63219969D01*
X96672426Y-63221658D01*
X96667847Y-63224135D01*
X96667840Y-63224139D01*
X96479005Y-63326331D01*
X96478997Y-63326336D01*
X96474424Y-63328811D01*
X96470313Y-63332010D01*
X96470311Y-63332012D01*
X96300878Y-63463888D01*
X96300872Y-63463893D01*
X96296760Y-63467094D01*
X96293237Y-63470919D01*
X96293227Y-63470930D01*
X96147806Y-63628899D01*
X96147802Y-63628902D01*
X96144278Y-63632732D01*
X96141430Y-63637090D01*
X96141427Y-63637095D01*
X96023992Y-63816843D01*
X96021140Y-63821209D01*
X96019049Y-63825975D01*
X96019043Y-63825987D01*
X95960700Y-63958996D01*
X95919822Y-64009991D01*
X95858897Y-64033648D01*
X95794317Y-64023601D01*
X95743458Y-63982554D01*
X95720003Y-63921553D01*
X95713542Y-63860072D01*
X95660984Y-63698315D01*
X95656569Y-63684728D01*
X95656568Y-63684726D01*
X95654527Y-63678444D01*
X95559040Y-63513056D01*
X95431253Y-63371134D01*
X95425911Y-63367253D01*
X95425908Y-63367250D01*
X95335497Y-63301563D01*
X95276752Y-63258882D01*
X95102288Y-63181206D01*
X95095835Y-63179834D01*
X95095831Y-63179833D01*
X94921943Y-63142872D01*
X94921940Y-63142871D01*
X94915487Y-63141500D01*
X94724513Y-63141500D01*
X94718058Y-63142871D01*
X94717668Y-63142913D01*
X94649264Y-63130850D01*
X94597645Y-63084372D01*
X94578500Y-63017603D01*
X94578500Y-62604917D01*
X94584206Y-62567431D01*
X94595032Y-62545194D01*
X94594082Y-62544696D01*
X94597621Y-62537951D01*
X94601954Y-62531675D01*
X94662965Y-62370801D01*
X94682649Y-62208692D01*
X94682785Y-62207569D01*
X94683704Y-62200000D01*
X94671401Y-62098677D01*
X94663884Y-62036767D01*
X94663883Y-62036766D01*
X94662965Y-62029199D01*
X94601954Y-61868325D01*
X94504215Y-61726727D01*
X94375430Y-61612633D01*
X94298117Y-61572056D01*
X94229836Y-61536219D01*
X94229834Y-61536218D01*
X94223083Y-61532675D01*
X94215685Y-61530851D01*
X94215681Y-61530850D01*
X94063421Y-61493322D01*
X94063419Y-61493321D01*
X94056028Y-61491500D01*
X93883972Y-61491500D01*
X93876581Y-61493321D01*
X93876578Y-61493322D01*
X93724318Y-61530850D01*
X93724311Y-61530852D01*
X93716917Y-61532675D01*
X93710168Y-61536216D01*
X93710163Y-61536219D01*
X93571322Y-61609089D01*
X93571320Y-61609090D01*
X93564570Y-61612633D01*
X93558868Y-61617684D01*
X93558863Y-61617688D01*
X93441488Y-61721674D01*
X93441485Y-61721676D01*
X93435785Y-61726727D01*
X93431460Y-61732992D01*
X93431457Y-61732996D01*
X93342375Y-61862052D01*
X93342371Y-61862057D01*
X93338046Y-61868325D01*
X93335343Y-61875451D01*
X93335342Y-61875454D01*
X93279738Y-62022070D01*
X93279736Y-62022074D01*
X93277035Y-62029199D01*
X93276117Y-62036758D01*
X93276115Y-62036767D01*
X93257215Y-62192431D01*
X93256296Y-62200000D01*
X93257215Y-62207569D01*
X93276115Y-62363232D01*
X93276116Y-62363239D01*
X93277035Y-62370801D01*
X93279737Y-62377926D01*
X93279738Y-62377929D01*
X93335341Y-62524544D01*
X93335343Y-62524548D01*
X93338046Y-62531675D01*
X93342377Y-62537949D01*
X93345918Y-62544696D01*
X93344967Y-62545194D01*
X93355794Y-62567431D01*
X93361500Y-62604917D01*
X93361500Y-65165232D01*
X93353312Y-65209912D01*
X93329738Y-65272070D01*
X93329736Y-65272075D01*
X93327035Y-65279199D01*
X93326117Y-65286758D01*
X93326115Y-65286767D01*
X93307215Y-65442431D01*
X93306296Y-65450000D01*
X93307215Y-65457569D01*
X93326115Y-65613232D01*
X93326116Y-65613239D01*
X93327035Y-65620801D01*
X93329737Y-65627926D01*
X93329738Y-65627929D01*
X93364027Y-65718342D01*
X93388046Y-65781675D01*
X93392374Y-65787945D01*
X93392375Y-65787947D01*
X93446478Y-65866328D01*
X93485785Y-65923273D01*
X93614570Y-66037367D01*
X93766917Y-66117325D01*
X93933972Y-66158500D01*
X93941589Y-66158500D01*
X93985500Y-66158500D01*
X94048500Y-66175381D01*
X94094619Y-66221500D01*
X94111500Y-66284500D01*
X94111500Y-67315500D01*
X94094619Y-67378500D01*
X94048500Y-67424619D01*
X93985500Y-67441500D01*
X93833972Y-67441500D01*
X93826581Y-67443321D01*
X93826578Y-67443322D01*
X93674318Y-67480850D01*
X93674311Y-67480852D01*
X93666917Y-67482675D01*
X93660168Y-67486216D01*
X93660163Y-67486219D01*
X93521322Y-67559089D01*
X93521320Y-67559090D01*
X93514570Y-67562633D01*
X93508868Y-67567684D01*
X93508863Y-67567688D01*
X93391488Y-67671674D01*
X93391485Y-67671676D01*
X93385785Y-67676727D01*
X93381460Y-67682992D01*
X93381457Y-67682996D01*
X93292375Y-67812052D01*
X93292371Y-67812057D01*
X93288046Y-67818325D01*
X93285343Y-67825451D01*
X93285342Y-67825454D01*
X93229738Y-67972070D01*
X93229736Y-67972074D01*
X93227035Y-67979199D01*
X93226117Y-67986758D01*
X93226115Y-67986767D01*
X93207215Y-68142431D01*
X93206296Y-68150000D01*
X93207215Y-68157569D01*
X93226115Y-68313232D01*
X93226116Y-68313239D01*
X93227035Y-68320801D01*
X93229737Y-68327926D01*
X93229738Y-68327929D01*
X93253312Y-68390088D01*
X93261500Y-68434768D01*
X93261500Y-71695083D01*
X93255794Y-71732569D01*
X93244967Y-71754805D01*
X93245918Y-71755304D01*
X93242376Y-71762051D01*
X93238046Y-71768325D01*
X93235344Y-71775448D01*
X93235341Y-71775455D01*
X93179738Y-71922070D01*
X93179736Y-71922074D01*
X93177035Y-71929199D01*
X93176117Y-71936758D01*
X93176115Y-71936767D01*
X93164524Y-72032236D01*
X93156296Y-72100000D01*
X85195500Y-72100000D01*
X85195500Y-70088367D01*
X91124500Y-70088367D01*
X91127037Y-70097010D01*
X91127038Y-70097011D01*
X91159167Y-70206434D01*
X91163022Y-70219561D01*
X91236945Y-70334589D01*
X91340282Y-70424130D01*
X91464658Y-70480931D01*
X91473573Y-70482212D01*
X91473574Y-70482213D01*
X91487417Y-70484203D01*
X91565989Y-70495500D01*
X91629515Y-70495500D01*
X91634011Y-70495500D01*
X91735342Y-70480931D01*
X91859718Y-70424130D01*
X91963055Y-70334589D01*
X92036978Y-70219561D01*
X92075500Y-70088367D01*
X92075500Y-69951633D01*
X92036978Y-69820439D01*
X91963055Y-69705411D01*
X91859718Y-69615870D01*
X91851520Y-69612126D01*
X91851517Y-69612124D01*
X91743538Y-69562812D01*
X91743537Y-69562811D01*
X91735342Y-69559069D01*
X91726431Y-69557787D01*
X91726425Y-69557786D01*
X91638458Y-69545139D01*
X91638452Y-69545138D01*
X91634011Y-69544500D01*
X91565989Y-69544500D01*
X91561548Y-69545138D01*
X91561541Y-69545139D01*
X91473574Y-69557786D01*
X91473566Y-69557788D01*
X91464658Y-69559069D01*
X91456463Y-69562811D01*
X91456461Y-69562812D01*
X91348482Y-69612124D01*
X91348475Y-69612128D01*
X91340282Y-69615870D01*
X91333470Y-69621771D01*
X91333469Y-69621773D01*
X91243757Y-69699508D01*
X91243755Y-69699509D01*
X91236945Y-69705411D01*
X91232071Y-69712994D01*
X91232071Y-69712995D01*
X91167896Y-69812854D01*
X91167894Y-69812856D01*
X91163022Y-69820439D01*
X91160483Y-69829085D01*
X91160482Y-69829088D01*
X91143198Y-69887953D01*
X91124500Y-69951633D01*
X91124500Y-70088367D01*
X85195500Y-70088367D01*
X85195500Y-64308367D01*
X91124500Y-64308367D01*
X91127037Y-64317010D01*
X91127038Y-64317011D01*
X91141208Y-64365271D01*
X91163022Y-64439561D01*
X91236945Y-64554589D01*
X91340282Y-64644130D01*
X91464658Y-64700931D01*
X91473573Y-64702212D01*
X91473574Y-64702213D01*
X91486261Y-64704037D01*
X91565989Y-64715500D01*
X91629515Y-64715500D01*
X91634011Y-64715500D01*
X91735342Y-64700931D01*
X91859718Y-64644130D01*
X91963055Y-64554589D01*
X92036978Y-64439561D01*
X92075500Y-64308367D01*
X92075500Y-64171633D01*
X92036978Y-64040439D01*
X91963055Y-63925411D01*
X91859718Y-63835870D01*
X91851520Y-63832126D01*
X91851517Y-63832124D01*
X91743538Y-63782812D01*
X91743537Y-63782811D01*
X91735342Y-63779069D01*
X91726431Y-63777787D01*
X91726425Y-63777786D01*
X91638458Y-63765139D01*
X91638452Y-63765138D01*
X91634011Y-63764500D01*
X91565989Y-63764500D01*
X91561548Y-63765138D01*
X91561541Y-63765139D01*
X91473574Y-63777786D01*
X91473566Y-63777788D01*
X91464658Y-63779069D01*
X91456463Y-63782811D01*
X91456461Y-63782812D01*
X91348482Y-63832124D01*
X91348475Y-63832128D01*
X91340282Y-63835870D01*
X91333470Y-63841771D01*
X91333469Y-63841773D01*
X91243757Y-63919508D01*
X91243755Y-63919509D01*
X91236945Y-63925411D01*
X91232071Y-63932994D01*
X91232071Y-63932995D01*
X91167896Y-64032854D01*
X91167894Y-64032856D01*
X91163022Y-64040439D01*
X91160483Y-64049085D01*
X91160482Y-64049088D01*
X91127038Y-64162988D01*
X91124500Y-64171633D01*
X91124500Y-64308367D01*
X85195500Y-64308367D01*
X85195500Y-58050000D01*
X109481542Y-58050000D01*
X109482334Y-58057029D01*
X109493472Y-58155888D01*
X109501310Y-58225448D01*
X109503645Y-58232121D01*
X109503646Y-58232125D01*
X109557286Y-58385419D01*
X109557288Y-58385423D01*
X109559624Y-58392099D01*
X109563386Y-58398087D01*
X109563388Y-58398090D01*
X109640925Y-58521490D01*
X109653559Y-58541596D01*
X109778404Y-58666441D01*
X109784398Y-58670207D01*
X109784399Y-58670208D01*
X109872367Y-58725482D01*
X109927901Y-58760376D01*
X109934580Y-58762713D01*
X110087867Y-58816351D01*
X110087868Y-58816351D01*
X110094552Y-58818690D01*
X110144942Y-58824367D01*
X110185505Y-58836053D01*
X110219931Y-58860480D01*
X110255680Y-58896229D01*
X110266547Y-58908619D01*
X110286013Y-58933987D01*
X110292566Y-58939015D01*
X110317925Y-58958474D01*
X110317928Y-58958477D01*
X110375398Y-59002576D01*
X110413124Y-59031524D01*
X110420753Y-59034684D01*
X110539295Y-59083786D01*
X110561149Y-59092838D01*
X110580543Y-59095391D01*
X110680115Y-59108500D01*
X110680120Y-59108500D01*
X110720000Y-59113750D01*
X110751692Y-59109577D01*
X110768136Y-59108500D01*
X113989636Y-59108500D01*
X114006079Y-59109577D01*
X114037772Y-59113750D01*
X114077652Y-59108500D01*
X114077657Y-59108500D01*
X114177228Y-59095391D01*
X114196623Y-59092838D01*
X114344648Y-59031524D01*
X114349861Y-59027523D01*
X114397734Y-59011769D01*
X114479334Y-59002576D01*
X114645985Y-58944262D01*
X114795482Y-58850327D01*
X114920327Y-58725482D01*
X115014262Y-58575985D01*
X115072576Y-58409334D01*
X115092344Y-58233886D01*
X115072576Y-58058438D01*
X115014262Y-57891787D01*
X115003433Y-57874552D01*
X114924094Y-57748285D01*
X114924093Y-57748284D01*
X114920327Y-57742290D01*
X114795482Y-57617445D01*
X114789491Y-57613680D01*
X114789489Y-57613679D01*
X114770068Y-57601476D01*
X114717542Y-57568472D01*
X114677893Y-57528824D01*
X114659372Y-57475895D01*
X114665651Y-57420172D01*
X114695483Y-57372694D01*
X115524708Y-56543469D01*
X115573900Y-56513051D01*
X115631502Y-56507816D01*
X115685374Y-56528868D01*
X115690366Y-56532313D01*
X115696069Y-56537366D01*
X115848416Y-56617324D01*
X116015471Y-56658499D01*
X116179910Y-56658499D01*
X116187527Y-56658499D01*
X116354582Y-56617324D01*
X116439164Y-56572931D01*
X116497718Y-56558499D01*
X125105760Y-56558499D01*
X125153978Y-56568090D01*
X125194855Y-56595404D01*
X125674595Y-57075144D01*
X125701909Y-57116021D01*
X125711500Y-57164239D01*
X125711500Y-70441864D01*
X125710422Y-70458307D01*
X125706250Y-70490000D01*
X125707328Y-70498189D01*
X125711500Y-70529880D01*
X125711500Y-70529885D01*
X125721404Y-70605115D01*
X125726083Y-70640662D01*
X125726084Y-70640668D01*
X125727162Y-70648851D01*
X125730321Y-70656479D01*
X125730322Y-70656480D01*
X125785315Y-70789246D01*
X125785316Y-70789249D01*
X125788476Y-70796876D01*
X125793502Y-70803427D01*
X125793504Y-70803429D01*
X125861523Y-70892072D01*
X125859813Y-70893384D01*
X125859814Y-70893386D01*
X125861525Y-70892074D01*
X125886013Y-70923987D01*
X125892558Y-70929009D01*
X125892562Y-70929013D01*
X125911379Y-70943452D01*
X125923770Y-70954319D01*
X127508862Y-72539411D01*
X127536149Y-72580224D01*
X127545767Y-72628367D01*
X127537999Y-72667696D01*
X127539318Y-72668125D01*
X127537783Y-72672845D01*
X127535895Y-72677406D01*
X127534744Y-72682198D01*
X127534741Y-72682209D01*
X127482256Y-72900827D01*
X127480465Y-72908289D01*
X127480077Y-72913212D01*
X127480076Y-72913222D01*
X127469322Y-73049865D01*
X127461835Y-73145000D01*
X127462223Y-73149930D01*
X127480076Y-73376777D01*
X127480077Y-73376785D01*
X127480465Y-73381711D01*
X127481619Y-73386519D01*
X127481620Y-73386523D01*
X127534739Y-73607781D01*
X127534740Y-73607786D01*
X127535895Y-73612594D01*
X127537788Y-73617164D01*
X127537789Y-73617167D01*
X127605011Y-73779457D01*
X127626760Y-73831963D01*
X127750824Y-74034416D01*
X127754031Y-74038171D01*
X127754034Y-74038175D01*
X127881329Y-74187218D01*
X127905031Y-74214969D01*
X128085584Y-74369176D01*
X128288037Y-74493240D01*
X128507406Y-74584105D01*
X128738289Y-74639535D01*
X128975000Y-74658165D01*
X129078744Y-74650000D01*
X140406835Y-74650000D01*
X140407223Y-74654930D01*
X140425076Y-74881777D01*
X140425077Y-74881785D01*
X140425465Y-74886711D01*
X140426619Y-74891519D01*
X140426620Y-74891523D01*
X140479739Y-75112781D01*
X140479740Y-75112786D01*
X140480895Y-75117594D01*
X140482788Y-75122164D01*
X140482789Y-75122167D01*
X140553623Y-75293175D01*
X140571760Y-75336963D01*
X140695824Y-75539416D01*
X140699031Y-75543171D01*
X140699034Y-75543175D01*
X140768216Y-75624176D01*
X140850031Y-75719969D01*
X140853786Y-75723176D01*
X140990873Y-75840260D01*
X141030584Y-75874176D01*
X141233037Y-75998240D01*
X141452406Y-76089105D01*
X141683289Y-76144535D01*
X141920000Y-76163165D01*
X142156711Y-76144535D01*
X142387594Y-76089105D01*
X142606963Y-75998240D01*
X142809416Y-75874176D01*
X142989969Y-75719969D01*
X143144176Y-75539416D01*
X143268240Y-75336963D01*
X143359105Y-75117594D01*
X143414535Y-74886711D01*
X143433165Y-74650000D01*
X145406835Y-74650000D01*
X145407223Y-74654930D01*
X145425076Y-74881777D01*
X145425077Y-74881785D01*
X145425465Y-74886711D01*
X145426619Y-74891519D01*
X145426620Y-74891523D01*
X145479739Y-75112781D01*
X145479740Y-75112786D01*
X145480895Y-75117594D01*
X145482788Y-75122164D01*
X145482789Y-75122167D01*
X145553623Y-75293175D01*
X145571760Y-75336963D01*
X145695824Y-75539416D01*
X145699031Y-75543171D01*
X145699034Y-75543175D01*
X145768216Y-75624176D01*
X145850031Y-75719969D01*
X145853786Y-75723176D01*
X145990873Y-75840260D01*
X146030584Y-75874176D01*
X146233037Y-75998240D01*
X146452406Y-76089105D01*
X146683289Y-76144535D01*
X146920000Y-76163165D01*
X147156711Y-76144535D01*
X147387594Y-76089105D01*
X147606963Y-75998240D01*
X147809416Y-75874176D01*
X147989969Y-75719969D01*
X148144176Y-75539416D01*
X148268240Y-75336963D01*
X148359105Y-75117594D01*
X148414535Y-74886711D01*
X148433165Y-74650000D01*
X148414535Y-74413289D01*
X148411345Y-74400000D01*
X155156835Y-74400000D01*
X155157223Y-74404930D01*
X155175076Y-74631777D01*
X155175077Y-74631785D01*
X155175465Y-74636711D01*
X155176619Y-74641519D01*
X155176620Y-74641523D01*
X155229739Y-74862781D01*
X155229740Y-74862786D01*
X155230895Y-74867594D01*
X155232788Y-74872164D01*
X155232789Y-74872167D01*
X155313673Y-75067440D01*
X155321760Y-75086963D01*
X155445824Y-75289416D01*
X155449031Y-75293171D01*
X155449034Y-75293175D01*
X155486433Y-75336963D01*
X155600031Y-75469969D01*
X155780584Y-75624176D01*
X155983037Y-75748240D01*
X156202406Y-75839105D01*
X156433289Y-75894535D01*
X156670000Y-75913165D01*
X156906711Y-75894535D01*
X157137594Y-75839105D01*
X157356963Y-75748240D01*
X157559416Y-75624176D01*
X157739969Y-75469969D01*
X157894176Y-75289416D01*
X158018240Y-75086963D01*
X158109105Y-74867594D01*
X158164535Y-74636711D01*
X158183165Y-74400000D01*
X161656835Y-74400000D01*
X161657223Y-74404930D01*
X161675076Y-74631777D01*
X161675077Y-74631785D01*
X161675465Y-74636711D01*
X161676619Y-74641519D01*
X161676620Y-74641523D01*
X161729739Y-74862781D01*
X161729740Y-74862786D01*
X161730895Y-74867594D01*
X161732788Y-74872164D01*
X161732789Y-74872167D01*
X161813673Y-75067440D01*
X161821760Y-75086963D01*
X161945824Y-75289416D01*
X161949031Y-75293171D01*
X161949034Y-75293175D01*
X161986433Y-75336963D01*
X162100031Y-75469969D01*
X162280584Y-75624176D01*
X162483037Y-75748240D01*
X162702406Y-75839105D01*
X162933289Y-75894535D01*
X163170000Y-75913165D01*
X163406711Y-75894535D01*
X163637594Y-75839105D01*
X163856963Y-75748240D01*
X164059416Y-75624176D01*
X164239969Y-75469969D01*
X164394176Y-75289416D01*
X164518240Y-75086963D01*
X164609105Y-74867594D01*
X164664535Y-74636711D01*
X164683165Y-74400000D01*
X164664535Y-74163289D01*
X164609105Y-73932406D01*
X164518240Y-73713037D01*
X164394176Y-73510584D01*
X164239969Y-73330031D01*
X164204649Y-73299865D01*
X164063175Y-73179034D01*
X164063171Y-73179031D01*
X164059416Y-73175824D01*
X163856963Y-73051760D01*
X163637594Y-72960895D01*
X163632786Y-72959740D01*
X163632781Y-72959739D01*
X163411523Y-72906620D01*
X163411519Y-72906619D01*
X163406711Y-72905465D01*
X163401785Y-72905077D01*
X163401777Y-72905076D01*
X163174930Y-72887223D01*
X163170000Y-72886835D01*
X163165070Y-72887223D01*
X162938222Y-72905076D01*
X162938212Y-72905077D01*
X162933289Y-72905465D01*
X162928482Y-72906619D01*
X162928476Y-72906620D01*
X162707218Y-72959739D01*
X162707209Y-72959741D01*
X162702406Y-72960895D01*
X162697838Y-72962786D01*
X162697832Y-72962789D01*
X162487611Y-73049865D01*
X162487606Y-73049867D01*
X162483037Y-73051760D01*
X162478817Y-73054345D01*
X162478817Y-73054346D01*
X162284798Y-73173241D01*
X162284792Y-73173245D01*
X162280584Y-73175824D01*
X162276834Y-73179026D01*
X162276824Y-73179034D01*
X162103786Y-73326823D01*
X162103779Y-73326829D01*
X162100031Y-73330031D01*
X162096829Y-73333779D01*
X162096823Y-73333786D01*
X161949034Y-73506824D01*
X161949026Y-73506834D01*
X161945824Y-73510584D01*
X161943245Y-73514792D01*
X161943241Y-73514798D01*
X161824346Y-73708817D01*
X161821760Y-73713037D01*
X161819867Y-73717606D01*
X161819865Y-73717611D01*
X161732789Y-73927832D01*
X161732786Y-73927838D01*
X161730895Y-73932406D01*
X161729741Y-73937209D01*
X161729739Y-73937218D01*
X161676620Y-74158476D01*
X161675465Y-74163289D01*
X161675077Y-74168212D01*
X161675076Y-74168222D01*
X161661663Y-74338659D01*
X161656835Y-74400000D01*
X158183165Y-74400000D01*
X158164535Y-74163289D01*
X158109105Y-73932406D01*
X158018240Y-73713037D01*
X157894176Y-73510584D01*
X157739969Y-73330031D01*
X157704649Y-73299865D01*
X157563175Y-73179034D01*
X157563171Y-73179031D01*
X157559416Y-73175824D01*
X157356963Y-73051760D01*
X157137594Y-72960895D01*
X157132786Y-72959740D01*
X157132781Y-72959739D01*
X156911523Y-72906620D01*
X156911519Y-72906619D01*
X156906711Y-72905465D01*
X156901785Y-72905077D01*
X156901777Y-72905076D01*
X156674930Y-72887223D01*
X156670000Y-72886835D01*
X156665070Y-72887223D01*
X156438222Y-72905076D01*
X156438212Y-72905077D01*
X156433289Y-72905465D01*
X156428482Y-72906619D01*
X156428476Y-72906620D01*
X156207218Y-72959739D01*
X156207209Y-72959741D01*
X156202406Y-72960895D01*
X156197838Y-72962786D01*
X156197832Y-72962789D01*
X155987611Y-73049865D01*
X155987606Y-73049867D01*
X155983037Y-73051760D01*
X155978817Y-73054345D01*
X155978817Y-73054346D01*
X155784798Y-73173241D01*
X155784792Y-73173245D01*
X155780584Y-73175824D01*
X155776834Y-73179026D01*
X155776824Y-73179034D01*
X155603786Y-73326823D01*
X155603779Y-73326829D01*
X155600031Y-73330031D01*
X155596829Y-73333779D01*
X155596823Y-73333786D01*
X155449034Y-73506824D01*
X155449026Y-73506834D01*
X155445824Y-73510584D01*
X155443245Y-73514792D01*
X155443241Y-73514798D01*
X155324346Y-73708817D01*
X155321760Y-73713037D01*
X155319867Y-73717606D01*
X155319865Y-73717611D01*
X155232789Y-73927832D01*
X155232786Y-73927838D01*
X155230895Y-73932406D01*
X155229741Y-73937209D01*
X155229739Y-73937218D01*
X155176620Y-74158476D01*
X155175465Y-74163289D01*
X155175077Y-74168212D01*
X155175076Y-74168222D01*
X155161663Y-74338659D01*
X155156835Y-74400000D01*
X148411345Y-74400000D01*
X148359105Y-74182406D01*
X148268240Y-73963037D01*
X148144176Y-73760584D01*
X147989969Y-73580031D01*
X147904255Y-73506824D01*
X147813175Y-73429034D01*
X147813171Y-73429031D01*
X147809416Y-73425824D01*
X147606963Y-73301760D01*
X147387594Y-73210895D01*
X147382786Y-73209740D01*
X147382781Y-73209739D01*
X147161523Y-73156620D01*
X147161519Y-73156619D01*
X147156711Y-73155465D01*
X147151785Y-73155077D01*
X147151777Y-73155076D01*
X146924930Y-73137223D01*
X146920000Y-73136835D01*
X146915070Y-73137223D01*
X146688222Y-73155076D01*
X146688212Y-73155077D01*
X146683289Y-73155465D01*
X146678482Y-73156619D01*
X146678476Y-73156620D01*
X146457218Y-73209739D01*
X146457209Y-73209741D01*
X146452406Y-73210895D01*
X146447838Y-73212786D01*
X146447832Y-73212789D01*
X146237611Y-73299865D01*
X146237606Y-73299867D01*
X146233037Y-73301760D01*
X146228817Y-73304345D01*
X146228817Y-73304346D01*
X146034798Y-73423241D01*
X146034792Y-73423245D01*
X146030584Y-73425824D01*
X146026834Y-73429026D01*
X146026824Y-73429034D01*
X145853786Y-73576823D01*
X145853779Y-73576829D01*
X145850031Y-73580031D01*
X145846829Y-73583779D01*
X145846823Y-73583786D01*
X145699034Y-73756824D01*
X145699026Y-73756834D01*
X145695824Y-73760584D01*
X145693245Y-73764792D01*
X145693241Y-73764798D01*
X145575295Y-73957268D01*
X145571760Y-73963037D01*
X145569867Y-73967606D01*
X145569865Y-73967611D01*
X145482789Y-74177832D01*
X145482786Y-74177838D01*
X145480895Y-74182406D01*
X145479741Y-74187209D01*
X145479739Y-74187218D01*
X145426620Y-74408476D01*
X145425465Y-74413289D01*
X145425077Y-74418212D01*
X145425076Y-74418222D01*
X145412170Y-74582210D01*
X145406835Y-74650000D01*
X143433165Y-74650000D01*
X143414535Y-74413289D01*
X143359105Y-74182406D01*
X143268240Y-73963037D01*
X143144176Y-73760584D01*
X142989969Y-73580031D01*
X142904255Y-73506824D01*
X142813175Y-73429034D01*
X142813171Y-73429031D01*
X142809416Y-73425824D01*
X142606963Y-73301760D01*
X142387594Y-73210895D01*
X142382786Y-73209740D01*
X142382781Y-73209739D01*
X142161523Y-73156620D01*
X142161519Y-73156619D01*
X142156711Y-73155465D01*
X142151785Y-73155077D01*
X142151777Y-73155076D01*
X141924930Y-73137223D01*
X141920000Y-73136835D01*
X141915070Y-73137223D01*
X141688222Y-73155076D01*
X141688212Y-73155077D01*
X141683289Y-73155465D01*
X141678482Y-73156619D01*
X141678476Y-73156620D01*
X141457218Y-73209739D01*
X141457209Y-73209741D01*
X141452406Y-73210895D01*
X141447838Y-73212786D01*
X141447832Y-73212789D01*
X141237611Y-73299865D01*
X141237606Y-73299867D01*
X141233037Y-73301760D01*
X141228817Y-73304345D01*
X141228817Y-73304346D01*
X141034798Y-73423241D01*
X141034792Y-73423245D01*
X141030584Y-73425824D01*
X141026834Y-73429026D01*
X141026824Y-73429034D01*
X140853786Y-73576823D01*
X140853779Y-73576829D01*
X140850031Y-73580031D01*
X140846829Y-73583779D01*
X140846823Y-73583786D01*
X140699034Y-73756824D01*
X140699026Y-73756834D01*
X140695824Y-73760584D01*
X140693245Y-73764792D01*
X140693241Y-73764798D01*
X140575295Y-73957268D01*
X140571760Y-73963037D01*
X140569867Y-73967606D01*
X140569865Y-73967611D01*
X140482789Y-74177832D01*
X140482786Y-74177838D01*
X140480895Y-74182406D01*
X140479741Y-74187209D01*
X140479739Y-74187218D01*
X140426620Y-74408476D01*
X140425465Y-74413289D01*
X140425077Y-74418212D01*
X140425076Y-74418222D01*
X140412170Y-74582210D01*
X140406835Y-74650000D01*
X129078744Y-74650000D01*
X129211711Y-74639535D01*
X129442594Y-74584105D01*
X129661963Y-74493240D01*
X129864416Y-74369176D01*
X130044969Y-74214969D01*
X130199176Y-74034416D01*
X130323240Y-73831963D01*
X130414105Y-73612594D01*
X130469535Y-73381711D01*
X130488165Y-73145000D01*
X130469535Y-72908289D01*
X130414105Y-72677406D01*
X130323240Y-72458037D01*
X130199176Y-72255584D01*
X130146659Y-72194095D01*
X130048176Y-72078786D01*
X130044969Y-72075031D01*
X129932310Y-71978811D01*
X129868175Y-71924034D01*
X129868171Y-71924031D01*
X129864416Y-71920824D01*
X129661963Y-71796760D01*
X129578906Y-71762357D01*
X129447167Y-71707789D01*
X129447164Y-71707788D01*
X129442594Y-71705895D01*
X129437786Y-71704740D01*
X129437781Y-71704739D01*
X129216523Y-71651620D01*
X129216519Y-71651619D01*
X129211711Y-71650465D01*
X129206785Y-71650077D01*
X129206777Y-71650076D01*
X128979930Y-71632223D01*
X128975000Y-71631835D01*
X128970070Y-71632223D01*
X128743222Y-71650076D01*
X128743212Y-71650077D01*
X128738289Y-71650465D01*
X128733482Y-71651619D01*
X128733476Y-71651620D01*
X128512209Y-71704741D01*
X128512198Y-71704744D01*
X128507406Y-71705895D01*
X128502845Y-71707783D01*
X128498125Y-71709318D01*
X128497696Y-71707999D01*
X128458367Y-71715767D01*
X128410224Y-71706149D01*
X128369411Y-71678862D01*
X126965405Y-70274856D01*
X126938091Y-70233979D01*
X126928500Y-70185761D01*
X126928500Y-61700000D01*
X136286296Y-61700000D01*
X136287215Y-61707569D01*
X136290581Y-61735290D01*
X136291500Y-61750478D01*
X136291500Y-61786028D01*
X136297343Y-61809736D01*
X136300008Y-61820545D01*
X136302750Y-61835511D01*
X136306116Y-61863237D01*
X136306117Y-61863241D01*
X136307035Y-61870801D01*
X136309736Y-61877923D01*
X136319642Y-61904046D01*
X136324166Y-61918564D01*
X136332675Y-61953083D01*
X136342337Y-61971492D01*
X136349194Y-61984558D01*
X136355436Y-61998428D01*
X136363714Y-62020253D01*
X136368046Y-62031675D01*
X136372373Y-62037944D01*
X136372376Y-62037949D01*
X136388241Y-62060932D01*
X136396113Y-62073954D01*
X136409088Y-62098677D01*
X136409091Y-62098681D01*
X136412633Y-62105430D01*
X136417687Y-62111135D01*
X136417688Y-62111136D01*
X136436208Y-62132041D01*
X136445590Y-62144016D01*
X136449167Y-62149198D01*
X136465785Y-62173273D01*
X136471491Y-62178328D01*
X136471492Y-62178329D01*
X136492393Y-62196845D01*
X136503153Y-62207605D01*
X136526727Y-62234215D01*
X136555987Y-62254412D01*
X136567957Y-62263790D01*
X136594570Y-62287367D01*
X136610945Y-62295961D01*
X136626041Y-62303884D01*
X136639064Y-62311756D01*
X136668325Y-62331954D01*
X136674416Y-62334264D01*
X136723330Y-62380307D01*
X136741502Y-62445492D01*
X136741502Y-62449513D01*
X136740583Y-62464701D01*
X136737215Y-62492432D01*
X136737215Y-62492439D01*
X136736297Y-62499999D01*
X136737215Y-62507562D01*
X136737215Y-62507568D01*
X136737526Y-62510129D01*
X136738214Y-62532902D01*
X136737599Y-62543092D01*
X136738971Y-62550582D01*
X136738972Y-62550588D01*
X136739438Y-62553127D01*
X136741502Y-62575839D01*
X136741502Y-62586028D01*
X136743323Y-62593420D01*
X136743325Y-62593429D01*
X136750007Y-62620540D01*
X136752749Y-62635500D01*
X136756116Y-62663230D01*
X136756117Y-62663233D01*
X136757036Y-62670800D01*
X136760653Y-62680339D01*
X136766770Y-62702282D01*
X136768612Y-62712328D01*
X136772800Y-62721635D01*
X136780238Y-62743188D01*
X136780851Y-62745678D01*
X136780853Y-62745683D01*
X136782677Y-62753083D01*
X136799194Y-62784553D01*
X136805437Y-62798424D01*
X136818047Y-62831674D01*
X136822379Y-62837950D01*
X136823838Y-62840064D01*
X136835038Y-62859921D01*
X136835490Y-62860926D01*
X136839226Y-62869225D01*
X136845514Y-62877252D01*
X136857894Y-62896397D01*
X136862635Y-62905430D01*
X136885156Y-62930851D01*
X136886209Y-62932039D01*
X136895587Y-62944010D01*
X136915786Y-62973272D01*
X136921485Y-62978321D01*
X136921487Y-62978323D01*
X136942395Y-62996846D01*
X136953152Y-63007603D01*
X136962012Y-63017603D01*
X136976729Y-63034215D01*
X137005987Y-63054410D01*
X137017958Y-63063789D01*
X137044571Y-63087366D01*
X137051319Y-63090907D01*
X137051320Y-63090908D01*
X137053596Y-63092103D01*
X137072749Y-63104486D01*
X137074774Y-63106073D01*
X137074776Y-63106074D01*
X137080776Y-63110775D01*
X137090074Y-63114959D01*
X137109928Y-63126157D01*
X137118327Y-63131954D01*
X137151583Y-63144565D01*
X137165432Y-63150798D01*
X137196918Y-63167324D01*
X137205723Y-63169494D01*
X137206812Y-63169763D01*
X137228367Y-63177200D01*
X137237672Y-63181388D01*
X137247700Y-63183225D01*
X137269668Y-63189349D01*
X137279201Y-63192965D01*
X137314511Y-63197252D01*
X137329464Y-63199993D01*
X137363973Y-63208499D01*
X137374167Y-63208499D01*
X137396878Y-63210563D01*
X137399410Y-63211027D01*
X137399411Y-63211027D01*
X137406909Y-63212401D01*
X137467600Y-63208729D01*
X137475207Y-63208500D01*
X139878407Y-63208500D01*
X139886028Y-63208500D01*
X139920541Y-63199992D01*
X139935504Y-63197250D01*
X139970801Y-63192965D01*
X140004053Y-63180353D01*
X140018553Y-63175835D01*
X140053083Y-63167325D01*
X140059833Y-63163781D01*
X140059836Y-63163781D01*
X140084553Y-63150808D01*
X140098432Y-63144561D01*
X140118124Y-63137093D01*
X140131675Y-63131954D01*
X140160929Y-63111759D01*
X140173948Y-63103888D01*
X140205430Y-63087367D01*
X140232046Y-63063785D01*
X140244003Y-63054417D01*
X140273273Y-63034215D01*
X140296848Y-63007603D01*
X140307604Y-62996846D01*
X140334215Y-62973273D01*
X140354417Y-62944003D01*
X140363792Y-62932039D01*
X140387367Y-62905430D01*
X140403888Y-62873948D01*
X140411762Y-62860926D01*
X140412456Y-62859921D01*
X140431954Y-62831675D01*
X140444560Y-62798432D01*
X140450808Y-62784553D01*
X140463781Y-62759836D01*
X140463784Y-62759829D01*
X140467325Y-62753083D01*
X140475835Y-62718553D01*
X140480353Y-62704053D01*
X140492965Y-62670801D01*
X140497251Y-62635500D01*
X140499993Y-62620540D01*
X140508500Y-62586028D01*
X140508500Y-62550478D01*
X140509419Y-62535290D01*
X140509709Y-62532906D01*
X140513704Y-62500000D01*
X140509418Y-62464701D01*
X140508500Y-62449522D01*
X140508500Y-62421593D01*
X140508500Y-62413972D01*
X140499990Y-62379450D01*
X140497249Y-62364489D01*
X140497096Y-62363232D01*
X140492965Y-62329199D01*
X140480356Y-62295951D01*
X140475832Y-62281432D01*
X140473665Y-62272640D01*
X140467325Y-62246917D01*
X140450801Y-62215434D01*
X140444565Y-62201579D01*
X140431954Y-62168325D01*
X140411756Y-62139064D01*
X140403884Y-62126041D01*
X140396061Y-62111136D01*
X140387367Y-62094570D01*
X140363790Y-62067957D01*
X140354412Y-62055987D01*
X140334215Y-62026727D01*
X140324349Y-62017987D01*
X140307606Y-62003154D01*
X140296845Y-61992393D01*
X140278329Y-61971492D01*
X140278328Y-61971491D01*
X140273273Y-61965785D01*
X140244016Y-61945590D01*
X140232041Y-61936208D01*
X140211136Y-61917688D01*
X140211135Y-61917687D01*
X140205430Y-61912633D01*
X140198681Y-61909091D01*
X140198677Y-61909088D01*
X140173954Y-61896113D01*
X140160932Y-61888241D01*
X140137949Y-61872376D01*
X140137944Y-61872373D01*
X140131675Y-61868046D01*
X140124547Y-61865342D01*
X140124546Y-61865342D01*
X140098428Y-61855436D01*
X140084558Y-61849194D01*
X140053083Y-61832675D01*
X140032124Y-61827508D01*
X140018564Y-61824166D01*
X140004046Y-61819642D01*
X139977923Y-61809736D01*
X139970801Y-61807035D01*
X139963241Y-61806117D01*
X139963237Y-61806116D01*
X139938307Y-61803089D01*
X139935510Y-61802749D01*
X139920551Y-61800009D01*
X139901832Y-61795395D01*
X139893421Y-61793322D01*
X139893419Y-61793321D01*
X139886028Y-61791500D01*
X139878410Y-61791500D01*
X139836440Y-61791500D01*
X139777885Y-61777067D01*
X139732744Y-61737076D01*
X139711359Y-61680687D01*
X139709419Y-61664709D01*
X139708500Y-61649522D01*
X139708500Y-61621593D01*
X139708500Y-61621590D01*
X139708500Y-61613972D01*
X139699990Y-61579450D01*
X139697249Y-61564489D01*
X139693884Y-61536767D01*
X139693883Y-61536764D01*
X139692965Y-61529199D01*
X139680356Y-61495951D01*
X139675832Y-61481432D01*
X139673900Y-61473595D01*
X139667325Y-61446917D01*
X139650801Y-61415434D01*
X139644565Y-61401579D01*
X139631954Y-61368325D01*
X139611756Y-61339064D01*
X139603884Y-61326041D01*
X139595695Y-61310439D01*
X139587367Y-61294570D01*
X139563790Y-61267957D01*
X139554412Y-61255987D01*
X139534215Y-61226727D01*
X139507602Y-61203150D01*
X139496845Y-61192393D01*
X139478329Y-61171492D01*
X139478328Y-61171491D01*
X139473273Y-61165785D01*
X139467000Y-61161455D01*
X139444016Y-61145590D01*
X139432041Y-61136208D01*
X139411136Y-61117688D01*
X139411135Y-61117687D01*
X139405430Y-61112633D01*
X139398681Y-61109091D01*
X139398677Y-61109088D01*
X139373954Y-61096113D01*
X139360932Y-61088241D01*
X139337949Y-61072376D01*
X139337944Y-61072373D01*
X139331675Y-61068046D01*
X139324547Y-61065342D01*
X139324546Y-61065342D01*
X139298428Y-61055436D01*
X139284558Y-61049194D01*
X139253083Y-61032675D01*
X139232124Y-61027508D01*
X139218564Y-61024166D01*
X139204046Y-61019642D01*
X139177923Y-61009736D01*
X139170801Y-61007035D01*
X139163241Y-61006117D01*
X139163237Y-61006116D01*
X139138307Y-61003089D01*
X139135510Y-61002749D01*
X139120551Y-61000009D01*
X139101832Y-60995395D01*
X139093421Y-60993322D01*
X139093419Y-60993321D01*
X139086028Y-60991500D01*
X139042859Y-60991500D01*
X137086028Y-60991500D01*
X136913972Y-60991500D01*
X136906577Y-60993322D01*
X136906573Y-60993323D01*
X136879451Y-61000008D01*
X136864488Y-61002750D01*
X136836764Y-61006116D01*
X136836760Y-61006116D01*
X136829199Y-61007035D01*
X136822077Y-61009735D01*
X136822076Y-61009736D01*
X136795955Y-61019642D01*
X136781436Y-61024166D01*
X136754315Y-61030851D01*
X136754311Y-61030852D01*
X136746917Y-61032675D01*
X136740172Y-61036214D01*
X136740166Y-61036217D01*
X136715432Y-61049198D01*
X136701563Y-61055440D01*
X136675453Y-61065342D01*
X136675449Y-61065344D01*
X136668325Y-61068046D01*
X136662054Y-61072374D01*
X136662051Y-61072376D01*
X136639064Y-61088243D01*
X136626048Y-61096111D01*
X136601321Y-61109089D01*
X136601316Y-61109091D01*
X136594570Y-61112633D01*
X136567959Y-61136208D01*
X136555989Y-61145585D01*
X136532998Y-61161455D01*
X136532991Y-61161460D01*
X136526727Y-61165785D01*
X136521681Y-61171480D01*
X136521675Y-61171486D01*
X136503150Y-61192396D01*
X136492396Y-61203150D01*
X136471486Y-61221675D01*
X136471480Y-61221681D01*
X136465785Y-61226727D01*
X136461460Y-61232991D01*
X136461455Y-61232998D01*
X136445585Y-61255989D01*
X136436210Y-61267955D01*
X136412633Y-61294570D01*
X136409091Y-61301316D01*
X136409089Y-61301321D01*
X136396111Y-61326048D01*
X136388243Y-61339064D01*
X136372376Y-61362051D01*
X136372374Y-61362054D01*
X136368046Y-61368325D01*
X136365344Y-61375449D01*
X136365342Y-61375453D01*
X136355440Y-61401563D01*
X136349198Y-61415432D01*
X136336217Y-61440166D01*
X136336214Y-61440172D01*
X136332675Y-61446917D01*
X136330852Y-61454311D01*
X136330851Y-61454315D01*
X136324166Y-61481436D01*
X136319642Y-61495952D01*
X136307035Y-61529199D01*
X136306116Y-61536760D01*
X136306116Y-61536764D01*
X136302750Y-61564488D01*
X136300008Y-61579451D01*
X136293323Y-61606573D01*
X136293323Y-61606574D01*
X136291500Y-61613972D01*
X136291500Y-61621590D01*
X136291500Y-61649522D01*
X136290581Y-61664709D01*
X136286296Y-61700000D01*
X126928500Y-61700000D01*
X126928500Y-58738200D01*
X133368096Y-58738200D01*
X133369015Y-58745769D01*
X133387915Y-58901432D01*
X133387916Y-58901439D01*
X133388835Y-58909001D01*
X133391537Y-58916126D01*
X133391538Y-58916129D01*
X133408904Y-58961920D01*
X133449846Y-59069875D01*
X133454174Y-59076145D01*
X133454175Y-59076147D01*
X133476506Y-59108498D01*
X133547585Y-59211473D01*
X133676370Y-59325567D01*
X133828717Y-59405525D01*
X133995772Y-59446700D01*
X134160211Y-59446700D01*
X134167828Y-59446700D01*
X134334883Y-59405525D01*
X134453145Y-59343455D01*
X134511700Y-59329023D01*
X140186284Y-59329023D01*
X140234502Y-59338614D01*
X140275379Y-59365928D01*
X140453862Y-59544411D01*
X140481149Y-59585224D01*
X140490767Y-59633367D01*
X140482999Y-59672696D01*
X140484318Y-59673125D01*
X140482783Y-59677845D01*
X140480895Y-59682406D01*
X140479744Y-59687198D01*
X140479741Y-59687209D01*
X140426620Y-59908476D01*
X140425465Y-59913289D01*
X140425077Y-59918212D01*
X140425076Y-59918222D01*
X140407223Y-60145070D01*
X140406835Y-60150000D01*
X140407223Y-60154930D01*
X140425076Y-60381777D01*
X140425077Y-60381785D01*
X140425465Y-60386711D01*
X140426619Y-60391519D01*
X140426620Y-60391523D01*
X140479739Y-60612781D01*
X140479740Y-60612786D01*
X140480895Y-60617594D01*
X140571760Y-60836963D01*
X140695824Y-61039416D01*
X140699031Y-61043171D01*
X140699034Y-61043175D01*
X140808628Y-61171492D01*
X140850031Y-61219969D01*
X140853786Y-61223176D01*
X140955957Y-61310439D01*
X141030584Y-61374176D01*
X141233037Y-61498240D01*
X141452406Y-61589105D01*
X141683289Y-61644535D01*
X141920000Y-61663165D01*
X142156711Y-61644535D01*
X142387594Y-61589105D01*
X142606963Y-61498240D01*
X142809416Y-61374176D01*
X142989969Y-61219969D01*
X143144176Y-61039416D01*
X143268240Y-60836963D01*
X143359105Y-60617594D01*
X143414535Y-60386711D01*
X143433165Y-60150000D01*
X143414535Y-59913289D01*
X143359105Y-59682406D01*
X143268240Y-59463037D01*
X143144176Y-59260584D01*
X142989969Y-59080031D01*
X142986213Y-59076823D01*
X142813175Y-58929034D01*
X142813171Y-58929031D01*
X142809416Y-58925824D01*
X142606963Y-58801760D01*
X142453515Y-58738200D01*
X142392167Y-58712789D01*
X142392164Y-58712788D01*
X142387594Y-58710895D01*
X142382786Y-58709740D01*
X142382781Y-58709739D01*
X142161523Y-58656620D01*
X142161519Y-58656619D01*
X142156711Y-58655465D01*
X142151785Y-58655077D01*
X142151777Y-58655076D01*
X141924930Y-58637223D01*
X141920000Y-58636835D01*
X141915070Y-58637223D01*
X141688222Y-58655076D01*
X141688212Y-58655077D01*
X141683289Y-58655465D01*
X141678482Y-58656619D01*
X141678476Y-58656620D01*
X141457209Y-58709741D01*
X141457198Y-58709744D01*
X141452406Y-58710895D01*
X141447845Y-58712783D01*
X141443125Y-58714318D01*
X141442696Y-58712999D01*
X141403367Y-58720767D01*
X141355224Y-58711149D01*
X141314411Y-58683862D01*
X140954837Y-58324288D01*
X140943969Y-58311896D01*
X140929537Y-58293087D01*
X140929536Y-58293086D01*
X140924510Y-58286536D01*
X140917959Y-58281509D01*
X140917957Y-58281507D01*
X140896349Y-58264927D01*
X140892597Y-58262048D01*
X140892595Y-58262046D01*
X140865057Y-58240915D01*
X140803952Y-58194027D01*
X140803950Y-58194025D01*
X140797399Y-58188999D01*
X140789772Y-58185839D01*
X140789769Y-58185838D01*
X140657003Y-58130845D01*
X140657002Y-58130844D01*
X140649374Y-58127685D01*
X140624793Y-58124449D01*
X140530415Y-58112023D01*
X140530397Y-58112022D01*
X140498712Y-58107851D01*
X140490523Y-58106773D01*
X140458830Y-58110945D01*
X140442387Y-58112023D01*
X134444339Y-58112023D01*
X134385784Y-58097590D01*
X134341636Y-58074419D01*
X134341634Y-58074418D01*
X134334883Y-58070875D01*
X134327485Y-58069051D01*
X134327481Y-58069050D01*
X134175221Y-58031522D01*
X134175219Y-58031521D01*
X134167828Y-58029700D01*
X133995772Y-58029700D01*
X133988381Y-58031521D01*
X133988378Y-58031522D01*
X133836118Y-58069050D01*
X133836111Y-58069052D01*
X133828717Y-58070875D01*
X133821968Y-58074416D01*
X133821963Y-58074419D01*
X133683122Y-58147289D01*
X133683120Y-58147290D01*
X133676370Y-58150833D01*
X133670668Y-58155884D01*
X133670663Y-58155888D01*
X133553288Y-58259874D01*
X133553285Y-58259876D01*
X133547585Y-58264927D01*
X133543260Y-58271192D01*
X133543257Y-58271196D01*
X133454175Y-58400252D01*
X133454171Y-58400257D01*
X133449846Y-58406525D01*
X133447143Y-58413651D01*
X133447142Y-58413654D01*
X133391538Y-58560270D01*
X133391536Y-58560274D01*
X133388835Y-58567399D01*
X133387917Y-58574958D01*
X133387915Y-58574967D01*
X133371181Y-58712789D01*
X133368096Y-58738200D01*
X126928500Y-58738200D01*
X126928500Y-56908136D01*
X126929578Y-56891690D01*
X126932672Y-56868188D01*
X126933750Y-56860000D01*
X126928500Y-56820120D01*
X126928500Y-56820115D01*
X126914741Y-56715604D01*
X126912838Y-56701149D01*
X126851524Y-56553124D01*
X126832018Y-56527704D01*
X126778498Y-56457955D01*
X126778497Y-56457954D01*
X126778478Y-56457929D01*
X126778474Y-56457925D01*
X126753987Y-56426013D01*
X126728619Y-56406547D01*
X126716229Y-56395680D01*
X125874313Y-55553764D01*
X125863445Y-55541372D01*
X125849013Y-55522563D01*
X125849012Y-55522562D01*
X125843986Y-55516012D01*
X125837435Y-55510985D01*
X125837433Y-55510983D01*
X125812074Y-55491525D01*
X125812071Y-55491522D01*
X125723428Y-55423503D01*
X125723426Y-55423501D01*
X125716875Y-55418475D01*
X125709248Y-55415315D01*
X125709245Y-55415314D01*
X125576478Y-55360320D01*
X125576473Y-55360318D01*
X125568850Y-55357161D01*
X125560666Y-55356083D01*
X125560665Y-55356083D01*
X125549455Y-55354607D01*
X125449884Y-55341499D01*
X125449883Y-55341499D01*
X125449875Y-55341498D01*
X125418189Y-55337327D01*
X125418188Y-55337327D01*
X125409999Y-55336249D01*
X125378306Y-55340421D01*
X125361863Y-55341499D01*
X117030871Y-55341499D01*
X116973668Y-55327766D01*
X116928935Y-55289560D01*
X116906422Y-55235210D01*
X116911038Y-55176563D01*
X116922022Y-55158638D01*
X146941500Y-55158638D01*
X146941859Y-55161985D01*
X146941860Y-55161988D01*
X146947168Y-55211367D01*
X146947169Y-55211373D01*
X146948011Y-55219201D01*
X146950762Y-55226578D01*
X146950763Y-55226580D01*
X146995962Y-55347763D01*
X146995964Y-55347766D01*
X146999111Y-55356204D01*
X147004508Y-55363414D01*
X147004510Y-55363417D01*
X147081340Y-55466049D01*
X147086739Y-55473261D01*
X147093950Y-55478659D01*
X147186476Y-55547924D01*
X147203796Y-55560889D01*
X147340799Y-55611989D01*
X147401362Y-55618500D01*
X147465500Y-55618500D01*
X147528500Y-55635381D01*
X147574619Y-55681500D01*
X147591500Y-55744500D01*
X147591500Y-55934782D01*
X147591269Y-55942390D01*
X147587598Y-56003093D01*
X147588972Y-56010591D01*
X147598559Y-56062911D01*
X147599704Y-56070432D01*
X147606115Y-56123230D01*
X147606116Y-56123234D01*
X147607035Y-56130801D01*
X147610652Y-56140340D01*
X147616769Y-56162283D01*
X147618611Y-56172329D01*
X147621733Y-56179266D01*
X147621736Y-56179275D01*
X147643572Y-56227793D01*
X147646483Y-56234822D01*
X147665339Y-56284541D01*
X147665344Y-56284550D01*
X147668046Y-56291675D01*
X147672378Y-56297951D01*
X147673837Y-56300065D01*
X147685037Y-56319922D01*
X147686096Y-56322276D01*
X147686099Y-56322281D01*
X147689225Y-56329226D01*
X147693921Y-56335220D01*
X147693923Y-56335223D01*
X147726725Y-56377091D01*
X147731235Y-56383221D01*
X147761452Y-56426998D01*
X147761459Y-56427006D01*
X147765785Y-56433273D01*
X147811316Y-56473610D01*
X147816857Y-56478827D01*
X155571171Y-64233141D01*
X155576388Y-64238682D01*
X155616727Y-64284215D01*
X155622995Y-64288541D01*
X155622999Y-64288545D01*
X155666789Y-64318771D01*
X155672895Y-64323263D01*
X155720775Y-64360775D01*
X155730063Y-64364955D01*
X155749924Y-64376155D01*
X155758325Y-64381954D01*
X155765458Y-64384659D01*
X155815173Y-64403513D01*
X155822205Y-64406425D01*
X155877671Y-64431389D01*
X155887705Y-64433227D01*
X155909662Y-64439348D01*
X155919199Y-64442965D01*
X155926766Y-64443883D01*
X155926767Y-64443884D01*
X155936371Y-64445050D01*
X155979565Y-64450294D01*
X155987064Y-64451435D01*
X156046908Y-64462402D01*
X156107615Y-64458730D01*
X156115223Y-64458500D01*
X156177815Y-64458500D01*
X156234215Y-64471828D01*
X156278683Y-64508991D01*
X156351340Y-64606049D01*
X156356739Y-64613261D01*
X156473796Y-64700889D01*
X156610799Y-64751989D01*
X156671362Y-64758500D01*
X158265269Y-64758500D01*
X158268638Y-64758500D01*
X158329201Y-64751989D01*
X158466204Y-64700889D01*
X158583261Y-64613261D01*
X158670889Y-64496204D01*
X158721989Y-64359201D01*
X158728500Y-64298638D01*
X158728500Y-63201362D01*
X158721989Y-63140799D01*
X158670889Y-63003796D01*
X158661502Y-62991257D01*
X158593194Y-62900008D01*
X158583261Y-62886739D01*
X158569077Y-62876121D01*
X158473417Y-62804510D01*
X158473414Y-62804508D01*
X158466204Y-62799111D01*
X158457766Y-62795964D01*
X158457763Y-62795962D01*
X158336580Y-62750763D01*
X158336578Y-62750762D01*
X158329201Y-62748011D01*
X158321373Y-62747169D01*
X158321367Y-62747168D01*
X158271988Y-62741860D01*
X158271985Y-62741859D01*
X158268638Y-62741500D01*
X156671362Y-62741500D01*
X156668015Y-62741859D01*
X156668011Y-62741860D01*
X156618632Y-62747168D01*
X156618625Y-62747169D01*
X156610799Y-62748011D01*
X156603423Y-62750761D01*
X156603419Y-62750763D01*
X156482236Y-62795962D01*
X156482230Y-62795965D01*
X156473796Y-62799111D01*
X156466583Y-62804510D01*
X156466582Y-62804511D01*
X156370922Y-62876121D01*
X156316307Y-62899508D01*
X156257048Y-62895270D01*
X156206318Y-62864348D01*
X154815565Y-61473595D01*
X154784827Y-61423436D01*
X154780211Y-61364789D01*
X154802724Y-61310439D01*
X154847457Y-61272233D01*
X154904660Y-61258500D01*
X156177815Y-61258500D01*
X156234215Y-61271828D01*
X156278683Y-61308991D01*
X156327480Y-61374176D01*
X156356739Y-61413261D01*
X156363950Y-61418659D01*
X156463687Y-61493322D01*
X156473796Y-61500889D01*
X156610799Y-61551989D01*
X156671362Y-61558500D01*
X158265269Y-61558500D01*
X158268638Y-61558500D01*
X158329201Y-61551989D01*
X158466204Y-61500889D01*
X158583261Y-61413261D01*
X158670889Y-61296204D01*
X158721989Y-61159201D01*
X158728500Y-61098638D01*
X158728500Y-60001362D01*
X158721989Y-59940799D01*
X158717414Y-59928533D01*
X158710452Y-59868797D01*
X158731971Y-59812639D01*
X158777068Y-59772852D01*
X158835470Y-59758500D01*
X160524340Y-59758500D01*
X160572558Y-59768091D01*
X160613435Y-59795405D01*
X161074595Y-60256565D01*
X161101909Y-60297442D01*
X161111500Y-60345660D01*
X161111500Y-61098638D01*
X161111859Y-61101985D01*
X161111860Y-61101988D01*
X161117168Y-61151367D01*
X161117169Y-61151373D01*
X161118011Y-61159201D01*
X161120762Y-61166578D01*
X161120763Y-61166580D01*
X161165962Y-61287763D01*
X161165964Y-61287766D01*
X161169111Y-61296204D01*
X161174508Y-61303414D01*
X161174510Y-61303417D01*
X161227480Y-61374176D01*
X161256739Y-61413261D01*
X161263950Y-61418659D01*
X161363687Y-61493322D01*
X161373796Y-61500889D01*
X161510799Y-61551989D01*
X161571362Y-61558500D01*
X163165269Y-61558500D01*
X163168638Y-61558500D01*
X163229201Y-61551989D01*
X163366204Y-61500889D01*
X163483261Y-61413261D01*
X163570889Y-61296204D01*
X163621989Y-61159201D01*
X163628500Y-61098638D01*
X163628500Y-60001362D01*
X163621989Y-59940799D01*
X163570889Y-59803796D01*
X163483261Y-59686739D01*
X163411965Y-59633367D01*
X163373417Y-59604510D01*
X163373414Y-59604508D01*
X163366204Y-59599111D01*
X163357766Y-59595964D01*
X163357763Y-59595962D01*
X163236580Y-59550763D01*
X163236578Y-59550762D01*
X163229201Y-59548011D01*
X163221373Y-59547169D01*
X163221367Y-59547168D01*
X163171988Y-59541860D01*
X163171985Y-59541859D01*
X163168638Y-59541500D01*
X163165269Y-59541500D01*
X162415662Y-59541500D01*
X162367444Y-59531909D01*
X162326567Y-59504596D01*
X161388811Y-58566841D01*
X161383594Y-58561298D01*
X161370576Y-58546604D01*
X161343273Y-58515785D01*
X161337006Y-58511459D01*
X161336998Y-58511452D01*
X161293221Y-58481235D01*
X161287091Y-58476725D01*
X161245223Y-58443923D01*
X161245220Y-58443921D01*
X161239226Y-58439225D01*
X161232281Y-58436099D01*
X161232276Y-58436096D01*
X161229922Y-58435037D01*
X161210065Y-58423837D01*
X161207951Y-58422378D01*
X161201675Y-58418046D01*
X161194550Y-58415344D01*
X161194541Y-58415339D01*
X161144822Y-58396483D01*
X161137793Y-58393572D01*
X161089275Y-58371736D01*
X161089266Y-58371733D01*
X161082329Y-58368611D01*
X161074842Y-58367238D01*
X161074840Y-58367238D01*
X161073719Y-58367032D01*
X161072283Y-58366769D01*
X161050340Y-58360652D01*
X161040801Y-58357035D01*
X161033234Y-58356116D01*
X161033230Y-58356115D01*
X160980432Y-58349704D01*
X160972911Y-58348559D01*
X160944691Y-58343388D01*
X160913093Y-58337598D01*
X160905486Y-58338058D01*
X160905484Y-58338058D01*
X160852390Y-58341270D01*
X160844782Y-58341500D01*
X153668868Y-58341500D01*
X153627253Y-58334429D01*
X153482125Y-58283646D01*
X153482121Y-58283645D01*
X153475448Y-58281310D01*
X153468421Y-58280518D01*
X153468420Y-58280518D01*
X153307029Y-58262334D01*
X153300000Y-58261542D01*
X153292971Y-58262334D01*
X153131579Y-58280518D01*
X153131576Y-58280518D01*
X153124552Y-58281310D01*
X153117880Y-58283644D01*
X153117874Y-58283646D01*
X152964580Y-58337286D01*
X152964573Y-58337289D01*
X152957901Y-58339624D01*
X152951915Y-58343384D01*
X152951909Y-58343388D01*
X152814399Y-58429791D01*
X152814392Y-58429796D01*
X152808404Y-58433559D01*
X152803399Y-58438563D01*
X152803395Y-58438567D01*
X152688567Y-58553395D01*
X152688563Y-58553399D01*
X152683559Y-58558404D01*
X152679796Y-58564392D01*
X152679791Y-58564399D01*
X152593388Y-58701909D01*
X152593384Y-58701915D01*
X152589624Y-58707901D01*
X152587289Y-58714573D01*
X152587286Y-58714580D01*
X152533646Y-58867874D01*
X152533644Y-58867880D01*
X152531310Y-58874552D01*
X152530518Y-58881576D01*
X152530518Y-58881579D01*
X152528728Y-58897468D01*
X152502031Y-58961920D01*
X152445135Y-59002289D01*
X152375482Y-59006201D01*
X152314425Y-58972455D01*
X149169811Y-55827841D01*
X149144062Y-55781182D01*
X159419500Y-55781182D01*
X159420201Y-55785836D01*
X159420202Y-55785842D01*
X159457901Y-56035955D01*
X159457902Y-56035962D01*
X159458604Y-56040615D01*
X159459994Y-56045121D01*
X159534546Y-56286816D01*
X159534549Y-56286825D01*
X159535937Y-56291323D01*
X159537982Y-56295569D01*
X159537983Y-56295572D01*
X159550843Y-56322276D01*
X159649772Y-56527704D01*
X159652426Y-56531597D01*
X159652428Y-56531600D01*
X159794908Y-56740580D01*
X159794912Y-56740586D01*
X159797567Y-56744479D01*
X159800767Y-56747928D01*
X159800772Y-56747934D01*
X159941758Y-56899880D01*
X159976019Y-56936805D01*
X160181143Y-57100386D01*
X160408357Y-57231568D01*
X160652584Y-57327420D01*
X160908370Y-57385802D01*
X161104506Y-57400500D01*
X161233141Y-57400500D01*
X161235494Y-57400500D01*
X161431630Y-57385802D01*
X161687416Y-57327420D01*
X161931643Y-57231568D01*
X162158857Y-57100386D01*
X162363981Y-56936805D01*
X162542433Y-56744479D01*
X162690228Y-56527704D01*
X162804063Y-56291323D01*
X162881396Y-56040615D01*
X162920500Y-55781182D01*
X162920500Y-55518818D01*
X162881396Y-55259385D01*
X162804063Y-55008677D01*
X162690228Y-54772296D01*
X162542433Y-54555521D01*
X162539231Y-54552070D01*
X162539227Y-54552065D01*
X162367181Y-54366644D01*
X162367180Y-54366643D01*
X162363981Y-54363195D01*
X162322551Y-54330156D01*
X162162537Y-54202549D01*
X162158857Y-54199614D01*
X162154780Y-54197260D01*
X162154777Y-54197258D01*
X161935730Y-54070791D01*
X161935723Y-54070787D01*
X161931643Y-54068432D01*
X161712256Y-53982329D01*
X161691809Y-53974304D01*
X161691807Y-53974303D01*
X161687416Y-53972580D01*
X161682816Y-53971530D01*
X161436231Y-53915248D01*
X161436228Y-53915247D01*
X161431630Y-53914198D01*
X161426928Y-53913845D01*
X161426924Y-53913845D01*
X161237836Y-53899675D01*
X161237822Y-53899674D01*
X161235494Y-53899500D01*
X161104506Y-53899500D01*
X161102178Y-53899674D01*
X161102163Y-53899675D01*
X160913075Y-53913845D01*
X160913069Y-53913845D01*
X160908370Y-53914198D01*
X160903772Y-53915247D01*
X160903768Y-53915248D01*
X160657183Y-53971530D01*
X160657179Y-53971531D01*
X160652584Y-53972580D01*
X160648196Y-53974302D01*
X160648190Y-53974304D01*
X160412749Y-54066708D01*
X160412745Y-54066709D01*
X160408357Y-54068432D01*
X160404281Y-54070784D01*
X160404269Y-54070791D01*
X160185222Y-54197258D01*
X160185212Y-54197264D01*
X160181143Y-54199614D01*
X160177466Y-54202546D01*
X160177462Y-54202549D01*
X159979698Y-54360260D01*
X159979689Y-54360267D01*
X159976019Y-54363195D01*
X159972823Y-54366638D01*
X159972818Y-54366644D01*
X159800772Y-54552065D01*
X159800761Y-54552077D01*
X159797567Y-54555521D01*
X159794917Y-54559407D01*
X159794908Y-54559419D01*
X159652428Y-54768399D01*
X159652422Y-54768407D01*
X159649772Y-54772296D01*
X159647727Y-54776541D01*
X159647726Y-54776544D01*
X159537983Y-55004427D01*
X159537979Y-55004434D01*
X159535937Y-55008677D01*
X159534551Y-55013170D01*
X159534546Y-55013183D01*
X159470999Y-55219201D01*
X159458604Y-55259385D01*
X159457903Y-55264034D01*
X159457901Y-55264044D01*
X159420202Y-55514157D01*
X159420201Y-55514164D01*
X159419500Y-55518818D01*
X159419500Y-55781182D01*
X149144062Y-55781182D01*
X149136029Y-55766626D01*
X149140084Y-55696825D01*
X149180727Y-55639933D01*
X149245439Y-55613468D01*
X149259201Y-55611989D01*
X149396204Y-55560889D01*
X149513261Y-55473261D01*
X149600889Y-55356204D01*
X149651989Y-55219201D01*
X149658500Y-55158638D01*
X149658500Y-53361362D01*
X149651989Y-53300799D01*
X149600889Y-53163796D01*
X149513261Y-53046739D01*
X149506049Y-53041340D01*
X149403417Y-52964510D01*
X149403414Y-52964508D01*
X149396204Y-52959111D01*
X149387766Y-52955964D01*
X149387763Y-52955962D01*
X149266580Y-52910763D01*
X149266578Y-52910762D01*
X149259201Y-52908011D01*
X149251373Y-52907169D01*
X149251367Y-52907168D01*
X149201988Y-52901860D01*
X149201985Y-52901859D01*
X149198638Y-52901500D01*
X147401362Y-52901500D01*
X147398015Y-52901859D01*
X147398011Y-52901860D01*
X147348632Y-52907168D01*
X147348625Y-52907169D01*
X147340799Y-52908011D01*
X147333423Y-52910761D01*
X147333419Y-52910763D01*
X147212236Y-52955962D01*
X147212230Y-52955965D01*
X147203796Y-52959111D01*
X147196588Y-52964506D01*
X147196582Y-52964510D01*
X147093950Y-53041340D01*
X147093946Y-53041343D01*
X147086739Y-53046739D01*
X147081343Y-53053946D01*
X147081340Y-53053950D01*
X147004510Y-53156582D01*
X147004506Y-53156588D01*
X146999111Y-53163796D01*
X146995965Y-53172230D01*
X146995962Y-53172236D01*
X146950763Y-53293419D01*
X146950761Y-53293423D01*
X146948011Y-53300799D01*
X146947169Y-53308625D01*
X146947168Y-53308632D01*
X146941860Y-53358011D01*
X146941500Y-53361362D01*
X146941500Y-55158638D01*
X116922022Y-55158638D01*
X116941775Y-55126404D01*
X117076071Y-54992106D01*
X117676238Y-54391939D01*
X117688626Y-54381077D01*
X117707437Y-54366643D01*
X117707437Y-54366642D01*
X117713987Y-54361617D01*
X117738474Y-54329704D01*
X117739063Y-54330156D01*
X117739066Y-54330154D01*
X117738477Y-54329702D01*
X117738477Y-54329701D01*
X117811524Y-54234506D01*
X117872838Y-54086481D01*
X117880189Y-54030636D01*
X117897392Y-53981718D01*
X117932841Y-53943870D01*
X117975721Y-53913845D01*
X118099781Y-53826977D01*
X118256977Y-53669781D01*
X118384488Y-53487677D01*
X118478440Y-53286196D01*
X118535978Y-53071463D01*
X118555353Y-52850000D01*
X118535978Y-52628537D01*
X118478440Y-52413804D01*
X118384488Y-52212324D01*
X118256977Y-52030219D01*
X118099781Y-51873023D01*
X118028046Y-51822794D01*
X117922185Y-51748668D01*
X117922180Y-51748665D01*
X117917677Y-51745512D01*
X117716196Y-51651560D01*
X117685291Y-51643279D01*
X117506776Y-51595445D01*
X117506769Y-51595443D01*
X117501463Y-51594022D01*
X117495989Y-51593543D01*
X117495983Y-51593542D01*
X117285475Y-51575126D01*
X117280000Y-51574647D01*
X117274525Y-51575126D01*
X117064016Y-51593542D01*
X117064008Y-51593543D01*
X117058537Y-51594022D01*
X117053232Y-51595443D01*
X117053223Y-51595445D01*
X116849114Y-51650137D01*
X116849112Y-51650137D01*
X116843804Y-51651560D01*
X116838827Y-51653880D01*
X116838821Y-51653883D01*
X116647311Y-51743186D01*
X116647306Y-51743188D01*
X116642324Y-51745512D01*
X116637824Y-51748662D01*
X116637815Y-51748668D01*
X116464730Y-51869864D01*
X116464727Y-51869866D01*
X116460219Y-51873023D01*
X116456327Y-51876914D01*
X116456321Y-51876920D01*
X116306920Y-52026321D01*
X116306914Y-52026327D01*
X116303023Y-52030219D01*
X116299866Y-52034727D01*
X116299864Y-52034730D01*
X116178668Y-52207815D01*
X116178662Y-52207824D01*
X116175512Y-52212324D01*
X116173188Y-52217306D01*
X116173186Y-52217311D01*
X116124195Y-52322373D01*
X116077700Y-52375390D01*
X116010000Y-52395123D01*
X115942300Y-52375390D01*
X115895805Y-52322373D01*
X115846813Y-52217311D01*
X115844488Y-52212324D01*
X115716977Y-52030219D01*
X115559781Y-51873023D01*
X115488046Y-51822794D01*
X115382185Y-51748668D01*
X115382180Y-51748665D01*
X115377677Y-51745512D01*
X115176196Y-51651560D01*
X115145291Y-51643279D01*
X114966776Y-51595445D01*
X114966769Y-51595443D01*
X114961463Y-51594022D01*
X114955989Y-51593543D01*
X114955983Y-51593542D01*
X114745475Y-51575126D01*
X114740000Y-51574647D01*
X114734525Y-51575126D01*
X114524016Y-51593542D01*
X114524008Y-51593543D01*
X114518537Y-51594022D01*
X114513232Y-51595443D01*
X114513223Y-51595445D01*
X114309114Y-51650137D01*
X114309112Y-51650137D01*
X114303804Y-51651560D01*
X114298827Y-51653880D01*
X114298821Y-51653883D01*
X114107311Y-51743186D01*
X114107306Y-51743188D01*
X114102324Y-51745512D01*
X114097824Y-51748662D01*
X114097815Y-51748668D01*
X113924730Y-51869864D01*
X113924727Y-51869866D01*
X113920219Y-51873023D01*
X113916327Y-51876914D01*
X113916321Y-51876920D01*
X113766920Y-52026321D01*
X113766914Y-52026327D01*
X113763023Y-52030219D01*
X113759866Y-52034727D01*
X113759864Y-52034730D01*
X113638668Y-52207815D01*
X113638662Y-52207824D01*
X113635512Y-52212324D01*
X113633188Y-52217306D01*
X113633186Y-52217311D01*
X113584195Y-52322373D01*
X113537700Y-52375390D01*
X113470000Y-52395123D01*
X113402300Y-52375390D01*
X113355805Y-52322373D01*
X113306813Y-52217311D01*
X113304488Y-52212324D01*
X113176977Y-52030219D01*
X113019781Y-51873023D01*
X112948046Y-51822794D01*
X112842185Y-51748668D01*
X112842180Y-51748665D01*
X112837677Y-51745512D01*
X112636196Y-51651560D01*
X112605291Y-51643279D01*
X112426776Y-51595445D01*
X112426769Y-51595443D01*
X112421463Y-51594022D01*
X112415989Y-51593543D01*
X112415983Y-51593542D01*
X112205475Y-51575126D01*
X112200000Y-51574647D01*
X112194525Y-51575126D01*
X111984016Y-51593542D01*
X111984008Y-51593543D01*
X111978537Y-51594022D01*
X111973232Y-51595443D01*
X111973223Y-51595445D01*
X111769114Y-51650137D01*
X111769112Y-51650137D01*
X111763804Y-51651560D01*
X111758827Y-51653880D01*
X111758821Y-51653883D01*
X111567311Y-51743186D01*
X111567306Y-51743188D01*
X111562324Y-51745512D01*
X111557824Y-51748662D01*
X111557815Y-51748668D01*
X111384730Y-51869864D01*
X111384727Y-51869866D01*
X111380219Y-51873023D01*
X111376327Y-51876914D01*
X111376321Y-51876920D01*
X111226920Y-52026321D01*
X111226914Y-52026327D01*
X111223023Y-52030219D01*
X111219866Y-52034727D01*
X111219864Y-52034730D01*
X111098668Y-52207815D01*
X111098662Y-52207824D01*
X111095512Y-52212324D01*
X111093188Y-52217306D01*
X111093186Y-52217311D01*
X111003883Y-52408821D01*
X111003880Y-52408827D01*
X111001560Y-52413804D01*
X111000137Y-52419112D01*
X111000137Y-52419114D01*
X110945445Y-52623223D01*
X110945443Y-52623232D01*
X110944022Y-52628537D01*
X110943543Y-52634008D01*
X110943542Y-52634016D01*
X110930000Y-52788813D01*
X110924647Y-52850000D01*
X110925126Y-52855475D01*
X110943542Y-53065983D01*
X110943543Y-53065989D01*
X110944022Y-53071463D01*
X110945443Y-53076769D01*
X110945445Y-53076776D01*
X110971024Y-53172236D01*
X111001560Y-53286196D01*
X111095512Y-53487677D01*
X111098665Y-53492180D01*
X111098668Y-53492185D01*
X111172794Y-53598046D01*
X111223023Y-53669781D01*
X111380219Y-53826977D01*
X111384730Y-53830135D01*
X111384734Y-53830139D01*
X111437770Y-53867275D01*
X111477263Y-53912307D01*
X111491500Y-53970488D01*
X111491500Y-55774340D01*
X111481909Y-55822558D01*
X111454597Y-55863432D01*
X110381224Y-56936805D01*
X110025927Y-57292102D01*
X109978450Y-57321934D01*
X109934585Y-57337284D01*
X109934576Y-57337287D01*
X109927901Y-57339624D01*
X109921915Y-57343384D01*
X109921907Y-57343389D01*
X109784399Y-57429791D01*
X109784392Y-57429796D01*
X109778404Y-57433559D01*
X109773399Y-57438563D01*
X109773395Y-57438567D01*
X109658567Y-57553395D01*
X109658563Y-57553399D01*
X109653559Y-57558404D01*
X109649796Y-57564392D01*
X109649791Y-57564399D01*
X109563388Y-57701909D01*
X109563384Y-57701915D01*
X109559624Y-57707901D01*
X109557289Y-57714573D01*
X109557286Y-57714580D01*
X109503646Y-57867874D01*
X109503644Y-57867880D01*
X109501310Y-57874552D01*
X109500518Y-57881576D01*
X109500518Y-57881579D01*
X109484325Y-58025296D01*
X109481542Y-58050000D01*
X85195500Y-58050000D01*
X85195500Y-55781182D01*
X87419500Y-55781182D01*
X87420201Y-55785836D01*
X87420202Y-55785842D01*
X87457901Y-56035955D01*
X87457902Y-56035962D01*
X87458604Y-56040615D01*
X87459994Y-56045121D01*
X87534546Y-56286816D01*
X87534549Y-56286825D01*
X87535937Y-56291323D01*
X87537982Y-56295569D01*
X87537983Y-56295572D01*
X87550843Y-56322276D01*
X87649772Y-56527704D01*
X87652426Y-56531597D01*
X87652428Y-56531600D01*
X87794908Y-56740580D01*
X87794912Y-56740586D01*
X87797567Y-56744479D01*
X87800767Y-56747928D01*
X87800772Y-56747934D01*
X87941758Y-56899880D01*
X87976019Y-56936805D01*
X88181143Y-57100386D01*
X88408357Y-57231568D01*
X88652584Y-57327420D01*
X88908370Y-57385802D01*
X89104506Y-57400500D01*
X89233141Y-57400500D01*
X89235494Y-57400500D01*
X89431630Y-57385802D01*
X89687416Y-57327420D01*
X89931643Y-57231568D01*
X90158857Y-57100386D01*
X90363981Y-56936805D01*
X90542433Y-56744479D01*
X90690228Y-56527704D01*
X90804063Y-56291323D01*
X90881396Y-56040615D01*
X90920500Y-55781182D01*
X90920500Y-55518818D01*
X90881396Y-55259385D01*
X90804063Y-55008677D01*
X90690228Y-54772296D01*
X90542433Y-54555521D01*
X90539231Y-54552070D01*
X90539227Y-54552065D01*
X90367181Y-54366644D01*
X90367180Y-54366643D01*
X90363981Y-54363195D01*
X90322551Y-54330156D01*
X90162537Y-54202549D01*
X90158857Y-54199614D01*
X90154780Y-54197260D01*
X90154777Y-54197258D01*
X89935730Y-54070791D01*
X89935723Y-54070787D01*
X89931643Y-54068432D01*
X89712256Y-53982329D01*
X89691809Y-53974304D01*
X89691807Y-53974303D01*
X89687416Y-53972580D01*
X89682816Y-53971530D01*
X89436231Y-53915248D01*
X89436228Y-53915247D01*
X89431630Y-53914198D01*
X89426928Y-53913845D01*
X89426924Y-53913845D01*
X89237836Y-53899675D01*
X89237822Y-53899674D01*
X89235494Y-53899500D01*
X89104506Y-53899500D01*
X89102178Y-53899674D01*
X89102163Y-53899675D01*
X88913075Y-53913845D01*
X88913069Y-53913845D01*
X88908370Y-53914198D01*
X88903772Y-53915247D01*
X88903768Y-53915248D01*
X88657183Y-53971530D01*
X88657179Y-53971531D01*
X88652584Y-53972580D01*
X88648196Y-53974302D01*
X88648190Y-53974304D01*
X88412749Y-54066708D01*
X88412745Y-54066709D01*
X88408357Y-54068432D01*
X88404281Y-54070784D01*
X88404269Y-54070791D01*
X88185222Y-54197258D01*
X88185212Y-54197264D01*
X88181143Y-54199614D01*
X88177466Y-54202546D01*
X88177462Y-54202549D01*
X87979698Y-54360260D01*
X87979689Y-54360267D01*
X87976019Y-54363195D01*
X87972823Y-54366638D01*
X87972818Y-54366644D01*
X87800772Y-54552065D01*
X87800761Y-54552077D01*
X87797567Y-54555521D01*
X87794917Y-54559407D01*
X87794908Y-54559419D01*
X87652428Y-54768399D01*
X87652422Y-54768407D01*
X87649772Y-54772296D01*
X87647727Y-54776541D01*
X87647726Y-54776544D01*
X87537983Y-55004427D01*
X87537979Y-55004434D01*
X87535937Y-55008677D01*
X87534551Y-55013170D01*
X87534546Y-55013183D01*
X87470999Y-55219201D01*
X87458604Y-55259385D01*
X87457903Y-55264034D01*
X87457901Y-55264044D01*
X87420202Y-55514157D01*
X87420201Y-55514164D01*
X87419500Y-55518818D01*
X87419500Y-55781182D01*
X85195500Y-55781182D01*
X85195500Y-49801500D01*
X85212381Y-49738500D01*
X85258500Y-49692381D01*
X85321500Y-49675500D01*
X165018500Y-49675500D01*
X165081500Y-49692381D01*
G37*
%TD.AperFunction*%
%TD*%
M02*
