%TF.GenerationSoftware,KiCad,Pcbnew,(7.0.0)*%
%TF.CreationDate,2023-06-29T16:26:30+02:00*%
%TF.ProjectId,V0_Display,56305f44-6973-4706-9c61-792e6b696361,rev?*%
%TF.SameCoordinates,Original*%
%TF.FileFunction,Soldermask,Bot*%
%TF.FilePolarity,Negative*%
%FSLAX46Y46*%
G04 Gerber Fmt 4.6, Leading zero omitted, Abs format (unit mm)*
G04 Created by KiCad (PCBNEW (7.0.0)) date 2023-06-29 16:26:30*
%MOMM*%
%LPD*%
G01*
G04 APERTURE LIST*
G04 Aperture macros list*
%AMRoundRect*
0 Rectangle with rounded corners*
0 $1 Rounding radius*
0 $2 $3 $4 $5 $6 $7 $8 $9 X,Y pos of 4 corners*
0 Add a 4 corners polygon primitive as box body*
4,1,4,$2,$3,$4,$5,$6,$7,$8,$9,$2,$3,0*
0 Add four circle primitives for the rounded corners*
1,1,$1+$1,$2,$3*
1,1,$1+$1,$4,$5*
1,1,$1+$1,$6,$7*
1,1,$1+$1,$8,$9*
0 Add four rect primitives between the rounded corners*
20,1,$1+$1,$2,$3,$4,$5,0*
20,1,$1+$1,$4,$5,$6,$7,0*
20,1,$1+$1,$6,$7,$8,$9,0*
20,1,$1+$1,$8,$9,$2,$3,0*%
G04 Aperture macros list end*
%ADD10RoundRect,0.190000X-0.140000X-0.170000X0.140000X-0.170000X0.140000X0.170000X-0.140000X0.170000X0*%
%ADD11RoundRect,0.250000X-0.275000X0.200000X-0.275000X-0.200000X0.275000X-0.200000X0.275000X0.200000X0*%
%ADD12C,3.300000*%
%ADD13C,2.100000*%
%ADD14O,2.600000X4.100000*%
%ADD15C,1.624000*%
%ADD16RoundRect,0.185000X0.135000X0.185000X-0.135000X0.185000X-0.135000X-0.185000X0.135000X-0.185000X0*%
%ADD17RoundRect,0.190000X0.140000X0.170000X-0.140000X0.170000X-0.140000X-0.170000X0.140000X-0.170000X0*%
%ADD18RoundRect,0.185000X-0.135000X-0.185000X0.135000X-0.185000X0.135000X0.185000X-0.135000X0.185000X0*%
%ADD19RoundRect,0.190000X-0.170000X0.140000X-0.170000X-0.140000X0.170000X-0.140000X0.170000X0.140000X0*%
%ADD20RoundRect,0.190000X0.170000X-0.140000X0.170000X0.140000X-0.170000X0.140000X-0.170000X-0.140000X0*%
%ADD21RoundRect,0.050000X0.850000X-0.850000X0.850000X0.850000X-0.850000X0.850000X-0.850000X-0.850000X0*%
%ADD22O,1.800000X1.800000*%
%ADD23RoundRect,0.185000X0.185000X-0.135000X0.185000X0.135000X-0.185000X0.135000X-0.185000X-0.135000X0*%
%ADD24RoundRect,0.250000X0.275000X-0.200000X0.275000X0.200000X-0.275000X0.200000X-0.275000X-0.200000X0*%
%ADD25RoundRect,0.275000X-0.250000X0.225000X-0.250000X-0.225000X0.250000X-0.225000X0.250000X0.225000X0*%
%ADD26RoundRect,0.050000X0.530000X0.325000X-0.530000X0.325000X-0.530000X-0.325000X0.530000X-0.325000X0*%
%ADD27RoundRect,0.070000X-0.525000X0.300000X-0.525000X-0.300000X0.525000X-0.300000X0.525000X0.300000X0*%
%ADD28R,0.470000X0.345000*%
%ADD29R,0.620000X0.270000*%
%ADD30RoundRect,0.050000X-0.850000X0.850000X-0.850000X-0.850000X0.850000X-0.850000X0.850000X0.850000X0*%
%ADD31RoundRect,0.275000X0.250000X-0.225000X0.250000X0.225000X-0.250000X0.225000X-0.250000X-0.225000X0*%
%ADD32RoundRect,0.050000X0.850000X0.850000X-0.850000X0.850000X-0.850000X-0.850000X0.850000X-0.850000X0*%
%ADD33R,0.270000X0.570000*%
%ADD34R,1.670000X0.270000*%
%ADD35RoundRect,0.035000X0.050000X-0.387500X0.050000X0.387500X-0.050000X0.387500X-0.050000X-0.387500X0*%
%ADD36RoundRect,0.035000X0.387500X-0.050000X0.387500X0.050000X-0.387500X0.050000X-0.387500X-0.050000X0*%
%ADD37RoundRect,0.129000X1.456000X-1.456000X1.456000X1.456000X-1.456000X1.456000X-1.456000X-1.456000X0*%
%ADD38RoundRect,0.197500X0.147500X0.172500X-0.147500X0.172500X-0.147500X-0.172500X0.147500X-0.172500X0*%
%ADD39RoundRect,0.050000X-0.700000X-0.600000X0.700000X-0.600000X0.700000X0.600000X-0.700000X0.600000X0*%
%ADD40C,0.620000*%
%ADD41R,1.120000X0.570000*%
%ADD42R,1.120000X0.270000*%
%ADD43O,2.070000X1.020000*%
%ADD44O,1.970000X0.970000*%
G04 APERTURE END LIST*
D10*
%TO.C,C10*%
X107750000Y-67000000D03*
X106790000Y-67000000D03*
%TD*%
D11*
%TO.C,R1*%
X119360000Y-79085000D03*
X119360000Y-77435000D03*
%TD*%
D12*
%TO.C,H2*%
X161170000Y-80650000D03*
%TD*%
%TO.C,H3*%
X161170000Y-55650000D03*
%TD*%
D13*
%TO.C,SW6*%
X156670000Y-69900000D03*
X163170000Y-69900000D03*
X156670000Y-74400000D03*
X163170000Y-74400000D03*
%TD*%
%TO.C,SW7*%
X141920000Y-74650000D03*
X146920000Y-74650000D03*
X144420000Y-74650000D03*
D14*
X139339999Y-67149999D03*
X149499999Y-67149999D03*
D13*
X141920000Y-60150000D03*
X146920000Y-60150000D03*
%TD*%
D12*
%TO.C,H4*%
X89170000Y-80650000D03*
%TD*%
%TO.C,H1*%
X89170000Y-55650000D03*
%TD*%
D15*
%TO.C,J2*%
X109660000Y-52850000D03*
X112200000Y-52850000D03*
X114740000Y-52850000D03*
X117280000Y-52850000D03*
%TD*%
D10*
%TO.C,C12*%
X109600000Y-58150000D03*
X108640000Y-58150000D03*
%TD*%
D16*
%TO.C,R5*%
X91810000Y-73050000D03*
X92830000Y-73050000D03*
%TD*%
D17*
%TO.C,C11*%
X119290000Y-63800000D03*
X120250000Y-63800000D03*
%TD*%
D10*
%TO.C,C14*%
X110400000Y-68050000D03*
X109440000Y-68050000D03*
%TD*%
D18*
%TO.C,R6*%
X92830000Y-61150000D03*
X91810000Y-61150000D03*
%TD*%
D19*
%TO.C,C8*%
X107080000Y-78470000D03*
X107080000Y-77510000D03*
%TD*%
D10*
%TO.C,C9*%
X107750000Y-64950000D03*
X106790000Y-64950000D03*
%TD*%
D20*
%TO.C,C5*%
X117320000Y-77070000D03*
X117320000Y-78030000D03*
%TD*%
D10*
%TO.C,C7*%
X106500000Y-61750000D03*
X105540000Y-61750000D03*
%TD*%
%TO.C,C16*%
X107750000Y-66000000D03*
X106790000Y-66000000D03*
%TD*%
%TO.C,C17*%
X107100000Y-63250000D03*
X106140000Y-63250000D03*
%TD*%
D17*
%TO.C,C13*%
X115140000Y-57950000D03*
X116100000Y-57950000D03*
%TD*%
%TO.C,C6*%
X119290000Y-64800000D03*
X120250000Y-64800000D03*
%TD*%
%TO.C,C15*%
X114540000Y-67750000D03*
X115500000Y-67750000D03*
%TD*%
D21*
%TO.C,J3*%
X108795000Y-73120000D03*
D22*
X111334999Y-73119999D03*
X113874999Y-73119999D03*
X116414999Y-73119999D03*
X118954999Y-73119999D03*
%TD*%
D23*
%TO.C,R2*%
X118750000Y-62670000D03*
X118750000Y-61650000D03*
%TD*%
D24*
%TO.C,R3*%
X115150000Y-68925000D03*
X115150000Y-70575000D03*
%TD*%
D13*
%TO.C,SW5*%
X128975000Y-73145000D03*
X122475000Y-73145000D03*
X128975000Y-77645000D03*
X122475000Y-77645000D03*
%TD*%
D25*
%TO.C,C2*%
X105520000Y-67750000D03*
X105520000Y-66200000D03*
%TD*%
D19*
%TO.C,C3*%
X118760000Y-59740000D03*
X118760000Y-60700000D03*
%TD*%
%TO.C,C4*%
X124070000Y-61680000D03*
X124070000Y-62640000D03*
%TD*%
D26*
%TO.C,U1*%
X101720000Y-68245000D03*
X101720000Y-67295000D03*
X101720000Y-66345000D03*
X103920000Y-66345000D03*
X103920000Y-68245000D03*
%TD*%
D27*
%TO.C,U3*%
X123460000Y-67850000D03*
X123460000Y-66900000D03*
X123460000Y-65950000D03*
X126160000Y-65950000D03*
X126160000Y-67850000D03*
%TD*%
D28*
%TO.C,U2*%
X100344999Y-62987499D03*
D29*
X100269999Y-62449999D03*
D28*
X100344999Y-61912499D03*
X102044999Y-61912499D03*
D29*
X102119999Y-62449999D03*
D28*
X102044999Y-62987499D03*
%TD*%
D30*
%TO.C,J8*%
X148300000Y-54260000D03*
D22*
X145759999Y-54259999D03*
%TD*%
D31*
%TO.C,C1*%
X100070000Y-66430000D03*
X100070000Y-67980000D03*
%TD*%
D32*
%TO.C,J7*%
X97220000Y-69550000D03*
D22*
X97219999Y-67009999D03*
X97219999Y-64469999D03*
X97219999Y-61929999D03*
%TD*%
D33*
%TO.C,U4*%
X103379999Y-57127499D03*
X103879999Y-57127499D03*
X104379999Y-57127499D03*
X104879999Y-57127499D03*
X104879999Y-59627499D03*
X104379999Y-59627499D03*
X103879999Y-59627499D03*
X103379999Y-59627499D03*
D34*
X104129999Y-58377499D03*
%TD*%
D13*
%TO.C,SW1*%
X104720000Y-73145000D03*
X98220000Y-73145000D03*
X104720000Y-77645000D03*
X98220000Y-77645000D03*
%TD*%
D18*
%TO.C,R7*%
X104560000Y-63190000D03*
X103540000Y-63190000D03*
%TD*%
D35*
%TO.C,U5*%
X110400000Y-59562500D03*
X110800000Y-59562500D03*
X111200000Y-59562500D03*
X111600000Y-59562500D03*
X112000000Y-59562500D03*
X112400000Y-59562500D03*
X112800000Y-59562500D03*
X113200000Y-59562500D03*
X113600000Y-59562500D03*
X114000000Y-59562500D03*
X114400000Y-59562500D03*
X114800000Y-59562500D03*
X115200000Y-59562500D03*
X115600000Y-59562500D03*
D36*
X116437500Y-60400000D03*
X116437500Y-60800000D03*
X116437500Y-61200000D03*
X116437500Y-61600000D03*
X116437500Y-62000000D03*
X116437500Y-62400000D03*
X116437500Y-62800000D03*
X116437500Y-63200000D03*
X116437500Y-63600000D03*
X116437500Y-64000000D03*
X116437500Y-64400000D03*
X116437500Y-64800000D03*
X116437500Y-65200000D03*
X116437500Y-65600000D03*
D35*
X115600000Y-66437500D03*
X115200000Y-66437500D03*
X114800000Y-66437500D03*
X114400000Y-66437500D03*
X114000000Y-66437500D03*
X113600000Y-66437500D03*
X113200000Y-66437500D03*
X112800000Y-66437500D03*
X112400000Y-66437500D03*
X112000000Y-66437500D03*
X111600000Y-66437500D03*
X111200000Y-66437500D03*
X110800000Y-66437500D03*
X110400000Y-66437500D03*
D36*
X109562500Y-65600000D03*
X109562500Y-65200000D03*
X109562500Y-64800000D03*
X109562500Y-64400000D03*
X109562500Y-64000000D03*
X109562500Y-63600000D03*
X109562500Y-63200000D03*
X109562500Y-62800000D03*
X109562500Y-62400000D03*
X109562500Y-62000000D03*
X109562500Y-61600000D03*
X109562500Y-61200000D03*
X109562500Y-60800000D03*
X109562500Y-60400000D03*
D37*
X113000000Y-63000000D03*
%TD*%
D38*
%TO.C,L1*%
X107285000Y-68050000D03*
X108255000Y-68050000D03*
%TD*%
D39*
%TO.C,Y1*%
X122520000Y-59650000D03*
X120320000Y-59650000D03*
X120320000Y-61350000D03*
X122520000Y-61350000D03*
%TD*%
D40*
%TO.C,J4*%
X91600000Y-70020000D03*
X91600000Y-64240000D03*
D41*
X92674999Y-70329999D03*
X92674999Y-69529999D03*
D42*
X92674999Y-68379999D03*
X92674999Y-67379999D03*
X92674999Y-66879999D03*
X92674999Y-65879999D03*
D41*
X92674999Y-63929999D03*
X92674999Y-64729999D03*
D42*
X92674999Y-65379999D03*
X92674999Y-66379999D03*
X92674999Y-67879999D03*
X92674999Y-68879999D03*
D43*
X92099999Y-71449999D03*
D44*
X87919999Y-71449999D03*
X87919999Y-62809999D03*
D43*
X92099999Y-62809999D03*
%TD*%
D24*
%TO.C,R4*%
X113690000Y-68925000D03*
X113690000Y-70575000D03*
%TD*%
D16*
%TO.C,R8*%
X103520000Y-64190000D03*
X104540000Y-64190000D03*
%TD*%
M02*
