M48
; DRILL file {KiCad (7.0.0)} date Thu Jun 29 16:26:30 2023
; FORMAT={-:-/ absolute / inch / decimal}
; #@! TF.CreationDate,2023-06-29T16:26:30+02:00
; #@! TF.GenerationSoftware,Kicad,Pcbnew,(7.0.0)
; #@! TF.FileFunction,Plated,1,2,PTH
FMAT,2
INCH
; #@! TA.AperFunction,Plated,PTH,ViaDrill
T1C0.0079
; #@! TA.AperFunction,Plated,PTH,ComponentDrill
T2C0.0138
; #@! TA.AperFunction,Plated,PTH,ViaDrill
T3C0.0157
; #@! TA.AperFunction,Plated,PTH,ComponentDrill
T4C0.0236
; #@! TA.AperFunction,Plated,PTH,ComponentDrill
T5C0.0300
; #@! TA.AperFunction,Plated,PTH,ComponentDrill
T6C0.0394
; #@! TA.AperFunction,Plated,PTH,ComponentDrill
T7C0.0433
; #@! TA.AperFunction,Plated,PTH,ComponentDrill
T8C0.0787
%
G90
G05
T1
X3.6957Y-2.8386
X3.6976Y-2.6831
X3.6996Y-2.4488
X3.7016Y-2.5768
X4.0996Y-2.2983
X4.172Y-2.5689
X4.1858Y-2.622
X4.2724Y-2.4724
X4.3681Y-2.4693
X4.3945Y-2.2693
X4.4397Y-2.2487
X4.5303Y-2.5039
X4.5697Y-2.7087
X4.5709Y-2.2028
X4.5799Y-2.778
X4.5815Y-2.7382
X4.5979Y-2.6804
X4.6288Y-2.6181
X4.645Y-2.5105
X4.7264Y-2.6181
X4.8665Y-2.5492
X4.8841Y-2.3652
X5.2788Y-2.3125
X5.3937Y-2.4291
X5.4114Y-2.4606
X5.4724Y-2.4291
X5.5039Y-2.4606
T2
X4.3986Y-2.4301
X4.3986Y-2.4803
X4.3986Y-2.5305
X4.4488Y-2.4301
X4.4488Y-2.4803
X4.4488Y-2.5305
X4.499Y-2.4301
X4.499Y-2.4803
X4.499Y-2.5305
T3
X3.7331Y-2.5217
X3.9102Y-2.4744
X4.1228Y-2.4232
X4.1504Y-2.4902
X4.1996Y-3.0138
X4.2533Y-2.497
X4.2705Y-2.6358
X4.2803Y-2.3248
X4.3Y-2.7146
X4.3413Y-2.2854
X4.5002Y-2.2927
X4.6031Y-2.2815
X4.622Y-2.3976
X4.6524Y-3.0965
X4.7803Y-2.5138
X4.7803Y-2.5531
X6.0354Y-2.3248
X6.0728Y-2.376
T5
X4.3173Y-2.0807
X4.4173Y-2.0807
X4.5173Y-2.0807
X4.6173Y-2.0807
T6
X3.8276Y-2.4382
X3.8276Y-2.5382
X3.8276Y-2.6382
X3.8276Y-2.7382
X4.2833Y-2.8787
X4.3833Y-2.8787
X4.4833Y-2.8787
X4.5833Y-2.8787
X4.6833Y-2.8787
X5.7386Y-2.1362
X5.8386Y-2.1362
T7
X3.8669Y-2.8797
X3.8669Y-3.0569
X4.1228Y-2.8797
X4.1228Y-3.0569
X4.8219Y-2.8797
X4.8219Y-3.0569
X5.0778Y-2.8797
X5.0778Y-3.0569
X5.5874Y-2.3681
X5.5874Y-2.939
X5.6858Y-2.939
X5.7843Y-2.3681
X5.7843Y-2.939
X6.1681Y-2.752
X6.1681Y-2.9291
X6.424Y-2.752
X6.424Y-2.9291
T4
G00X3.4772Y-2.4728
M15
G01X3.4457Y-2.4728
M16
G05
G00X3.4772Y-2.813
M15
G01X3.4457Y-2.813
M16
G05
G00X3.6476Y-2.4728
M15
G01X3.6043Y-2.4728
M16
G05
G00X3.6476Y-2.813
M15
G01X3.6043Y-2.813
M16
G05
T8
G00X5.4858Y-2.624
M15
G01X5.4858Y-2.6634
M16
G05
G00X5.8858Y-2.6634
M15
G01X5.8858Y-2.624
M16
G05
T0
M30
